<?xml version="1.0" encoding="UTF-8" standalone="no"?>
<svg
   version="1.0"
   width="844px"
   height="512px"
   viewBox="0 0 844 512"
   preserveAspectRatio="xMidYMid meet"
   id="svg20"
   sodipodi:docname="blue_full_text_logo.svg"
   inkscape:version="1.4.2 (ebf0e940, 2025-05-08)"
   xmlns:inkscape="http://www.inkscape.org/namespaces/inkscape"
   xmlns:sodipodi="http://sodipodi.sourceforge.net/DTD/sodipodi-0.dtd"
   xmlns="http://www.w3.org/2000/svg"
   xmlns:svg="http://www.w3.org/2000/svg">
  <defs
     id="defs20" />
  <sodipodi:namedview
     id="namedview20"
     pagecolor="#ffffff"
     bordercolor="#000000"
     borderopacity="0.25"
     inkscape:showpageshadow="2"
     inkscape:pageopacity="0.0"
     inkscape:pagecheckerboard="0"
     inkscape:deskcolor="#d1d1d1"
     inkscape:zoom="1.03018"
     inkscape:cx="387.79631"
     inkscape:cy="416.43208"
     inkscape:window-width="1728"
     inkscape:window-height="1381"
     inkscape:window-x="0"
     inkscape:window-y="31"
     inkscape:window-maximized="0"
     inkscape:current-layer="svg20" />
  <g
     fill="#0f3c5a"
     id="g1">
    <path
       d="M 0 255.89 l 0 -255.89 422 0 422 0 0 255.89 0 255.89 -422 0 -422 0 0 -255.89 z "
       id="path1" />
  </g>
  <g
     fill="#ffffff"
     id="g20">
    <path
       d="M 261.95 303.48 c -5.84 -1.12 -4.49 -3.14 8.08 -12.12 6.51 -4.49 26.49 -18.86 44.67 -31.87 18.18 -12.79 34.12 -24.02 35.47 -24.92 1.12 -0.67 8.08 2.69 15.49 7.86 7.41 4.94 13.92 8.98 14.81 8.98 0.67 0 12.35 -8.53 26.26 -19.08 14.14 -11 26.26 -18.86 28.06 -18.18 3.59 1.57 24.69 16.16 52.97 36.81 19.75 14.59 19.75 14.59 24.92 9.65 2.69 -2.47 5.61 -4.71 6.51 -4.71 1.57 0 29.63 19.30 52.97 36.59 l 14.14 10.55 -38.83 0.22 c -21.55 0 -93.60 0.22 -160.49 0.45 -66.67 0.22 -123.01 0.22 -125.03 -0.22 z  m 80.14 -24.92 c 4.49 -4.04 14.14 -21.32 11 -20.20 -4.26 1.80 -34.12 23.34 -34.34 24.92 0 2.69 19.08 -1.12 23.34 -4.71 z  m 93.38 4.26 c 2.92 -2.02 2.24 -3.37 -4.04 -8.53 -7.41 -6.06 -7.41 -6.06 -2.69 -21.55 2.69 -8.31 4.49 -15.49 4.04 -15.71 -0.45 -0.22 -8.98 5.16 -19.08 12.12 l -18.41 12.79 16.16 11.22 c 17.51 12.35 18.86 13.02 24.02 9.65 z "
       id="path13" />
    <path
       d="M 499.89 248.94 c -4.04 -2.24 -4.04 -2.69 1.35 -8.53 13.24 -14.14 22.67 -34.79 26.26 -57.46 7.41 -46.91 -23.12 -98.77 -67.34 -114.48 -5.61 -2.02 -17.28 -4.49 -26.04 -5.84 -63.52 -8.75 -123.01 48.93 -116.95 113.13 1.57 16.84 8.53 37.71 16.61 49.61 5.39 8.31 5.61 8.98 1.80 11.90 -2.69 1.80 -4.94 2.02 -6.73 0.67 -5.16 -4.26 -14.37 -23.79 -18.86 -40.40 -11.45 -41.30 -0.90 -79.91 30.30 -111.56 19.98 -20.43 40.40 -30.75 67.34 -34.57 54.55 -7.86 108.64 26.49 126.82 80.36 4.04 11.90 5.16 20.20 5.16 36.59 -0.22 29.41 -8.08 52.75 -24.92 73.63 -8.31 10.33 -8.75 10.55 -14.81 6.96 z "
       id="path14" />
    <path
       d="M 374.86 225.14 c 0 -0.90 7.18 -16.39 15.94 -34.34 15.71 -32.55 15.71 -32.55 49.38 -57.01 18.63 -13.24 34.12 -24.02 34.57 -23.57 0.45 0.45 -6.96 16.16 -16.39 34.57 -17.28 33.67 -17.28 33.67 -37.49 48.71 -31.43 23.57 -46.02 33.45 -46.02 31.65 z  M433.45 167.23 C 433.45 162.74 429.86 159.15 425.37 159.15 420.88 159.15 417.29 162.74 417.29 167.23 417.29 171.72 420.88 175.31 425.37 175.31 429.86 175.31 433.45 171.72 433.45 167.23 Z M433.22 169.92 "
       id="path15" />
    <path
       d="M 442.20 209.20 c 0 -1.12 3.14 -4.71 6.73 -8.31 7.41 -7.18 14.14 -25.81 13.02 -36.14 -0.45 -3.37 0.67 -6.51 2.24 -6.96 4.04 -1.57 3.59 22.22 -0.90 32.55 -3.82 9.43 -13.69 20.65 -18.18 20.65 -1.57 0 -2.92 -0.90 -2.92 -1.80 z "
       id="path16" />
    <path
       d="M 380.02 187.21 c -3.37 -8.31 -1.57 -28.73 3.37 -38.16 5.16 -10.10 17.96 -22.45 26.71 -25.81 7.18 -2.69 25.36 -2.69 25.36 0.22 0 2.24 -2.92 3.14 -18.63 5.61 -9.43 1.57 -22.45 11.90 -27.83 22.22 -1.80 3.59 -3.82 13.69 -4.26 22.22 -0.90 16.84 -2.02 20.43 -4.71 13.69 z "
       id="path17" />
    <path
       d="M 343.66 170.37 c -13.02 -2.47 -13.47 -3.59 -2.69 -5.16 29.85 -4.49 27.16 -4.49 27.16 1.80 0 5.16 -0.90 5.84 -7.18 5.61 -4.04 -0.22 -11.90 -1.12 -17.28 -2.24 z "
       id="path18" />
    <path
       d="M 482.61 167.45 c 0 -4.94 0.90 -5.84 5.16 -4.94 2.69 0.67 9.88 1.80 16.16 2.47 13.47 1.80 10.10 4.49 -8.31 6.73 -13.02 1.57 -13.02 1.57 -13.02 -4.26 z "
       id="path19" />
    <path
       d="M 416.84 105.05 c 0.67 -4.04 2.47 -10.77 3.82 -14.81 2.69 -7.63 2.69 -7.63 6.29 7.18 3.37 14.81 3.37 14.81 -4.04 14.81 -7.18 0 -7.41 -0.22 -6.06 -7.18 z "
       id="path20" />
  </g>
  <rect
     style="fill:#0f3c5a;fill-opacity:1;stroke:#0f3c5a;stroke-width:1.10655;stroke-opacity:1"
     id="rect21"
     width="761.89624"
     height="177.53232"
     x="34.02792"
     y="298.05948" />
  <text
     xml:space="preserve"
     style="font-style:normal;font-variant:normal;font-weight:bold;font-stretch:normal;font-size:96px;font-family:Inter;-inkscape-font-specification:'Inter Bold';text-align:start;letter-spacing:0.26px;word-spacing:7.23px;writing-mode:lr-tb;direction:rtl;text-anchor:start;fill:#ffffff;fill-opacity:1;stroke:#ffffff;stroke-opacity:1"
     x="720.26251"
     y="414.49066"
     id="text21"><tspan
       sodipodi:role="line"
       id="tspan21"
       x="720.52252"
       y="414.49066">StackSherpa</tspan></text>
</svg>
