<?xml version="1.0" encoding="utf-8"?>
<!DOCTYPE svg PUBLIC "-//W3C//DTD SVG 1.0//EN" "http://www.w3.org/TR/2001/REC-SVG-20010904/DTD/svg10.dtd">
<svg version="1.0" xmlns="http://www.w3.org/2000/svg" width="1009px" height="512px" viewBox="0 0 1009 512" preserveAspectRatio="xMidYMid meet">
 <g fill="#103d5a">
  <path d="M 762.11 398.30 l 0.41 -49.97 9.23 -0.41 c 9.10 -0.41 9.10 -0.41 9.10 5.43 0 5.57 0 5.70 2.17 2.72 3.40 -5.02 12.36 -8.42 21.59 -8.42 17.11 0 27.30 11.95 28.79 33.68 1.63 24.04 -10.59 40.88 -29.74 41.01 -8.42 0 -12.77 -1.77 -18.33 -7.60 -4.48 -4.75 -4.48 -4.75 -4.48 14.26 0 19.15 0 19.15 -9.51 19.15 l -9.51 0 0.27 -49.84 z  m 44.27 5.57 c 4.89 -3.40 7.06 -9.10 7.06 -19.15 0 -10.73 -2.85 -16.70 -9.64 -20.23 -11.81 -6.11 -22.95 3.53 -22.95 19.83 0 13.31 6.52 21.73 16.84 21.73 3.12 0 7.06 -0.95 8.69 -2.17 z "/>
  <path d="M 137.16 422.20 c -10.46 -1.09 -16.57 -3.40 -22.81 -8.69 -5.57 -4.62 -10.05 -13.31 -9.51 -18.06 0.41 -3.53 0.68 -3.67 10.32 -4.07 8.01 -0.27 9.78 0 9.78 1.63 0 3.94 3.26 9.23 6.93 11.14 2.31 1.09 7.88 1.90 13.99 1.90 9.37 0 10.32 -0.27 12.90 -3.67 4.21 -5.16 4.89 -9.37 2.31 -13.31 -2.99 -4.62 -7.47 -6.65 -22.68 -10.05 -16.70 -3.80 -24.85 -8.69 -28.65 -17.38 -3.67 -8.28 -2.85 -18.60 1.90 -25.80 3.67 -5.57 12.90 -11.27 18.06 -11.27 1.77 0 3.67 -0.54 4.07 -1.36 0.41 -0.68 5.84 -1.36 11.95 -1.36 16.98 0 27.84 5.98 32.86 17.93 3.94 9.78 3.40 10.59 -8.01 10.59 -9.64 0 -10.05 -0.14 -10.86 -3.40 -1.22 -5.02 -8.28 -8.83 -16.43 -8.83 -11.41 0 -18.88 6.79 -16.30 14.80 1.22 4.07 4.75 5.57 21.86 9.64 26.62 6.38 34.09 13.72 32.86 32.05 -1.22 19.83 -18.06 30.28 -44.54 27.57 z "/>
  <path d="M 494.72 422.34 c -14.26 -2.04 -25.80 -10.59 -29.06 -21.59 -2.58 -8.56 -1.36 -9.64 9.51 -9.64 9.37 0 9.37 0 10.32 4.07 2.04 9.23 17.52 14.94 28.38 10.32 8.83 -3.67 11.27 -15.75 4.21 -20.37 -1.77 -1.09 -10.59 -3.94 -19.69 -6.11 -24.04 -5.98 -31.23 -12.36 -31.23 -27.70 0 -12.36 7.74 -24.04 17.38 -26.21 2.04 -0.41 5.43 -1.36 7.60 -2.04 2.17 -0.68 8.69 -1.22 14.39 -1.22 8.69 0 11.54 0.68 17.65 3.80 8.96 4.48 14.53 11.27 15.75 19.01 0.95 5.70 0.95 5.70 -9.51 5.70 -9.10 0 -10.32 -0.27 -10.32 -2.44 0 -1.36 -1.63 -3.94 -3.53 -5.84 -2.99 -2.85 -4.75 -3.26 -13.72 -3.26 -9.51 0 -10.32 0.27 -13.44 3.80 -7.88 9.10 -2.85 14.39 18.60 19.69 8.69 2.17 18.33 5.30 21.46 7.06 19.28 11 16.43 41.01 -4.89 49.84 -7.60 3.26 -19.96 4.48 -29.88 3.12 z "/>
  <path d="M 206.28 420.30 c -6.79 -3.67 -8.01 -8.96 -8.01 -34.36 0 -22.95 0 -22.95 -4.35 -22.81 -4.48 0.14 -4.48 0.14 -4.48 -7.33 0 -7.47 0 -7.47 4.48 -7.88 4.35 -0.41 4.35 -0.54 4.35 -7.74 0 -8.28 0.68 -8.83 11.68 -8.83 7.33 0 7.33 0 7.33 8.15 0 8.15 0 8.15 7.47 8.15 7.60 0 7.60 0 7.20 7.88 -0.41 7.74 -0.41 7.74 -7.20 7.88 -6.79 0.14 -6.79 0.14 -7.20 18.74 -0.41 21.86 0.27 23.90 7.88 23.90 5.43 0 5.43 0 5.43 8.15 0 8.15 0 8.15 -10.46 8.15 -6.52 -0.14 -11.95 -0.81 -14.12 -2.04 z "/>
  <path d="M 248.79 419.62 c -9.10 -5.57 -12.49 -18.20 -7.74 -29.33 2.72 -6.65 13.31 -11.41 27.57 -12.36 11.14 -0.81 16.57 -2.99 16.57 -6.93 0 -2.99 -4.89 -7.74 -9.23 -9.10 -3.94 -1.22 -11.95 1.49 -14.39 4.89 -1.63 2.31 -3.12 2.72 -11.41 2.31 -9.64 -0.41 -9.64 -0.41 -7.06 -6.11 3.12 -7.06 12.22 -13.99 18.47 -13.99 2.44 0 4.89 -0.54 5.30 -1.36 1.22 -2.04 11.41 -1.63 19.15 0.68 7.33 2.17 14.39 8.42 16.70 14.67 0.95 2.31 1.49 15.21 1.49 31.23 0 27.43 0 27.43 -6.38 27.16 -3.67 -0.14 -7.88 -0.27 -9.51 -0.27 -2.58 -0.14 -3.12 -0.95 -3.12 -4.48 0 -4.35 0 -4.35 -3.67 -0.81 -5.16 4.89 -10.05 6.52 -19.83 6.52 -5.98 0 -9.64 -0.81 -12.90 -2.72 z  m 31.37 -16.16 c 4.89 -4.89 7.06 -15.89 2.85 -14.67 -1.36 0.41 -6.25 1.22 -10.73 1.63 -10.19 1.22 -14.26 3.67 -14.26 8.56 0 5.16 1.63 7.20 6.93 8.42 6.52 1.63 10.73 0.41 15.21 -3.94 z "/>
  <path d="M 333.39 419.76 c -12.77 -5.98 -19.01 -17.52 -19.01 -35.44 0 -19.01 5.70 -28.11 21.46 -35.04 5.70 -2.44 24.58 -2.04 29.88 0.54 8.56 4.35 14.39 11.41 16.43 19.96 0.81 3.67 0.81 3.67 -8.01 3.67 -8.69 0 -9.10 -0.14 -14.12 -5.43 -4.35 -4.48 -5.98 -5.43 -10.46 -5.43 -10.46 0 -15.48 7.20 -15.48 22.41 0 11 2.58 17.52 8.01 20.23 6.79 3.53 12.77 2.85 17.65 -2.17 3.94 -3.94 5.16 -4.48 13.85 -4.89 9.64 -0.54 9.64 -0.54 8.69 2.58 -1.90 6.79 -8.42 14.12 -15.62 17.93 -6.11 2.99 -8.96 3.67 -17.52 3.67 -7.20 0 -11.95 -0.81 -15.75 -2.58 z "/>
  <path d="M 391.11 372.50 l 0 -49.30 9.51 0 9.51 0 0 26.89 0 26.75 7.20 -8.15 c 18.20 -20.91 16.57 -19.83 29.06 -19.42 l 11.14 0.41 -13.58 14.53 -13.44 14.39 14.94 21.32 c 8.15 11.68 14.94 21.32 14.94 21.46 0 0.14 -5.02 0.14 -11.14 0.14 -12.63 -0.27 -11.68 0.54 -27.30 -21.46 -6.38 -8.96 -6.65 -9.10 -9.23 -6.79 -2.17 2.04 -2.58 4.21 -2.58 15.35 0 13.04 0 13.04 -9.51 13.04 l -9.51 0 0 -49.16 z "/>
  <path d="M 552.71 372.50 l 0 -49.30 9.51 0 c 9.51 0 9.51 0 9.51 17.79 0 17.93 0 17.93 2.72 14.39 4.35 -5.57 10.32 -7.74 20.78 -7.74 11.27 0 16.70 2.85 21.59 11.54 2.85 5.16 2.99 6.79 3.12 33.68 l 0 28.38 -9.23 0.14 c -9.10 0.27 -9.10 0.27 -9.10 -22.54 0 -24.58 -1.09 -30.01 -6.93 -34.09 -7.06 -4.89 -17.25 -0.95 -21.05 8.15 -1.36 3.26 -1.90 10.86 -1.90 26.62 0 22.14 0 22.14 -9.51 22.14 l -9.51 0 0 -49.16 z "/>
  <path d="M 650.76 420.58 c -6.93 -2.58 -12.90 -8.01 -16.57 -15.35 -2.99 -5.84 -3.40 -8.42 -3.40 -20.23 0 -12.63 0.27 -14.12 4.21 -21.05 6.25 -11.14 13.04 -14.94 28.65 -15.89 10.32 -0.68 13.04 -0.41 18.33 2.04 10.73 4.75 16.16 14.67 17.79 33.27 0.68 6.38 0.68 6.38 -24.99 6.38 -25.67 0 -25.67 0 -25.67 3.12 0 4.35 4.89 11.68 8.96 13.17 6.38 2.44 13.58 1.63 17.93 -2.04 3.53 -2.99 5.43 -3.40 13.72 -3.40 9.64 0 9.64 0 7.60 5.16 -2.58 6.38 -9.91 12.90 -16.70 14.94 -6.79 2.04 -24.04 1.90 -29.88 -0.14 z  m 30.96 -44.41 c 0 -2.85 -4.07 -9.37 -7.06 -11.41 -4.62 -3.26 -16.16 -2.85 -19.96 0.68 -2.85 2.72 -5.57 8.01 -5.57 10.86 0 0.68 7.06 1.22 16.30 1.22 10.46 0 16.30 -0.54 16.30 -1.36 z "/>
  <path d="M 710.24 386.08 c 0 -23.77 0.54 -35.85 1.49 -36.39 0.81 -0.54 5.16 -1.22 9.64 -1.77 8.15 -0.68 8.15 -0.68 7.60 5.02 -0.54 5.70 -0.54 5.70 2.04 2.17 3.53 -4.75 9.23 -7.47 15.75 -7.47 5.30 0 5.30 0 5.84 8.96 0.14 4.89 0.27 9.10 0 9.37 -0.27 0.14 -2.17 -0.27 -4.21 -1.09 -5.70 -2.17 -12.36 0.27 -16.02 5.70 -2.99 4.35 -3.12 5.98 -3.12 27.84 0 23.22 0 23.22 -9.51 23.22 l -9.51 0 0 -35.58 z "/>
  <path d="M 851.61 419.90 c -7.06 -3.53 -10.05 -8.56 -10.59 -17.52 -0.81 -12.49 5.98 -21.73 16.16 -22 2.04 -0.14 4.07 -0.68 4.48 -1.49 0.41 -0.68 5.30 -1.36 10.73 -1.36 8.15 0 10.32 -0.54 12.36 -2.72 6.11 -6.79 -4.07 -15.48 -14.53 -12.36 -2.85 0.95 -5.98 2.85 -6.93 4.21 -1.36 2.31 -3.12 2.72 -10.73 2.72 -7.47 0 -9.23 -0.41 -9.23 -2.04 0 -6.65 10.59 -17.65 18.20 -19.15 2.58 -0.41 10.19 -0.54 16.84 -0.41 10.73 0.54 12.49 0.95 17.11 4.48 9.23 6.93 10.32 11.27 10.32 42.23 0 27.16 0 27.16 -8.83 27.16 -8.83 0 -8.83 0 -8.83 -4.62 0 -4.75 0 -4.75 -3.67 -1.22 -2.17 2.04 -5.57 4.35 -7.60 5.02 -6.11 2.31 -19.96 1.77 -25.26 -0.95 z  m 30.15 -15.89 c 4.21 -4.07 5.02 -5.84 5.02 -10.46 0 -5.02 -0.27 -5.43 -2.99 -4.75 -1.77 0.41 -6.52 1.22 -10.59 1.77 -10.32 1.22 -13.58 3.53 -13.58 9.51 0 4.07 0.68 5.02 4.48 6.65 7.47 3.26 12.22 2.58 17.65 -2.72 z "/>
  <path d="M 328.91 273.37 c 1.22 -1.49 35.17 -26.75 51.33 -38.16 11.68 -8.28 30.56 -21.32 31.91 -22 0.81 -0.41 6.11 -3.94 12.09 -7.88 5.84 -3.80 11.54 -7.06 12.63 -7.06 1.09 0 7.06 3.53 13.04 7.88 6.11 4.35 11.95 8.42 12.90 8.96 1.09 0.68 7.33 -3.40 16.98 -11.14 26.07 -20.78 37.21 -28.79 39.65 -28.79 2.58 0 15.62 9.10 51.47 35.85 22.95 17.11 22.95 17.11 28.11 12.90 2.99 -2.31 6.52 -3.94 8.01 -3.67 2.44 0.41 75.91 52.55 76.05 54.05 0 0.41 -79.99 0.68 -177.76 0.68 -140.01 0 -177.49 -0.41 -176.41 -1.63 z  m 196.64 -25.53 c 0.95 -1.09 1.49 -2.31 1.22 -2.44 -13.04 -9.78 -17.52 -13.85 -16.98 -15.75 0.41 -1.22 1.63 -7.33 2.85 -13.72 1.09 -6.38 2.31 -12.63 2.72 -13.99 0.68 -3.53 -0.68 -2.85 -20.78 11.54 -17.25 12.22 -17.79 12.63 -14.94 14.67 1.63 1.09 10.59 7.60 19.83 14.53 16.98 12.49 16.98 12.49 20.64 9.91 2.04 -1.36 4.48 -3.53 5.43 -4.75 z  m -101.31 2.44 c 2.72 -5.43 8.01 -23.49 7.20 -24.44 -0.68 -0.68 -36.26 26.48 -36.26 27.57 0 0.27 6.11 0.54 13.58 0.54 13.31 0 13.58 0 15.48 -3.67 z "/>
  <path d="M 531.25 171.11 c -3.26 -2.72 -3.26 -2.72 1.49 -9.10 6.52 -8.96 8.96 -14.26 12.36 -26.07 2.72 -9.37 3.26 -10.32 6.65 -10.73 3.53 -0.41 3.67 -0.27 3.67 6.93 0 11.95 -5.98 26.48 -15.35 37.21 -4.62 5.16 -4.75 5.30 -8.83 1.77 z "/>
  <path d="M 461.59 145.04 c -3.40 -12.90 0.95 -28.65 11 -39.65 10.73 -11.68 20.10 -15.75 35.31 -15.62 10.19 0 10.19 0 -4.89 7.33 -21.18 10.05 -29.33 18.74 -33.14 35.44 -3.26 14.12 -4.48 18.20 -5.57 18.20 -0.54 0 -1.77 -2.58 -2.72 -5.70 z "/>
  <path d="M 436.19 138.65 c -5.43 -1.36 -10.19 -2.72 -10.46 -3.12 -0.41 -0.41 0.41 -1.63 1.77 -2.85 1.49 -1.36 6.25 -2.44 12.63 -3.12 10.46 -0.95 10.46 -0.95 10.86 5.43 0.68 7.33 0.54 7.33 -14.80 3.67 z "/>
  <path d="M 564.39 136.21 c 1.22 -8.15 1.49 -8.56 6.93 -8.56 5.70 0 30.56 4.21 29.74 5.02 -0.68 0.68 -33.54 8.56 -35.72 8.56 -1.09 0 -1.36 -1.63 -0.95 -5.02 z "/>
  <path d="M 506.81 79.04 c -7.33 -0.41 -8.42 -0.81 -7.88 -2.72 0.27 -1.22 0.95 -4.07 1.49 -6.38 2.72 -12.63 3.40 -14.26 6.79 -14.26 2.85 0 3.40 1.09 5.98 11.81 1.49 6.52 2.58 11.81 2.44 11.95 -0.14 0 -4.07 -0.14 -8.83 -0.41 z "/>
 </g>
 <g fill="#ff5819">
  <path d="M 589.65 213.61 c -2.44 -1.77 -4.35 -3.94 -4.35 -4.62 0 -0.68 2.04 -3.53 4.62 -6.25 25.80 -28.93 31.78 -75.64 14.39 -112.99 -12.09 -25.80 -33.54 -44.68 -62.47 -55 -11 -4.07 -12.49 -4.21 -33.27 -4.07 -19.96 0 -22.68 0.27 -32.59 3.67 -44.95 15.21 -74.15 55.27 -74.01 101.71 0 19.28 5.70 38.70 15.62 53.64 4.75 7.20 4.75 7.20 -0.81 10.86 -6.52 4.35 -5.57 5.16 -14.80 -13.85 -9.78 -20.10 -11.41 -27.57 -11.54 -50.93 0 -22.68 1.90 -32.05 10.19 -49.84 15.62 -33.68 42.37 -55.54 79.31 -64.91 23.90 -6.11 51.74 -4.21 73.88 5.02 53.37 22.14 82.16 78.63 69.53 136.21 -3.40 15.07 -13.72 36.39 -22.81 46.99 -6.65 7.74 -6.65 7.74 -10.86 4.35 z "/>
  <path d="M 459.01 190.53 c 0 -0.68 7.88 -16.98 17.52 -36.39 12.77 -25.94 18.47 -36.12 21.32 -38.16 27.43 -19.69 57.99 -39.93 60.16 -39.93 2.44 0 0.54 4.62 -15.35 36.39 -18.33 36.26 -18.33 36.26 -26.89 41.96 -4.75 2.99 -18.88 12.63 -31.64 21.32 -22.41 15.35 -25.12 16.84 -25.12 14.80 z  M517.67 132.68 C 517.67 128.20 514.01 124.53 509.66 124.53 505.18 124.53 501.51 128.20 501.51 132.68 501.51 137.02 505.18 140.69 509.66 140.69 514.01 140.69 517.67 137.02 517.67 132.68 Z M514.41 139.06 "/>
 </g>
</svg>