<?xml version="1.0" encoding="utf-8"?>
<!DOCTYPE svg PUBLIC "-//W3C//DTD SVG 1.0//EN" "http://www.w3.org/TR/2001/REC-SVG-20010904/DTD/svg10.dtd">
<svg version="1.0" xmlns="http://www.w3.org/2000/svg" width="1814px" height="512px" viewBox="0 0 1814 512" preserveAspectRatio="xMidYMid meet">
 <g fill="#0f3b58">
  <path d="M 56.34 435.29 c 25.42 -19.24 137.77 -99.63 141.20 -100.66 1.72 -0.69 11.34 4.47 20.96 12.02 17.52 13.06 17.52 13.06 56.69 -17.18 21.64 -16.83 40.54 -30.58 42.60 -30.58 3.78 0 33.67 20.61 78.33 54.28 32.29 24.39 34.01 25.08 41.91 19.93 7.56 -5.15 9.62 -4.12 58.06 30.92 27.48 19.93 50.16 36.76 50.16 37.79 0 0.69 -112.34 1.37 -249.77 1.37 -250.11 -0.34 -250.11 -0.34 -240.15 -7.90 z  m 273.13 -21.64 c 7.90 -5.84 7.90 -5.84 -6.87 -18.21 -14.43 -12.71 -14.43 -12.71 -10.65 -32.98 2.40 -10.99 4.12 -23.02 4.12 -26.80 0 -6.87 0 -6.87 -7.56 0 -4.47 3.78 -18.21 14.09 -30.92 23.02 l -23.36 16.49 30.23 21.64 c 16.49 12.02 31.61 21.99 33.33 21.99 2.06 0.34 7.21 -2.06 11.68 -5.15 z  m -144.64 -19.24 c 4.12 -11.34 7.21 -21.30 6.53 -21.99 -0.69 -1.03 -43.29 31.95 -51.88 40.20 -2.06 1.72 4.81 3.09 17.18 3.09 20.61 0 20.61 0 28.17 -21.30 z "/>
  <path d="M 1497.92 283.44 c 0 -73.87 0 -73.87 13.74 -73.87 11.68 0 13.74 1.03 13.74 7.56 0 7.21 0 7.21 8.93 -1.03 6.53 -6.18 12.71 -8.25 23.71 -8.25 27.83 0 46.38 22.67 46.38 56 0 32.64 -18.21 55.66 -44.66 55.66 -12.02 0 -29.55 -7.90 -31.95 -14.43 -1.03 -2.40 -2.06 8.25 -2.06 24.05 -0.34 28.17 -0.34 28.17 -14.09 28.17 -13.74 0 -13.74 0 -13.74 -73.87 z  m 70.09 4.47 c 7.56 -10.99 7.21 -41.23 -0.34 -48.44 -19.24 -16.83 -42.26 -5.15 -42.26 21.64 0 14.43 4.81 27.14 11.68 31.61 8.25 5.50 25.77 2.75 30.92 -4.81 z "/>
  <path d="M 566.88 316.76 c -16.49 -7.21 -30.92 -25.42 -30.92 -39.17 0 -5.15 3.09 -6.18 15.46 -6.18 11.34 0 15.46 1.37 15.46 5.15 0 16.15 30.92 25.08 47.41 13.40 16.49 -11.34 6.18 -25.08 -25.08 -32.64 -34.70 -8.25 -46.72 -18.90 -47.07 -41.57 -0.69 -29.89 16.15 -43.98 52.22 -43.98 12.37 0 26.11 2.06 30.58 4.47 9.28 4.81 19.24 17.52 22.67 29.20 2.06 6.87 1.03 7.56 -13.40 7.56 -11.68 0 -15.80 -1.37 -15.80 -5.15 0 -6.87 -10.99 -12.02 -26.45 -12.02 -15.12 0 -21.64 4.81 -21.64 16.15 0 9.28 10.99 15.46 38.48 21.30 12.71 2.75 23.36 7.56 30.23 14.09 8.93 8.25 10.31 12.02 10.31 26.80 0 18.90 -7.56 31.61 -24.05 40.20 -10.31 5.15 -48.44 6.87 -58.41 2.40 z "/>
  <path d="M 680.25 312.64 c -6.18 -6.18 -6.87 -11.34 -6.87 -44.66 0 -35.39 -0.34 -37.79 -6.87 -37.79 -5.50 0 -6.87 -2.40 -6.87 -10.31 0 -7.90 1.37 -10.31 6.87 -10.31 5.84 0 6.87 -2.40 6.87 -13.74 0 -13.74 0 -13.74 13.74 -13.74 13.74 0 13.74 0 13.74 13.74 0 13.06 0.69 13.74 10.31 13.74 9.28 0 10.31 1.03 10.31 10.31 0 9.28 -1.03 10.31 -10.31 10.31 -10.65 0 -10.65 0 -9.62 31.95 1.03 31.61 1.03 31.61 10.65 32.64 8.25 1.03 9.28 2.75 9.28 13.06 0 11.68 0 11.68 -17.18 11.68 -12.71 0 -18.90 -1.72 -24.05 -6.87 z "/>
  <path d="M 744.50 312.64 c -5.15 -4.12 -9.96 -12.02 -10.99 -18.21 -4.81 -25.08 10.99 -39.51 47.07 -42.95 21.30 -1.72 27.48 -6.87 19.93 -16.15 -5.50 -6.53 -25.42 -6.53 -30.92 0 -5.50 6.53 -30.92 7.21 -30.92 0.34 0 -8.25 13.74 -21.99 26.11 -26.11 14.77 -5.15 39.17 -2.40 50.85 5.15 12.37 8.25 15.80 22.33 15.80 65.62 0 39.17 0 39.17 -13.74 39.17 -12.37 0 -13.74 -1.03 -13.74 -8.59 0 -8.25 0 -8.25 -8.59 0 -10.99 11.34 -37.79 12.02 -50.85 1.72 z  m 50.85 -22.33 c 4.81 -4.47 8.59 -11.34 8.59 -15.12 0 -5.84 -1.72 -6.18 -14.43 -4.81 -25.42 3.09 -38.48 16.49 -24.05 24.74 9.96 5.84 21.30 4.12 29.89 -4.81 z "/>
  <path d="M 865.09 310.92 c -29.20 -19.93 -28.17 -73.52 1.72 -95.85 7.56 -5.50 14.77 -7.21 29.89 -7.21 23.71 0.34 36.07 7.21 45.69 26.11 5.84 11.68 5.84 11.68 -8.25 12.71 -11.34 1.03 -15.12 -0.34 -20.61 -7.56 -12.71 -16.49 -33.67 -9.62 -39.17 12.71 -3.09 12.02 0.69 31.61 7.21 38.48 7.90 7.56 27.83 6.53 32.98 -1.72 3.44 -5.15 8.25 -6.87 18.90 -6.87 14.77 0 14.77 0 10.31 11.34 -10.65 26.11 -52.22 35.73 -78.68 17.87 z "/>
  <path d="M 961.97 318.82 c -0.34 -0.69 -0.69 -34.01 -1.03 -73.87 -0.69 -73.18 -0.69 -73.18 13.74 -73.18 14.77 0 14.77 0 14.77 40.20 0 40.20 0 40.20 13.06 25.08 6.87 -8.25 15.12 -17.87 17.87 -21.64 4.12 -4.81 8.93 -6.18 21.64 -5.15 16.83 1.03 16.83 1.03 -2.40 22.33 -10.65 11.34 -19.24 21.99 -19.24 23.02 0 1.03 9.28 15.12 20.61 30.92 11.34 16.15 20.61 29.89 20.61 30.92 0 1.03 -7.21 2.06 -16.15 2.06 -16.49 0 -16.49 -0.34 -31.26 -22.67 -12.37 -18.55 -15.80 -21.64 -19.93 -18.55 -3.09 2.75 -4.81 10.99 -4.81 22.67 0 18.55 0 18.55 -13.74 18.55 -7.56 0 -13.74 -0.34 -13.74 -0.69 z "/>
  <path d="M 1088.40 311.95 c -12.37 -7.21 -23.36 -23.71 -23.36 -35.04 0 -4.12 3.44 -5.50 15.46 -5.50 11.34 0 15.46 1.37 15.46 5.15 0 16.83 36.76 26.45 49.13 12.71 13.06 -14.43 3.78 -25.08 -28.52 -32.98 -27.83 -7.21 -38.14 -14.43 -44.32 -31.95 -4.47 -12.37 -4.12 -14.77 1.72 -27.14 8.59 -17.52 24.39 -25.42 50.50 -25.42 28.86 0 47.07 11.34 52.22 31.95 2.40 9.28 2.06 9.28 -13.40 9.28 -11.68 0 -15.80 -1.37 -15.80 -5.15 0 -6.87 -10.99 -12.02 -26.45 -12.02 -15.46 0 -21.64 4.81 -21.64 16.49 0 8.93 9.96 14.09 40.20 21.30 23.36 5.15 34.36 14.09 38.82 31.26 4.81 17.52 -3.09 35.39 -20.27 46.72 -16.15 10.99 -51.53 10.99 -69.74 0.34 z "/>
  <path d="M 1195.59 318.82 c 0 -0.69 -0.34 -34.01 -1.03 -74.21 -0.69 -72.83 -0.69 -72.83 14.09 -72.83 14.43 0 14.43 0 14.43 26.45 0 26.11 0 26.11 8.25 18.55 15.80 -15.12 44.32 -12.71 55.66 4.81 4.81 7.21 5.84 17.18 5.50 52.56 0 43.63 0 43.63 -14.09 44.66 -14.09 1.03 -14.09 1.03 -14.09 -38.14 0 -33.67 -1.03 -39.85 -6.18 -44.66 -8.93 -7.90 -18.90 -7.21 -27.48 2.06 -6.87 7.21 -7.56 11.68 -7.56 44.66 0 36.76 0 36.76 -13.74 36.76 -7.56 0 -13.74 -0.34 -13.74 -0.69 z "/>
  <path d="M 1334.73 316.08 c -17.52 -7.21 -29.20 -28.52 -29.20 -53.60 0 -34.70 19.24 -54.63 52.22 -54.63 14.43 0.34 22.33 2.06 29.20 7.21 12.71 9.28 21.64 27.48 21.64 43.63 0 12.71 0 12.71 -38.14 12.71 -37.79 0 -37.79 0 -35.39 7.90 1.03 4.12 3.78 9.62 5.50 12.02 4.81 5.84 31.95 5.15 37.10 -0.69 3.44 -4.47 30.92 -6.87 30.92 -2.75 0 6.18 -13.74 22.33 -22.67 26.45 -11.68 5.50 -39.85 6.53 -51.19 1.72 z  m 40.88 -79.36 c -10.65 -12.02 -35.04 -7.21 -40.20 7.90 -1.72 5.15 1.03 5.84 20.96 6.87 25.08 1.03 30.23 -2.75 19.24 -14.77 z "/>
  <path d="M 1422.34 264.89 c 0 -55.31 0 -55.31 13.74 -55.31 12.02 0 13.74 1.03 14.09 7.90 0 4.12 1.03 5.50 2.06 3.09 2.06 -5.15 18.90 -14.43 26.11 -14.43 3.44 0 5.50 4.81 6.53 13.74 1.37 13.74 1.37 13.74 -11.34 13.74 -6.87 0 -14.09 2.06 -16.15 4.47 -2.06 2.40 -4.47 21.30 -4.81 42.26 -1.03 37.45 -1.03 37.45 -15.46 38.48 -14.77 1.03 -14.77 1.03 -14.77 -53.94 z "/>
  <path d="M 1621.26 309.55 c -12.02 -12.37 -13.40 -29.55 -3.09 -42.60 6.87 -8.93 30.23 -16.15 51.53 -16.15 10.65 0 14.43 -5.50 9.62 -14.43 -3.78 -7.56 -24.05 -8.25 -30.23 -1.03 -5.50 6.53 -30.92 7.21 -30.92 0.34 0 -8.25 13.74 -21.99 26.11 -26.11 13.40 -4.47 38.14 -2.75 49.82 3.78 12.37 6.53 16.83 24.05 16.83 66.65 0 39.51 0 39.51 -13.74 39.51 -11.68 0 -13.74 -1.03 -13.74 -7.21 0 -6.87 0 -6.87 -8.93 0 -6.53 5.15 -14.09 7.21 -26.11 7.21 -14.09 0 -18.55 -1.72 -27.14 -9.96 z  m 51.19 -16.49 c 4.12 -3.44 8.25 -10.31 9.62 -15.46 2.06 -9.28 1.72 -9.28 -11.34 -7.21 -28.17 4.47 -39.51 14.43 -26.80 23.71 8.93 6.53 20.27 5.84 28.52 -1.03 z "/>
  <path d="M 334.97 292.37 c -1.03 -1.72 2.75 -10.31 8.25 -19.24 5.50 -8.59 12.71 -26.45 15.80 -39.51 3.09 -13.40 7.21 -24.05 8.93 -24.05 6.18 0 3.09 42.60 -4.12 58.41 -10.65 23.71 -22.67 34.01 -28.86 24.39 z "/>
  <path d="M 233.62 238.77 c 0 -24.74 5.84 -38.14 23.36 -53.94 15.46 -14.09 36.76 -21.30 50.85 -17.87 8.59 2.06 7.56 3.09 -15.12 14.09 -13.40 6.18 -28.17 16.15 -32.98 21.99 -7.90 9.28 -19.24 38.82 -19.24 50.16 0 2.40 -1.37 4.47 -3.44 4.47 -1.72 0 -3.44 -8.59 -3.44 -18.90 z "/>
  <path d="M 184.49 238.77 c -9.28 -2.40 -17.52 -5.15 -18.21 -6.18 -1.72 -1.72 37.45 -9.28 47.75 -9.28 4.12 0 5.84 3.09 5.84 10.31 0 8.93 -1.03 10.31 -9.28 9.96 -5.50 0 -17.18 -2.40 -26.11 -4.81 z "/>
  <path d="M 384.79 233.28 c 0 -10.65 0 -10.65 18.55 -8.59 10.31 1.37 23.02 3.78 28.17 5.15 8.93 2.40 7.56 3.44 -14.77 8.25 -32.29 7.56 -31.95 7.56 -31.95 -4.81 z "/>
  <path d="M 299.93 151.85 c -13.06 -1.37 -13.06 -1.72 -5.15 -33.33 l 6.18 -24.05 6.18 24.74 c 7.56 30.58 6.87 34.01 -7.21 32.64 z "/>
 </g>
 <g fill="#ff5a1a">
  <path d="M 421.89 355.24 c -5.15 -5.15 -4.47 -6.87 6.53 -21.64 32.29 -41.91 40.88 -105.13 21.64 -155.98 -15.46 -41.23 -54.63 -80.05 -94.48 -94.14 -12.37 -4.47 -27.48 -6.18 -54.97 -6.18 -36.42 0 -38.48 0.34 -63.56 12.71 -14.09 6.87 -33.67 19.93 -43.29 29.20 -20.61 19.93 -40.88 58.41 -46.38 88.30 -6.53 35.39 3.44 82.45 23.36 112 7.56 11.34 7.56 12.37 2.06 16.49 -8.59 6.18 -10.31 5.50 -19.58 -10.31 -38.14 -65.96 -31.61 -147.39 16.15 -205.79 31.95 -39.17 80.39 -61.50 132.61 -61.50 99.98 0 175.56 76.61 175.56 177.96 0 37.79 -8.25 66.65 -26.80 95.51 -17.52 26.80 -21.99 30.23 -28.86 23.36 z "/>
  <path d="M 232.25 311.95 c 1.37 -4.12 12.71 -28.86 25.42 -54.28 22.67 -46.38 22.67 -46.38 72.49 -81.42 27.14 -18.90 49.82 -34.36 50.50 -33.67 0.69 0.69 -12.02 27.14 -27.83 59.09 -29.20 57.72 -29.20 57.72 -68.03 83.83 -21.64 14.43 -42.95 27.83 -47.07 30.23 -7.56 4.12 -7.90 3.78 -5.50 -3.78 z  m 75.58 -67.34 c 7.21 -4.81 7.90 -13.74 1.37 -19.58 -5.50 -5.15 -7.56 -5.15 -12.02 -1.72 -6.18 5.15 -6.53 14.43 -1.03 19.93 4.81 4.81 6.53 4.81 11.68 1.37 z "/>
 </g>
</svg>