<?xml version="1.0" encoding="utf-8"?>
<!DOCTYPE svg PUBLIC "-//W3C//DTD SVG 1.0//EN" "http://www.w3.org/TR/2001/REC-SVG-20010904/DTD/svg10.dtd">
<svg version="1.0" xmlns="http://www.w3.org/2000/svg" width="512px" height="421px" viewBox="0 0 512 421" preserveAspectRatio="xMidYMid meet">
 <g fill="#103d5b">
  <path d="M 10.97 389.49 c 0.18 -2.19 79.18 -58.88 121.60 -87.22 25.42 -17.19 25.42 -17.19 33.83 -11.15 31.45 22.31 24.87 23.04 62.72 -6.58 18.83 -14.63 35.66 -27.43 37.67 -28.34 4.02 -2.19 12.07 3.29 69.30 46.08 33.65 25.05 33.65 25.05 41.69 18.47 8.05 -6.58 8.05 -6.58 19.57 1.28 23.41 16.27 92.53 66.56 92.53 67.47 0.18 0.55 -107.70 0.91 -239.36 0.91 -131.84 0 -239.54 -0.37 -239.54 -0.91 z  m 265.33 -34.01 c 4.94 -3.84 4.94 -3.84 -7.68 -13.35 -10.24 -7.86 -12.43 -10.42 -11.70 -13.53 2.74 -11.34 8.23 -40.23 7.86 -40.59 -0.37 -0.37 -12.25 8.05 -26.51 18.29 -25.97 18.83 -25.97 18.83 -19.20 23.41 3.66 2.38 15.73 11.15 26.70 19.20 16.64 12.43 20.48 14.63 22.86 12.62 1.65 -1.10 5.12 -3.84 7.68 -6.03 z  m -135.86 4.39 c 2.01 -2.56 12.98 -36.75 12.25 -37.67 -0.55 -0.55 -43.89 33.28 -49.19 38.22 -1.10 0.91 5.85 1.65 16.64 1.65 12.43 0 19.02 -0.73 20.30 -2.19 z "/>
  <path d="M 188.34 276.66 c 0 -0.91 10.61 -22.86 23.59 -49.01 17.19 -34.93 24.87 -48.64 28.71 -51.38 25.42 -18.29 85.58 -59.25 86.13 -58.51 0.37 0.37 -10.79 23.59 -24.87 51.57 -25.60 51.02 -25.60 51.02 -37.12 58.70 -6.40 4.21 -25.42 17.19 -42.61 28.71 -30.17 20.48 -33.83 22.67 -33.83 19.93 z  M267.34 198.77 C 267.34 192.73 262.40 187.98 256.55 187.98 250.51 187.98 245.76 192.73 245.76 198.77 245.76 204.62 250.51 209.55 256.55 209.55 262.40 209.55 267.34 204.62 267.34 198.77 Z M262.95 207.36 "/>
  <path d="M 285.81 250.15 c -4.02 -3.84 -4.02 -3.84 1.10 -10.42 8.78 -11.52 12.98 -20.11 16.82 -35.47 2.19 -8.23 5.12 -18.10 6.77 -22.13 3.47 -8.96 5.49 -5.85 7.13 10.42 1.65 18.47 -5.67 39.13 -19.93 55.22 -2.93 3.47 -6.03 6.40 -6.77 6.40 -0.73 0 -2.93 -1.83 -5.12 -4.02 z "/>
  <path d="M 192 213.76 c -2.93 -11.89 -1.10 -25.42 4.57 -37.49 5.67 -11.34 21.76 -27.06 33.10 -32.18 9.69 -4.21 27.06 -6.22 33.28 -3.84 3.84 1.46 2.38 2.56 -13.53 9.87 -32 14.26 -41.33 25.05 -48.46 56.32 -2.01 9.14 -4.39 16.64 -5.30 16.64 -0.73 0 -2.38 -4.21 -3.66 -9.33 z "/>
  <path d="M 149.94 204.98 c -10.61 -2.74 -20.48 -5.49 -21.94 -5.85 -1.46 -0.55 9.14 -2.93 23.41 -5.30 14.26 -2.19 26.33 -3.84 26.51 -3.47 0.37 0.37 0.18 5.12 -0.18 10.42 -0.91 11.52 -0.37 11.34 -27.79 4.21 z "/>
  <path d="M 330.06 200.23 c 0 -10.24 0 -10.24 7.31 -9.14 20.66 3.11 40.05 6.58 40.78 7.31 0.37 0.37 -2.38 1.46 -6.22 2.56 -12.62 3.29 -38.22 9.33 -40.05 9.33 -0.91 0 -1.83 -4.57 -1.83 -10.06 z "/>
  <path d="M 241.92 123.06 c 0.55 -1.83 3.29 -12.80 6.03 -24.32 5.12 -21.03 5.12 -21.03 8.23 -8.23 1.83 7.13 4.57 17.92 6.03 24.32 2.56 11.34 2.56 11.34 -9.33 11.34 -10.24 0 -11.70 -0.37 -10.97 -3.11 z "/>
 </g>
 <g fill="#ff5819">
  <path d="M 363.15 307.02 c -2.56 -2.01 -4.75 -4.57 -4.75 -5.49 0 -0.91 2.74 -4.75 6.22 -8.41 21.03 -23.59 32.55 -55.41 32.55 -91.06 0 -54.86 -29.26 -102.58 -77.71 -126.72 -20.30 -10.06 -32.91 -13.17 -58.33 -14.45 -33.65 -1.65 -61.44 6.03 -88.87 24.87 -12.98 8.78 -32 28.89 -40.41 42.97 -27.25 45.35 -26.88 105.14 0.73 146.83 6.22 9.33 6.22 9.33 -1.10 14.45 -8.78 6.03 -7.50 7.31 -20.30 -19.02 -40.05 -82.29 -2.01 -182.13 82.65 -215.95 38.03 -15.18 85.39 -14.99 122.15 0.18 46.26 19.20 80.46 58.88 93.44 108.43 2.93 10.61 3.84 20.11 3.84 36.02 0 32.55 -5.85 55.77 -20.85 82.47 -6.22 11.34 -20.30 28.71 -23.04 28.71 -0.73 0 -3.47 -1.65 -6.22 -3.84 z "/>
  <path d="M 188.34 276.66 c 0 -0.91 10.61 -22.86 23.59 -49.01 17.19 -34.93 24.87 -48.64 28.71 -51.38 25.42 -18.29 85.58 -59.25 86.13 -58.51 0.37 0.37 -10.79 23.59 -24.87 51.57 -25.60 51.02 -25.60 51.02 -37.12 58.70 -6.40 4.21 -25.42 17.19 -42.61 28.71 -30.17 20.48 -33.83 22.67 -33.83 19.93 z  M267.34 198.77 C 267.34 192.73 262.40 187.98 256.55 187.98 250.51 187.98 245.76 192.73 245.76 198.77 245.76 204.62 250.51 209.55 256.55 209.55 262.40 209.55 267.34 204.62 267.34 198.77 Z M262.95 207.36 "/>
 </g>
</svg>