<?xml version="1.0" encoding="utf-8"?>
<!DOCTYPE svg PUBLIC "-//W3C//DTD SVG 1.0//EN" "http://www.w3.org/TR/2001/REC-SVG-20010904/DTD/svg10.dtd">
<svg version="1.0" xmlns="http://www.w3.org/2000/svg" width="512px" height="448px" viewBox="0 0 512 448" preserveAspectRatio="xMidYMid meet">
 <g fill="#090a0a">
  <path d="M 31.09 394.51 c -0.76 -1.37 14.93 -13.26 19.96 -15.09 2.13 -0.76 3.81 -2.13 3.81 -2.74 0 -1.22 12.50 -10.36 24.08 -17.83 1.22 -0.76 3.50 -2.59 4.88 -3.96 1.37 -1.37 4.72 -3.35 7.31 -4.57 2.74 -1.22 4.88 -2.59 4.88 -3.05 0 -0.61 5.49 -5.03 12.19 -10.06 31.39 -22.70 38.25 -27.73 44.50 -32.91 3.81 -3.20 7.47 -5.64 8.23 -5.64 0.76 0 3.50 1.83 6.10 4.27 2.59 2.29 6.40 5.03 8.69 6.25 2.13 1.22 6.10 4.27 8.69 6.70 2.59 2.59 6.55 5.49 8.69 6.70 3.50 1.83 4.42 1.68 8.84 -1.83 2.74 -1.98 7.62 -6.25 10.82 -9.45 7.62 -7.47 18.29 -15.70 20.27 -15.70 0.91 0 1.68 -0.61 1.68 -1.37 0 -0.76 2.59 -3.05 5.79 -4.88 3.05 -1.98 7.31 -5.18 9.45 -7.01 2.13 -1.98 4.57 -3.50 5.64 -3.50 1.07 0 1.98 -0.61 1.98 -1.22 0 -0.76 2.13 -2.90 4.72 -4.72 4.72 -3.50 4.72 -3.50 11.12 -0.15 3.35 1.98 7.92 5.03 10.06 6.86 2.13 1.83 6.40 4.88 9.60 6.70 3.05 1.98 5.64 4.11 5.64 4.88 0 0.76 0.76 1.37 1.83 1.37 1.37 0 17.37 11.28 26.36 18.59 3.05 2.44 22.55 17.37 31.24 23.62 8.69 6.55 8.69 6.55 13.41 2.59 2.59 -2.13 5.03 -3.66 5.49 -3.35 0.46 0.15 1.98 -1.07 3.20 -2.90 1.37 -1.98 3.05 -3.50 3.96 -3.50 1.22 0 9.30 5.49 25.75 17.52 18.59 13.56 45.41 32.91 59.73 43.12 5.03 3.50 8.99 6.55 8.69 6.55 -2.44 0.76 -446.78 0.46 -447.24 -0.30 z  m 245.64 -23.77 c 4.42 -3.20 8.23 -6.25 8.23 -6.70 0 -0.61 -3.96 -3.96 -8.69 -7.62 -17.07 -12.95 -17.37 -13.41 -16.30 -20.27 0.46 -3.35 1.52 -7.31 2.13 -8.69 0.76 -1.22 1.22 -4.42 0.91 -6.86 -0.30 -2.44 0.30 -6.86 1.22 -9.75 1.98 -5.79 1.52 -13.71 -0.61 -13.71 -0.76 0 -5.64 3.81 -10.67 8.38 -5.18 4.57 -10.82 8.69 -12.65 9.30 -1.83 0.61 -4.27 2.29 -5.33 3.81 -1.07 1.68 -3.05 2.90 -4.27 2.90 -1.22 0 -2.13 0.61 -2.13 1.37 0 0.91 -3.81 3.81 -8.38 6.55 -4.57 2.74 -8.38 6.10 -8.38 7.31 0 1.37 2.29 3.66 5.18 5.18 2.74 1.52 7.31 4.72 9.90 7.16 2.59 2.29 5.03 4.11 5.33 3.96 0.30 -0.15 7.62 5.03 16.30 11.58 8.53 6.40 16.61 11.73 17.83 11.73 1.07 0 5.79 -2.59 10.36 -5.64 z  m -129.37 -2.29 c 0.46 -2.44 1.52 -4.72 2.13 -5.18 0.76 -0.46 1.07 -1.37 0.61 -2.13 -0.46 -0.76 0.30 -3.20 1.68 -5.33 1.37 -2.13 2.13 -4.27 1.52 -4.88 -0.46 -0.61 0 -2.44 1.07 -4.11 1.22 -1.83 2.44 -6.10 2.90 -9.60 1.07 -7.92 -0.91 -8.53 -7.16 -1.98 -2.44 2.59 -5.33 4.57 -6.40 4.57 -1.07 0 -1.98 0.61 -1.98 1.37 0 1.07 -27.12 24.38 -33.37 28.50 -0.15 0.30 0 1.22 0.61 2.13 0.61 1.07 7.16 1.52 19.35 1.22 18.13 -0.30 18.13 -0.30 19.05 -4.57 z "/>
  <path d="M 361.14 317.41 c -4.57 -4.27 -4.57 -4.27 2.74 -11.89 6.70 -7.16 13.26 -16.76 18.59 -27.43 1.22 -2.59 2.90 -5.64 3.81 -6.86 2.44 -3.66 11.12 -30.93 10.51 -32.61 -0.30 -0.91 0.30 -5.03 1.37 -9.30 1.52 -5.94 2.44 -33.52 1.07 -33.52 -0.30 0 -1.07 -4.57 -1.98 -11.43 -0.46 -2.90 -1.52 -7.31 -2.44 -9.60 -0.91 -2.29 -1.52 -4.72 -1.37 -5.33 0.91 -3.20 -10.67 -28.65 -16.30 -36.11 -2.13 -2.59 -3.81 -5.18 -3.81 -5.79 0 -2.44 -20.42 -23.92 -31.09 -32.61 -9.45 -7.77 -38.10 -20.88 -49.68 -22.70 -1.22 -0.30 -4.72 -0.91 -7.62 -1.52 -10.21 -2.29 -42.36 -3.20 -50.29 -1.52 -1.98 0.46 -6.25 1.22 -9.45 1.68 -7.47 1.22 -14.48 3.66 -27.89 9.90 -21.79 10.36 -39.77 25.14 -54.55 44.95 -7.62 10.21 -19.35 31.09 -19.20 33.68 0.15 0.46 -0.46 2.59 -1.37 4.88 -3.35 8.99 -3.81 10.36 -4.11 12.50 -0.15 1.22 -1.07 5.03 -1.98 8.38 -1.07 3.66 -1.52 15.09 -1.07 28.95 0.46 22.25 1.83 32.91 4.72 37.49 0.61 1.22 1.37 2.90 1.37 3.66 0.46 4.88 12.34 28.50 17.68 35.35 2.44 3.05 4.27 5.64 4.11 5.64 -0.30 0.15 -3.05 2.44 -6.10 5.33 -5.64 5.03 -5.64 5.03 -12.34 -5.64 -8.38 -12.80 -16.30 -29.87 -17.07 -36.11 -0.15 -0.76 -0.61 -2.59 -1.07 -3.81 -4.72 -11.43 -6.40 -23.62 -6.40 -45.71 0 -17.68 1.52 -31.70 3.81 -34.44 0.91 -1.07 1.22 -2.74 0.61 -3.50 -0.46 -0.91 0.15 -3.81 1.37 -6.55 1.22 -2.74 2.90 -7.47 3.81 -10.51 1.98 -6.25 6.55 -15.70 9.30 -18.90 1.07 -1.22 1.52 -2.29 0.91 -2.29 -1.07 0 8.23 -13.56 13.41 -19.81 9.45 -11.28 26.36 -26.51 37.79 -33.98 11.28 -7.62 26.36 -15.54 27.43 -14.63 0.30 0.15 2.13 -0.61 4.27 -1.83 2.13 -1.07 4.88 -2.13 6.10 -2.29 1.22 -0.15 6.70 -1.37 12.19 -2.90 15.24 -3.96 31.54 -5.03 54.86 -3.20 11.12 0.76 13.56 1.22 16.46 2.90 0.91 0.76 2.44 0.76 3.35 0.30 0.76 -0.46 3.05 0 4.88 1.07 1.98 1.07 4.27 1.98 5.03 1.98 0.91 0.15 3.05 0.91 5.03 1.98 1.83 1.07 3.35 1.52 3.35 1.07 0 -0.46 1.52 0 3.50 1.07 1.83 1.07 3.66 1.98 4.11 1.98 3.05 0.76 10.06 4.42 17.68 9.30 9.60 6.10 31.09 23.16 31.09 24.84 0 0.46 2.74 3.96 6.10 7.77 5.79 6.55 9.45 11.58 16.15 22.10 7.01 11.12 15.39 33.07 16.76 43.89 0.61 4.42 1.68 9.14 2.44 10.67 1.83 3.66 2.74 36.72 1.07 42.82 -0.61 2.59 -1.52 8.08 -1.98 12.19 -0.46 4.11 -1.68 8.23 -2.44 9.30 -0.91 1.07 -1.52 2.59 -1.22 3.20 0.46 1.83 -3.35 13.10 -5.33 15.54 -0.76 0.91 -1.07 1.83 -0.46 1.83 0.76 0 -3.35 8.08 -10.21 19.81 -3.05 5.18 -23.62 30.48 -24.84 30.48 -0.30 0 -2.59 -1.83 -5.18 -4.11 z "/>
  <path d="M 192.76 284.95 c -0.46 -0.76 0.61 -3.96 2.44 -7.16 6.10 -10.67 16.46 -30.93 15.85 -30.93 -0.30 0 1.98 -5.33 5.18 -11.73 3.20 -6.55 7.92 -16.46 10.51 -21.94 2.59 -5.49 5.79 -10.82 7.01 -11.89 1.37 -1.22 2.44 -2.90 2.44 -3.96 0 -1.52 16.61 -14.02 28.65 -21.33 1.37 -0.76 6.86 -4.72 12.19 -8.69 5.33 -4.11 10.67 -7.31 11.89 -7.31 1.22 0 2.13 -0.61 2.13 -1.22 0 -2.59 28.50 -22.55 30.02 -21.18 0.61 0.61 -1.68 6.40 -3.96 10.21 -0.76 1.22 -3.35 6.40 -5.79 11.43 -2.44 5.03 -7.16 14.32 -10.36 20.57 -3.20 6.25 -5.94 11.89 -6.10 12.50 0 0.61 -0.91 1.98 -1.83 3.05 -1.07 0.91 -1.98 2.44 -1.98 3.20 0 0.91 -2.44 6.70 -5.49 13.10 -6.25 12.80 -14.48 23.92 -19.05 25.30 -1.68 0.61 -5.03 2.90 -7.62 5.33 -2.59 2.29 -7.16 5.49 -10.21 7.16 -2.90 1.52 -7.16 4.42 -9.30 6.25 -5.03 4.57 -16.61 12.50 -18.29 12.50 -0.76 0 -2.13 1.07 -3.20 2.29 -3.20 3.81 -24.23 16 -25.14 14.48 z  M266.67 213.33 C 266.67 206.78 261.33 201.60 254.78 201.60 248.23 201.60 242.90 206.78 242.90 213.33 242.90 219.89 248.23 225.22 254.78 225.22 261.33 225.22 266.67 219.89 266.67 213.33 Z M261.94 222.93 "/>
  <path d="M 286.63 263.77 c -3.50 -4.72 -3.50 -4.72 1.37 -10.36 2.74 -3.05 5.79 -7.62 6.86 -10.21 1.07 -2.59 2.59 -5.33 3.20 -5.94 0.61 -0.61 1.37 -1.98 1.52 -3.05 0.15 -1.07 1.37 -6.25 2.90 -11.73 1.52 -5.49 3.20 -12.65 3.66 -16 1.22 -7.01 4.57 -13.71 5.94 -12.19 2.90 2.90 2.74 35.35 -0.15 39.92 -0.76 1.07 -1.52 3.35 -1.83 5.03 -0.30 1.68 -1.98 5.03 -3.66 7.47 -1.83 2.44 -3.20 5.03 -3.20 5.64 0 0.61 -1.07 2.13 -2.29 3.50 -1.22 1.37 -4.11 4.72 -6.55 7.62 -4.42 5.18 -4.42 5.18 -7.77 0.30 z "/>
  <path d="M 198.10 230.86 c -1.37 -1.52 -1.98 -6.40 -1.83 -14.17 0.15 -13.71 0.15 -13.87 6.10 -28.50 2.44 -6.10 12.19 -19.05 13.26 -17.52 0.30 0.46 1.98 -1.07 3.81 -3.35 2.74 -3.66 14.32 -10.67 19.05 -11.73 0.91 -0.15 2.90 -0.61 4.57 -1.07 6.86 -1.52 13.71 -1.68 18.74 -0.30 5.18 1.52 5.18 1.52 1.37 3.50 -2.13 1.07 -6.40 2.74 -9.75 3.81 -10.21 3.35 -20.27 9.30 -28.80 17.07 -4.57 4.27 -8.23 8.23 -8.23 8.99 0 0.76 -1.68 3.96 -3.66 7.16 -3.20 5.18 -6.40 14.78 -5.79 17.37 0.15 0.61 -0.76 3.81 -1.98 7.31 -1.22 3.50 -1.98 6.86 -1.52 7.62 0.30 0.61 -0.15 2.29 -1.22 3.66 -1.83 2.44 -2.13 2.59 -4.11 0.15 z "/>
  <path d="M 172.50 220.80 c -0.61 -0.61 -4.11 -1.52 -7.92 -2.13 -3.66 -0.61 -8.08 -1.68 -9.60 -2.59 -1.52 -0.76 -3.20 -1.07 -3.66 -0.61 -0.46 0.46 -2.59 -0.15 -4.88 -1.22 -2.13 -1.07 -5.79 -1.68 -8.08 -1.37 -4.57 0.61 -7.16 -1.98 -3.20 -3.20 1.52 -0.46 6.10 -1.22 10.06 -1.68 3.96 -0.30 8.08 -1.22 9.14 -1.83 1.07 -0.61 4.27 -1.22 7.16 -1.37 5.18 -0.30 11.73 -1.37 16.91 -3.05 3.35 -0.91 4.11 1.37 3.81 11.58 -0.30 8.08 -0.46 8.38 -4.42 8.38 -2.29 0.15 -4.57 -0.30 -5.33 -0.91 z "/>
  <path d="M 327.47 220.50 c 0 -1.07 -0.30 -5.49 -0.61 -9.75 -0.76 -8.38 -0.46 -8.69 6.10 -8.23 3.35 0.30 9.14 1.37 9.14 1.68 0 0 3.66 0.46 8.23 0.91 4.42 0.30 8.84 1.22 9.90 1.68 0.91 0.61 2.74 0.91 4.11 0.76 3.05 -0.46 11.28 2.59 10.06 3.81 -0.61 0.46 -3.50 1.22 -6.55 1.52 -3.05 0.30 -6.70 1.22 -8.08 1.83 -1.37 0.76 -3.66 1.07 -5.33 0.76 -1.52 -0.15 -4.27 0.15 -6.10 0.91 -3.66 1.37 -3.05 1.22 -13.10 3.81 -5.64 1.52 -7.62 1.52 -7.77 0.30 z "/>
  <path d="M 247.77 138.67 c -0.91 -1.52 0.46 -12.19 1.98 -15.09 0.91 -1.52 1.22 -3.20 0.61 -3.66 -0.46 -0.61 0.30 -3.66 1.68 -7.01 1.22 -3.35 1.98 -7.01 1.68 -8.08 -0.46 -1.22 0.15 -3.35 1.37 -5.03 2.13 -2.90 2.29 -2.90 4.11 1.52 0.91 2.59 1.68 5.79 1.68 7.16 0 1.52 0.61 3.05 1.37 3.50 0.76 0.61 1.07 1.68 0.46 2.44 -0.46 0.76 0 2.44 0.91 3.66 1.07 1.22 1.37 3.35 0.91 4.72 -0.61 1.37 -0.30 3.35 0.30 4.27 0.76 0.91 1.83 4.27 2.29 7.31 0.91 5.64 0.91 5.64 -9.14 5.33 -5.33 -0.15 -10.06 -0.61 -10.21 -1.07 z "/>
 </g>
 <g fill="#000000">
  <path d="M29.41 393.90 c0.30 -0.76 9.45 -7.92 20.27 -15.70 10.82 -7.77 20.72 -15.09 22.10 -16.15 1.37 -1.07 6.86 -5.03 12.19 -8.69 5.33 -3.50 13.87 -9.60 18.90 -13.26 5.03 -3.66 10.82 -7.77 12.65 -9.14 7.92 -5.64 36.11 -26.82 36.88 -27.58 0.46 -0.46 2.29 -2.29 4.11 -3.81 3.50 -2.90 3.50 -2.90 9.90 1.52 3.66 2.44 6.86 4.72 7.31 5.18 0.46 0.46 3.20 2.59 6.10 4.57 2.90 1.98 5.64 4.11 6.10 4.57 0.46 0.46 3.05 2.44 5.79 4.42 4.88 3.50 5.18 3.50 8.38 0.76 3.20 -2.90 7.31 -6.55 17.83 -15.70 2.90 -2.59 5.79 -4.72 6.40 -4.72 0.61 0 1.98 -0.91 3.05 -1.98 1.07 -1.07 10.36 -8.23 20.57 -16 16.91 -12.80 23.31 -16.30 23.31 -12.80 0 0.76 1.68 2.13 3.81 3.05 3.05 1.37 29.10 19.96 37.33 26.67 1.22 1.07 4.72 3.50 7.62 5.64 2.90 1.98 5.64 4.11 6.10 4.57 0.46 0.46 3.20 2.59 6.10 4.57 2.90 1.98 5.64 4.11 6.10 4.57 0.46 0.46 6.86 5.49 14.17 10.97 13.56 10.36 13.56 10.36 19.05 6.10 3.20 -2.29 6.70 -5.33 8.08 -6.70 1.37 -1.52 3.35 -2.74 4.27 -2.74 1.52 0 10.21 5.33 12.34 7.62 0.46 0.46 7.92 5.94 16.76 12.19 8.84 6.25 16.30 11.73 16.76 12.19 0.46 0.46 5.18 3.96 10.67 7.77 5.49 3.66 10.82 7.62 11.89 8.69 1.07 0.91 2.44 1.83 3.05 1.83 0.61 0 3.50 2.13 6.40 4.72 2.90 2.59 8.23 6.40 11.89 8.53 3.50 2.13 6.40 4.27 6.40 4.88 0 0.76 -101.49 1.22 -225.52 1.07 -156.34 0 -225.37 -0.46 -225.07 -1.68z m441.45 -3.35 c-2.59 -1.83 -3.81 -1.98 -4.27 -0.76 -0.46 1.37 -50.13 1.68 -213.33 1.52 l-212.88 -0.46 211.81 -0.76 c174.02 -0.61 211.81 -1.07 212.27 -2.74 0.15 -1.22 -0.30 -1.68 -1.22 -1.07 -0.91 0.46 -2.59 -0.15 -3.96 -1.37 -1.22 -1.37 -1.83 -2.44 -1.07 -2.44 0.61 -0.15 -0.30 -1.37 -2.29 -3.05 -1.98 -1.68 -4.57 -2.44 -5.94 -1.98 -1.83 0.76 -2.29 0.30 -1.52 -1.52 0.61 -1.83 0.30 -2.13 -1.52 -1.52 -1.83 0.76 -2.13 0.46 -1.22 -1.07 0.76 -1.22 0.61 -1.68 -0.30 -1.07 -1.68 1.07 -9.90 -3.96 -9.75 -5.94 0 -0.76 -0.91 -1.22 -2.13 -0.91 -1.07 0.15 -2.59 -0.46 -3.20 -1.37 -0.76 -1.22 -0.46 -1.37 0.91 -0.61 1.22 0.76 1.68 0.61 0.91 -0.46 -0.61 -0.91 -2.13 -1.22 -3.50 -0.76 -1.83 0.76 -2.29 0.30 -1.52 -1.52 0.61 -1.68 0.30 -2.13 -1.07 -1.68 -1.22 0.46 -2.59 0 -3.35 -1.07 -0.76 -1.22 -0.46 -1.52 0.91 -0.61 1.22 0.76 1.68 0.61 0.91 -0.46 -0.61 -0.91 -1.98 -1.37 -3.05 -0.91 -1.22 0.46 -2.59 0 -3.35 -1.07 -0.76 -1.22 -0.46 -1.52 0.91 -0.61 1.22 0.76 1.68 0.61 0.91 -0.46 -0.61 -0.91 -1.98 -1.37 -3.20 -0.76 -1.22 0.46 -2.29 0.15 -2.29 -0.76 0 -0.76 -1.98 -2.29 -4.57 -3.35 -2.44 -1.07 -4.57 -2.59 -4.57 -3.35 0 -0.91 1.22 -0.61 2.74 0.46 2.29 1.98 2.44 1.83 0.46 -0.46 -1.07 -1.52 -2.74 -2.29 -3.66 -1.68 -0.91 0.46 -3.20 -1.07 -5.33 -3.50 -1.98 -2.44 -3.20 -3.50 -2.59 -2.44 0.46 1.07 -1.68 0.15 -4.88 -1.98 -5.94 -4.11 -8.99 -6.70 -5.03 -4.57 1.98 1.22 1.98 0.91 0.15 -1.22 -2.13 -2.74 -5.49 -1.98 -3.81 0.76 0.76 1.22 0.15 1.37 -1.52 0.76 -1.37 -0.61 -2.29 -0.46 -1.83 0.30 1.37 1.98 -4.72 6.70 -7.01 5.33 -1.07 -0.61 -1.52 -0.61 -0.91 0.15 1.37 1.52 -3.20 5.18 -6.55 5.33 -2.59 0 -18.44 -11.28 -17.37 -12.50 0.46 -0.46 -0.76 -1.98 -2.59 -3.66 -3.35 -2.90 -3.35 -2.90 -1.22 0 2.29 2.90 2.13 2.90 -1.83 0.30 -3.96 -2.59 -6.25 -5.33 -2.44 -3.05 1.07 0.61 1.22 0.46 0.61 -0.61 -0.61 -0.91 -2.13 -1.22 -3.50 -0.76 -1.98 0.76 -2.29 0.30 -1.52 -1.68 0.76 -1.68 0.46 -2.29 -0.76 -1.52 -0.91 0.61 -3.35 -0.76 -5.49 -3.35 -1.98 -2.44 -3.20 -3.50 -2.74 -2.59 0.76 1.37 0.30 1.68 -1.37 1.07 -1.37 -0.61 -2.13 -1.98 -1.68 -3.05 0.46 -1.22 0 -1.68 -1.22 -1.22 -1.22 0.46 -2.59 0 -3.35 -1.07 -0.76 -1.22 -0.46 -1.52 0.91 -0.61 1.22 0.76 1.68 0.61 0.91 -0.46 -0.61 -0.91 -1.98 -1.37 -3.05 -0.91 -1.22 0.46 -2.59 0 -3.35 -1.07 -0.76 -1.22 -0.46 -1.52 0.91 -0.61 1.22 0.76 1.68 0.61 0.91 -0.46 -0.61 -0.91 -2.13 -1.22 -3.50 -0.76 -1.83 0.76 -2.29 0.30 -1.52 -1.52 0.61 -1.68 0.30 -2.13 -1.07 -1.68 -1.22 0.46 -2.59 0 -3.35 -1.07 -0.76 -1.22 -0.46 -1.52 1.07 -0.61 1.22 0.76 1.68 0.61 0.91 -0.15 -0.76 -0.76 -1.98 -1.52 -2.74 -1.52 -0.76 -0.15 -2.13 -0.30 -3.05 -0.46 -0.76 0 -1.07 -0.76 -0.61 -1.68 0.46 -0.91 -0.15 -1.07 -1.37 -0.61 -1.37 0.46 -2.44 0.15 -2.44 -0.76 0 -0.91 -0.91 -1.68 -1.98 -1.68 -1.22 0 -3.35 -1.52 -5.03 -3.35 -2.90 -3.50 -2.90 -3.50 0.30 -0.76 1.68 1.37 3.81 2.59 4.57 2.59 0.61 0 -0.46 -1.22 -2.44 -2.59 -2.13 -1.52 -4.42 -2.59 -5.18 -2.29 -0.76 0.30 -1.83 -0.15 -2.29 -0.91 -0.46 -0.76 -2.90 -2.59 -5.49 -3.96 -2.44 -1.52 -3.20 -2.29 -1.68 -1.68 2.44 0.61 2.59 0.46 1.07 -1.37 -1.07 -1.22 -3.05 -1.83 -4.27 -1.37 -1.37 0.61 -2.13 0.30 -1.52 -0.46 0.46 -0.91 -2.13 -1.52 -6.55 -1.52 -4.11 0 -7.16 0.30 -6.86 0.61 1.07 1.22 -3.81 5.03 -5.18 4.11 -0.76 -0.46 -1.98 0 -2.59 0.91 -0.76 1.22 -0.30 1.52 1.07 0.76 1.22 -0.61 0.76 -0.15 -0.76 1.22 -1.52 1.22 -3.50 1.98 -4.42 1.37 -0.91 -0.46 -1.22 -0.30 -0.76 0.46 0.46 0.76 -1.37 3.05 -3.96 5.18 -3.66 2.90 -4.27 3.05 -2.59 0.76 1.22 -1.68 -0.30 -0.46 -3.35 2.90 -3.35 3.66 -6.10 5.33 -7.31 4.57 -1.07 -0.61 -1.52 -0.46 -0.91 0.46 0.61 0.91 -0.15 2.59 -1.52 3.66 -2.13 1.83 -2.44 1.83 -1.37 -0.15 0.76 -1.22 -0.46 -0.30 -2.44 2.13 -2.13 2.59 -4.57 3.96 -5.49 3.35 -1.22 -0.76 -1.52 -0.15 -0.76 1.52 0.76 2.13 0.46 2.44 -1.68 1.68 -1.37 -0.61 -2.29 -0.46 -1.68 0.30 1.07 1.98 -16.76 15.39 -20.57 15.39 -1.52 0 -3.35 -0.76 -3.96 -1.83 -0.76 -1.07 -0.30 -1.22 1.07 -0.46 1.22 0.76 1.68 0.61 0.91 -0.15 -0.76 -0.76 -1.83 -1.52 -2.29 -1.52 -5.64 -1.22 -7.92 -2.74 -7.16 -5.03 0.46 -1.22 0.46 -1.83 -0.15 -1.22 -0.61 0.61 -1.98 -0.15 -3.20 -1.68 -1.52 -1.68 -1.83 -1.83 -1.22 -0.30 0.61 1.22 -0.46 0.61 -2.29 -1.52 -1.83 -2.13 -2.90 -2.90 -2.29 -1.83 1.83 3.50 -0.91 1.83 -6.86 -4.42 -3.96 -4.27 -6.86 -5.94 -8.38 -5.33 -1.37 0.46 -1.98 1.52 -1.52 2.44 0.61 0.91 -0.15 1.07 -1.68 0.46 -1.98 -0.76 -2.44 -0.30 -1.83 1.22 0.61 1.37 -0.46 3.20 -2.29 4.42 -2.90 1.68 -3.20 1.68 -1.83 -0.15 0.91 -1.22 -0.15 -0.46 -2.29 1.68 -2.13 2.13 -3.20 2.90 -2.44 1.52 0.76 -1.22 -1.07 0.46 -3.96 3.66 -3.50 4.11 -5.94 5.64 -7.31 4.72 -1.22 -0.76 -1.68 -0.61 -1.07 0.30 0.91 1.37 -2.13 3.66 -5.33 4.11 -0.46 0.15 -1.52 0.76 -2.29 1.52 -0.76 0.76 -0.30 0.91 1.07 0.30 1.22 -0.61 0.91 -0.15 -0.61 1.22 -1.52 1.22 -3.50 1.98 -4.42 1.37 -0.91 -0.61 -1.07 -0.15 -0.30 1.07 0.91 1.52 0.61 1.83 -1.22 1.07 -1.83 -0.61 -2.13 -0.30 -1.52 1.52 0.76 1.83 0.30 2.29 -1.52 1.52 -1.37 -0.46 -2.90 -0.15 -3.50 0.76 -0.76 1.07 -0.30 1.22 0.91 0.46 1.37 -0.91 1.68 -0.61 0.91 0.61 -0.76 1.07 -2.13 1.52 -3.35 1.07 -1.07 -0.46 -2.44 0 -3.05 0.91 -0.76 1.07 -0.30 1.22 0.91 0.46 1.37 -0.91 1.68 -0.61 0.91 0.61 -0.76 1.07 -2.13 1.52 -3.20 1.07 -1.22 -0.46 -2.90 0.46 -4.11 1.83 -1.83 2.29 -1.68 2.44 0.76 0.46 1.37 -1.07 2.59 -1.37 2.59 -0.46 0 1.98 -4.42 3.66 -6.55 2.29 -1.07 -0.46 -1.37 -0.46 -0.76 0.30 1.37 1.52 -7.47 8.84 -9.30 7.77 -0.76 -0.61 -1.98 -0.15 -2.59 0.76 -0.76 1.22 -0.46 1.37 0.91 0.61 1.37 -0.91 1.68 -0.61 0.91 0.61 -0.76 1.07 -2.13 1.52 -3.35 1.07 -1.22 -0.46 -1.68 0 -1.07 1.52 0.76 1.98 -1.98 3.05 -6.10 2.29 -0.76 -0.15 -0.76 0.61 -0.15 1.52 0.76 1.37 0.30 1.52 -1.52 0.91 -1.37 -0.61 -2.29 -0.46 -1.83 0.30 0.46 0.76 -0.30 2.29 -1.68 3.35 -2.13 1.83 -2.44 1.83 -1.37 -0.15 0.76 -1.22 -0.46 -0.30 -2.59 1.98 -2.13 2.44 -4.57 3.96 -5.33 3.50 -0.76 -0.46 -2.44 0.30 -3.50 1.83 -1.98 2.44 -1.98 2.44 0.91 0.30 2.90 -2.13 2.90 -2.13 0.91 0.46 -1.22 1.52 -3.05 2.44 -4.27 1.98 -1.22 -0.46 -1.83 -0.30 -1.52 0.30 0.46 0.61 -1.07 2.44 -3.20 3.96 -2.44 1.83 -3.50 2.13 -2.74 0.76 0.61 -1.22 0.15 -0.91 -1.07 0.61 -1.37 1.52 -2.90 2.90 -3.66 3.05 -0.61 0.15 -1.07 0.91 -0.76 1.68 0.30 0.76 -0.61 0.91 -1.98 0.30 -1.37 -0.46 -1.98 -0.30 -1.52 0.61 0.46 0.91 0 1.52 -1.07 1.52 -1.07 0 -3.50 1.22 -5.33 2.74 -3.35 2.44 7.92 2.59 217.75 2.13 207.85 -0.30 221.10 -0.46 217.60 -2.90z"/>
  <path d="M260.88 378.06 c-1.22 -0.61 -1.98 -1.83 -1.98 -2.59 0.15 -0.76 -0.61 -1.37 -1.52 -1.37 -0.76 0 -2.90 -1.68 -4.57 -3.81 -1.83 -2.13 -2.59 -2.90 -1.98 -1.68 1.22 2.29 -0.91 1.37 -5.49 -2.44 -1.22 -1.07 -3.66 -3.05 -5.33 -4.42 -1.68 -1.22 -2.13 -1.83 -0.91 -1.22 1.37 0.76 1.83 0.46 1.07 -0.76 -0.61 -0.91 -1.83 -1.37 -2.59 -0.91 -0.76 0.61 -2.29 0 -3.50 -1.22 -1.22 -1.07 -5.64 -4.27 -9.90 -7.01 -8.08 -5.18 -11.12 -8.53 -3.50 -4.11 4.11 2.59 4.11 2.59 0.61 -0.46 -1.98 -1.68 -4.27 -2.74 -5.33 -2.29 -1.07 0.30 -3.05 -1.22 -4.42 -3.66 -2.59 -4.27 -2.44 -4.42 2.29 -8.84 2.59 -2.44 4.11 -3.35 3.50 -2.13 -0.76 1.22 0.46 0.30 2.44 -2.13 2.44 -2.90 4.42 -3.96 5.79 -3.20 1.22 0.76 1.68 0.61 1.07 -0.30 -0.61 -0.91 0.76 -2.90 2.90 -4.27 2.29 -1.37 3.50 -1.68 2.90 -0.61 -0.76 0.91 1.68 -1.07 5.18 -4.57 3.66 -3.66 7.47 -6.10 8.53 -5.64 1.52 0.46 1.83 0 1.22 -1.68 -0.76 -1.83 -0.30 -2.29 1.52 -1.52 1.37 0.46 2.90 0.15 3.50 -0.76 0.76 -1.07 0.30 -1.22 -0.91 -0.46 -1.37 0.76 -1.68 0.61 -0.91 -0.46 0.61 -1.07 1.83 -1.83 2.74 -1.83 1.07 0 3.35 -1.52 5.18 -3.20 4.42 -4.11 8.23 -2.74 8.38 2.74 0.15 4.27 0.15 4.27 1.37 0.46 0.91 -2.44 1.07 -0.91 0.46 4.57 -0.91 9.45 -1.98 11.73 -2.13 5.18 -0.15 -4.42 -0.15 -4.42 -1.37 -0.61 -0.61 2.13 -0.91 8.69 -0.61 14.48 0.30 6.70 0.15 9.30 -0.61 6.86 -1.22 -3.66 -1.22 -3.66 -2.29 1.37 -1.37 6.86 -1.37 10.82 0.30 10.82 0.61 0 1.07 -1.83 0.76 -4.11 -0.30 -2.59 -0.15 -3.05 0.30 -1.22 0.61 1.68 1.83 4.11 3.05 5.49 1.22 1.37 1.68 2.90 1.07 3.50 -0.61 0.61 -0.15 0.61 1.07 0.15 1.37 -0.46 4.57 1.22 7.62 3.96 2.90 2.44 4.42 4.11 3.20 3.50 -1.37 -0.76 -1.83 -0.46 -1.07 0.76 0.61 0.91 1.83 1.37 2.59 0.76 1.68 -1.07 5.79 3.66 5.94 6.55 0 1.07 -1.83 3.81 -3.96 6.10 -2.13 2.29 -3.35 3.35 -2.74 2.13 0.61 -1.37 0.30 -1.83 -1.07 -1.37 -1.22 0.46 -1.98 1.68 -1.68 2.74 0.30 1.07 -0.46 1.52 -1.83 1.07 -1.37 -0.61 -2.74 -0.15 -3.35 0.76 -0.61 1.07 -0.46 1.22 0.61 0.61 1.07 -0.61 1.83 -0.46 1.83 0.30 0 2.74 -9.90 4.27 -13.41 1.98z m18.29 -10.82 c4.57 -3.96 4.57 -3.96 -4.27 -10.67 -5.03 -3.81 -9.90 -7.77 -10.97 -8.69 -1.07 -1.07 -2.74 -1.98 -3.66 -1.98 -1.52 0 -1.37 -2.59 1.07 -23.62 0.61 -4.11 1.68 -10.06 2.44 -12.95 1.68 -6.55 1.83 -10.67 0.30 -10.67 -0.76 0 -3.66 2.13 -6.55 4.57 -2.90 2.44 -5.94 5.03 -6.86 5.79 -2.29 1.68 -31.54 22.40 -35.35 24.99 -3.96 2.59 -4.11 2.44 11.73 13.26 5.49 3.81 10.21 7.31 10.67 7.77 0.46 0.46 3.20 2.59 6.10 4.57 2.90 1.98 6.10 4.42 7.01 5.33 0.91 0.76 3.35 2.59 5.18 3.81 1.83 1.22 4.72 3.50 6.40 4.88 3.05 2.59 3.35 2.59 7.62 0 2.44 -1.37 6.55 -4.27 9.14 -6.40z"/>
  <path d="M117.03 376.84 c4.27 -0.30 11.58 -0.30 16 0 4.27 0.30 0.76 0.46 -8.08 0.46 -8.84 0 -12.34 -0.15 -7.92 -0.46z"/>
  <path d="M142.48 375.01 c0.30 -0.61 -7.47 -1.07 -17.22 -1.07 -15.70 0.15 -17.83 -0.15 -18.29 -2.59 -0.76 -3.96 15.24 -18.74 18.29 -16.91 1.07 0.61 1.22 0.46 0.61 -0.61 -0.91 -1.68 7.01 -8.69 9.90 -8.69 0.76 0 1.22 -0.46 1.07 -0.91 -0.76 -1.52 4.88 -6.10 6.40 -5.18 0.91 0.61 1.07 -0.15 0.46 -1.68 -0.76 -1.98 -0.46 -2.44 1.52 -1.68 1.37 0.46 2.90 0.15 3.50 -0.76 0.76 -1.07 0.30 -1.22 -1.07 -0.46 -1.22 0.76 -0.76 -0.15 0.76 -1.98 4.72 -5.33 13.10 -3.66 13.10 2.74 0 1.98 -0.30 1.98 -1.68 0 -1.22 -1.68 -1.37 -1.22 -0.61 1.98 0.46 2.59 0.30 3.96 -0.61 3.50 -0.76 -0.46 -1.07 0.46 -0.61 2.13 0.46 1.68 0 3.05 -0.91 3.05 -0.91 0 -1.68 0.76 -1.68 1.68 0 0.76 0.76 1.07 1.83 0.46 1.07 -0.61 1.22 -0.46 0.61 0.76 -0.61 0.91 -1.52 1.37 -2.13 1.07 -0.61 -0.30 -1.07 1.52 -1.07 4.11 0 3.20 -0.61 4.72 -1.98 4.42 -1.37 -0.30 -1.68 0.61 -1.07 2.74 0.61 1.68 0.30 3.05 -0.61 3.05 -0.91 0 -1.68 0.76 -1.68 1.68 0 0.76 0.91 1.07 1.98 0.46 0.91 -0.61 0.61 0.30 -0.76 1.98 -1.52 1.68 -2.74 3.66 -2.74 4.57 0 0.91 -1.37 1.98 -3.05 2.44 -1.68 0.46 -2.74 0.30 -2.29 -0.30z m2.59 -4.42 c1.37 -1.52 11.89 -33.37 11.89 -36.27 0 -2.90 -3.50 -1.07 -9.90 5.03 -2.59 2.29 -7.62 6.70 -11.43 9.60 -3.81 2.90 -8.69 7.16 -11.12 9.45 -2.29 2.13 -6.55 5.64 -9.45 7.62 -2.90 1.83 -5.33 4.27 -5.33 5.03 0 1.68 33.52 1.22 35.35 -0.46z"/>
  <path d="M363.43 321.22 c-1.68 -0.91 -4.27 -3.05 -5.64 -4.72 -2.59 -2.90 -2.44 -3.35 3.81 -10.06 3.66 -3.81 8.69 -10.21 11.43 -14.17 6.40 -9.30 17.07 -30.17 17.07 -33.52 0 -1.37 0.76 -3.05 1.52 -3.50 0.91 -0.46 1.52 -2.59 1.52 -4.72 0 -2.13 0.61 -5.03 1.37 -6.40 1.52 -2.90 2.59 -10.51 4.11 -28.19 2.29 -25.14 -8.69 -63.54 -24.38 -85.49 -11.12 -15.54 -29.56 -33.83 -38.40 -37.79 -1.98 -0.91 -3.66 -2.13 -3.66 -2.74 0 -2.74 -29.56 -14.63 -45.71 -18.44 -12.19 -2.90 -51.81 -2.59 -62.48 0.61 -17.68 5.03 -41.30 15.85 -48.15 22.10 -1.52 1.37 -5.94 5.03 -9.75 7.92 -18.44 14.17 -36.27 40.69 -44.50 66.29 -5.94 18.74 -7.77 52.27 -3.66 70.86 4.11 19.05 14.48 42.51 23.01 52.42 3.81 4.42 3.81 4.42 -2.59 10.21 -6.55 5.79 -6.55 5.79 -10.67 0.91 -4.72 -5.64 -18.29 -32 -21.49 -42.21 -5.33 -16.15 -9.30 -44.65 -7.92 -56.84 2.29 -22.55 4.42 -32.46 9.75 -47.54 3.05 -8.53 12.04 -25.45 18.29 -34.29 6.70 -9.75 34.13 -38.10 36.72 -38.10 0.76 0 2.29 -1.07 3.66 -2.29 3.50 -3.50 29.56 -16.76 39.77 -20.11 17.98 -6.10 26.82 -7.31 51.81 -7.16 30.48 0 41.90 2.59 70.10 15.85 10.97 5.03 30.02 18.59 39.16 27.73 12.04 12.04 26.67 32.91 33.07 47.09 16 35.96 18.29 79.24 5.94 116.42 -2.44 7.47 -13.87 31.24 -14.93 31.24 -0.61 0 -1.83 1.68 -2.74 3.66 -1.83 4.11 -4.88 7.77 -15.54 19.35 -5.94 6.40 -7.31 7.16 -9.90 5.64z m4.88 -4.27 c0.46 -1.68 1.37 -2.59 2.13 -2.13 0.76 0.46 1.37 -0.15 1.37 -1.22 0 -1.22 1.83 -4.11 4.27 -6.70 2.29 -2.59 3.05 -3.20 1.83 -1.52 -2.29 3.20 -2.29 3.20 1.07 0.46 1.98 -1.68 2.90 -3.81 2.44 -5.33 -0.61 -1.37 -0.30 -1.98 0.76 -1.22 0.91 0.61 1.83 -0.46 2.13 -2.44 0.30 -1.98 1.37 -3.35 2.29 -3.20 1.07 0.30 1.52 -0.46 1.07 -1.68 -0.46 -1.22 0 -2.59 1.07 -3.35 1.22 -0.76 1.52 -0.46 0.76 1.07 -0.61 1.22 0.15 0.46 1.83 -1.52 1.68 -1.98 2.59 -4.88 2.29 -6.25 -0.46 -1.52 0 -3.20 0.91 -3.66 1.07 -0.76 1.37 0 0.76 1.68 -0.61 2.13 -0.61 2.29 0.61 0.61 0.76 -1.07 1.07 -3.20 0.76 -4.72 -0.46 -1.52 0 -3.20 0.91 -3.66 1.07 -0.76 1.37 0 0.76 1.68 -0.61 2.13 -0.61 2.29 0.61 0.61 0.76 -1.07 1.07 -3.35 0.61 -5.18 -0.46 -1.83 -0.15 -2.74 0.76 -2.13 2.13 1.37 3.50 -2.29 2.44 -6.86 -0.46 -2.44 -0.30 -2.90 0.76 -1.52 1.07 1.68 1.68 1.07 2.44 -1.98 0.61 -2.29 0.76 -4.57 0.15 -5.03 -0.46 -0.46 -0.76 0.30 -0.76 1.68 0 1.37 -0.76 2.59 -1.52 2.59 -1.07 0 -1.07 -0.91 0 -2.90 0.76 -1.68 1.52 -4.57 1.68 -6.55 0.15 -3.50 0.15 -3.50 1.22 0.30 1.07 3.81 1.07 3.81 2.13 0 0.61 -2.13 1.07 -4.88 1.07 -6.10 0 -1.98 -0.30 -1.98 -1.68 0 -1.37 1.83 -1.52 1.83 -0.76 -0.46 0.46 -1.52 1.07 -6.10 1.07 -9.90 0.30 -7.16 0.30 -7.16 1.22 -1.07 0.91 6.10 0.91 6.10 2.13 -1.37 1.37 -9.60 1.22 -28.95 -0.30 -36.72 -0.91 -3.81 -1.07 0.46 -0.46 11.43 0.30 9.60 0.30 17.22 -0.15 16.76 -0.46 -0.46 -1.22 -11.43 -1.68 -24.23 -0.46 -12.95 -1.22 -23.77 -1.83 -24.38 -0.61 -0.46 -0.61 1.68 -0.15 5.03 1.22 7.31 -0.46 6.10 -2.13 -1.68 -0.61 -3.20 -1.83 -8.38 -2.59 -11.43 -1.07 -3.96 -1.07 -5.49 0 -4.88 0.91 0.61 1.22 0.15 0.91 -1.07 -0.46 -1.22 -1.68 -1.98 -2.74 -1.68 -1.22 0.30 -1.52 -0.76 -0.91 -3.35 0.46 -2.13 0.15 -4.27 -0.91 -4.88 -1.07 -0.76 -1.22 -0.46 -0.46 0.91 0.91 1.37 0.61 1.68 -0.61 0.76 -1.07 -0.61 -1.68 -2.44 -1.22 -3.96 0.46 -1.52 0 -3.35 -0.76 -3.96 -1.07 -0.61 -1.22 -0.15 -0.46 1.07 0.91 1.37 0.61 1.68 -0.61 0.76 -1.07 -0.61 -1.68 -2.44 -1.22 -3.96 0.46 -1.52 0 -3.35 -0.76 -3.96 -1.07 -0.61 -1.22 -0.15 -0.46 1.07 0.91 1.37 0.61 1.68 -0.61 0.91 -1.07 -0.76 -1.52 -2.13 -1.07 -3.35 0.46 -1.22 -0.15 -2.13 -1.52 -2.13 -1.37 0 -2.13 -0.91 -1.68 -1.98 0.46 -1.22 0.15 -3.05 -0.76 -4.27 -1.22 -1.68 -1.37 -1.52 -0.61 0.61 0.46 1.68 0.30 2.44 -0.61 1.83 -0.91 -0.46 -1.52 -1.98 -1.52 -3.20 0 -1.22 -0.76 -2.13 -1.68 -2.13 -0.76 0 -1.07 -0.76 -0.46 -1.68 0.61 -0.91 -1.68 -3.96 -4.88 -7.01 -3.35 -2.90 -5.79 -5.64 -5.49 -6.25 0.15 -0.61 -0.15 -1.07 -0.76 -1.07 -2.90 -0.15 -4.88 -2.59 -3.96 -4.88 0.76 -1.98 0.30 -2.29 -1.68 -1.52 -1.98 0.76 -2.59 0.46 -1.98 -1.07 0.61 -1.68 0.15 -1.98 -1.52 -1.37 -1.98 0.76 -2.29 0.30 -1.52 -1.68 0.91 -2.13 0.46 -2.59 -1.22 -1.83 -1.37 0.46 -2.13 0.30 -1.68 -0.46 0.46 -0.76 -0.30 -2.29 -1.68 -3.35 -2.13 -1.83 -2.29 -1.83 -1.37 0 0.91 1.22 0 1.07 -2.74 -0.61 -3.81 -2.59 -5.79 -5.18 -2.13 -2.90 1.07 0.61 1.22 0.46 0.61 -0.61 -0.61 -0.91 -1.98 -1.37 -3.05 -0.91 -1.22 0.46 -2.59 0 -3.35 -1.07 -0.76 -1.22 -0.46 -1.52 0.91 -0.61 1.22 0.76 1.68 0.61 0.91 -0.46 -0.61 -0.91 -1.83 -1.37 -2.90 -1.07 -1.07 0.46 -3.50 -0.76 -5.64 -2.44 -2.13 -1.68 -2.90 -2.74 -1.83 -2.13 0.91 0.46 1.83 0.61 1.83 0.15 0 -1.22 -15.54 -8.69 -16.30 -7.92 -0.30 0.30 2.44 1.98 5.94 3.66 3.66 1.83 5.94 3.20 5.03 3.20 -0.76 0 -5.64 -1.98 -10.67 -4.57 -5.03 -2.44 -7.47 -4.11 -5.33 -3.66 2.13 0.46 0.76 -0.61 -2.74 -2.29 -3.66 -1.68 -7.31 -2.59 -8.08 -2.13 -1.98 1.22 -7.62 -0.91 -6.70 -2.44 0.46 -0.76 -1.37 -1.07 -4.11 -0.61 -2.74 0.46 -8.08 0 -11.89 -0.76 -6.86 -1.52 -6.86 -1.52 1.52 -0.76 4.57 0.46 7.77 0.30 7.31 -0.30 -1.52 -1.37 -63.54 -1.37 -64.91 0.15 -0.61 0.61 1.68 0.76 5.03 0.15 5.18 -0.76 5.49 -0.61 2.29 0.76 -2.13 0.91 -6.86 1.37 -10.51 0.91 -4.57 -0.46 -5.94 -0.30 -4.57 0.76 1.52 1.07 0.91 1.22 -1.98 0.76 -2.59 -0.30 -3.81 0 -3.20 0.91 0.61 0.91 -0.46 1.22 -2.74 0.61 -1.98 -0.46 -4.72 -0.30 -5.94 0.61 -1.68 1.22 -1.37 1.37 1.52 0.61 2.13 -0.46 0 0.91 -4.42 3.05 -4.57 2.13 -9.30 3.50 -10.51 3.05 -1.22 -0.46 -1.52 0 -0.91 1.07 0.76 1.22 0.30 1.37 -1.52 0.76 -1.37 -0.61 -2.29 -0.46 -1.83 0.15 0.46 0.61 -0.76 2.13 -2.59 3.35 -3.20 1.83 -3.20 1.83 -1.07 -0.76 1.52 -1.83 -0.15 -1.37 -5.79 1.68 -4.27 2.44 -7.92 4.88 -7.92 5.49 0 0.61 2.44 -0.30 5.33 -1.98 8.23 -4.88 6.25 -2.44 -2.44 3.05 -4.27 2.59 -8.23 4.42 -8.99 3.96 -0.76 -0.46 -1.83 0 -2.44 0.91 -0.76 1.22 -0.46 1.37 1.07 0.61 1.22 -0.61 0.61 0.30 -1.37 2.13 -1.83 1.83 -4.11 2.90 -4.88 2.44 -0.76 -0.46 -1.07 0 -0.61 1.22 0.46 1.22 0 2.74 -1.07 3.50 -1.22 0.61 -1.52 0.46 -0.76 -0.61 0.61 -1.07 0.46 -1.83 -0.15 -1.83 -1.68 0 -10.82 9.14 -11.43 11.43 -0.30 0.91 -0.91 1.37 -1.52 1.22 -0.61 -0.30 -0.76 0.46 -0.30 1.68 0.46 1.22 0 2.59 -1.07 3.35 -1.22 0.76 -1.52 0.46 -0.76 -1.07 0.61 -1.22 0 -0.76 -1.22 0.76 -1.37 1.68 -2.44 3.66 -2.44 4.42 0 0.61 -0.76 0.76 -1.83 0.15 -1.07 -0.61 -1.22 -0.46 -0.61 0.76 0.61 0.91 -0.30 3.50 -1.98 5.64 -1.83 2.29 -3.20 3.50 -3.20 2.74 0 -0.76 -1.37 0.30 -2.90 2.29 -1.52 2.13 -2.59 4.57 -2.13 5.64 0.30 0.91 -0.46 2.13 -1.68 2.59 -1.37 0.61 -1.83 2.13 -1.37 3.81 0.30 1.68 -0.15 3.50 -1.22 4.11 -1.22 0.91 -1.52 0.61 -0.61 -0.76 0.76 -1.37 0.61 -1.68 -0.61 -0.91 -0.91 0.61 -1.37 1.83 -0.91 2.59 1.22 1.98 -0.61 7.62 -2.29 6.70 -0.61 -0.46 -0.91 0.76 -0.30 2.59 0.46 2.13 0.15 2.90 -0.91 2.13 -1.22 -0.76 -1.52 -0.15 -0.76 1.52 0.61 1.68 0.46 2.29 -0.61 1.68 -1.07 -0.61 -1.37 0 -1.07 1.52 0.46 1.52 -0.61 7.92 -2.44 14.17 -1.83 6.70 -2.74 8.99 -2.29 5.33 0.46 -3.81 0.30 -5.03 -0.46 -3.05 -0.76 1.68 -0.61 15.39 0 30.48 0.76 15.09 1.52 31.39 1.68 36.11 0.30 4.72 0.91 9.30 1.68 9.90 0.76 0.61 0.76 -0.46 0.30 -2.59 -0.91 -3.35 -0.76 -3.50 0.76 -1.07 0.91 1.68 1.37 4.42 1.07 6.40 -0.46 1.98 -0.15 4.57 0.61 5.64 1.07 1.37 1.22 1.22 0.61 -0.76 -0.61 -1.68 -0.30 -2.44 0.76 -1.68 0.91 0.46 1.37 2.59 0.91 4.57 -0.30 2.13 0 3.20 0.91 2.59 0.91 -0.61 1.22 0 0.61 1.68 -0.76 1.68 -0.46 2.29 0.76 1.52 1.07 -0.76 1.37 0 0.91 2.13 -0.61 1.83 -0.15 3.81 0.61 4.42 1.07 0.61 1.22 0.15 0.46 -1.07 -0.76 -1.37 -0.61 -1.68 0.61 -0.91 0.91 0.61 1.37 2.44 0.91 3.96 -0.46 1.52 0 3.35 0.91 3.96 1.22 0.76 1.37 0.46 0.61 -0.91 -0.91 -1.37 -0.61 -1.68 0.61 -0.76 1.07 0.61 1.68 2.44 1.22 3.96 -0.46 1.52 0 3.35 0.76 3.96 1.07 0.61 1.22 0.15 0.46 -1.07 -0.91 -1.37 -0.61 -1.68 0.61 -0.91 1.07 0.76 1.52 2.13 1.07 3.35 -0.46 1.07 0 2.44 0.91 3.05 1.07 0.61 1.22 0.46 0.61 -0.61 -0.61 -1.07 -0.76 -1.83 -0.15 -1.83 0.76 0 4.11 7.01 4.42 9.45 0.15 0.46 0.76 1.52 1.52 2.29 0.76 0.61 1.07 0.61 0.61 -0.30 -0.91 -1.52 1.37 -4.42 4.11 -5.18 1.83 -0.46 1.22 -4.57 -1.22 -7.77 -1.68 -1.98 -1.52 -1.98 1.07 0 2.90 2.29 2.90 2.13 0.30 -1.83 -2.59 -3.96 -5.33 -6.25 -3.05 -2.44 0.76 1.07 0.46 1.22 -0.76 0.61 -1.07 -0.76 -1.52 -2.13 -1.07 -3.20 0.30 -1.07 -0.30 -2.44 -1.68 -2.90 -1.22 -0.61 -1.98 -1.98 -1.37 -3.20 0.46 -1.22 0 -2.59 -0.91 -3.20 -1.07 -0.76 -1.22 -0.30 -0.46 0.91 0.91 1.37 0.61 1.68 -0.61 0.76 -1.07 -0.61 -1.68 -2.29 -1.22 -3.81 0.30 -1.52 0 -3.66 -0.76 -4.72 -1.22 -1.68 -1.37 -1.52 -0.61 0.61 1.52 4.88 -0.61 2.59 -2.90 -3.05 -1.37 -3.20 -2.13 -7.16 -1.68 -8.84 0.46 -1.68 0 -4.11 -0.76 -5.33 -1.37 -1.83 -1.52 -1.52 -0.91 1.22 0.46 1.83 0.15 3.05 -0.61 2.44 -0.76 -0.46 -1.37 -2.29 -1.37 -4.27 0 -1.83 -0.46 -3.96 -1.07 -4.57 -0.76 -0.61 -1.22 -15.54 -1.22 -32.91 0 -17.52 0.46 -30.78 0.91 -29.41 0.61 1.83 1.22 1.07 1.83 -2.59 0.61 -2.74 0.76 -5.33 0.30 -5.79 -0.46 -0.46 -0.76 0.30 -0.76 1.68 0 1.52 -0.61 2.59 -1.37 2.59 -0.76 0 -0.46 -2.59 0.61 -5.64 2.90 -8.69 3.96 -10.82 3.05 -6.10 -1.22 6.55 0.15 4.88 2.90 -3.35 2.90 -9.14 3.05 -11.73 0.15 -5.49 -1.22 2.59 -2.13 3.66 -2.29 2.74 0 -2.90 6.55 -15.70 7.77 -14.93 0.61 0.46 1.52 -0.30 1.98 -1.68 0.61 -1.52 0.30 -1.98 -1.07 -1.37 -0.91 0.61 -0.15 -0.46 1.98 -2.29 2.13 -1.83 2.90 -2.90 1.83 -2.29 -1.68 0.91 -1.83 0.46 -0.46 -2.13 1.07 -1.68 2.13 -3.20 2.59 -3.20 0.46 0 0.30 0.76 -0.30 1.83 -0.61 1.07 -0.46 1.22 0.61 0.61 0.91 -0.61 1.37 -1.98 0.76 -3.35 -0.91 -2.59 3.81 -8.53 5.79 -7.31 0.76 0.46 0.91 -0.15 0.61 -1.22 -0.46 -1.07 1.37 -4.42 3.96 -7.31 2.59 -2.90 3.81 -3.96 2.74 -2.29 -1.98 2.74 -1.98 2.90 0.61 0.91 1.52 -1.22 2.44 -3.05 1.98 -4.11 -0.46 -1.22 0 -1.68 1.52 -1.07 1.52 0.61 1.83 0 1.07 -1.98 -0.76 -1.98 -0.46 -2.44 1.52 -1.68 1.68 0.61 2.13 0.30 1.52 -1.37 -0.61 -1.52 -0.15 -2.13 1.37 -1.83 2.29 0.46 15.54 -9.30 14.32 -10.67 -1.37 -1.22 5.03 -5.18 6.55 -4.11 0.76 0.46 1.98 0 2.59 -0.91 0.76 -1.22 0.30 -1.52 -1.07 -0.76 -1.22 0.61 -0.46 -0.30 1.68 -1.98 2.13 -1.83 4.88 -2.90 6.25 -2.59 1.37 0.30 4.72 -0.76 7.62 -2.29 2.90 -1.52 4.57 -2.74 3.96 -2.90 -0.61 0 -3.20 1.07 -5.64 2.29 -2.59 1.37 -4.57 1.98 -4.57 1.68 0 -1.52 17.98 -9.75 26.21 -12.04 6.10 -1.83 15.09 -2.29 37.49 -2.13 16.15 0.15 27.89 -0.15 25.90 -0.76 -1.98 -0.46 -11.73 -1.07 -21.79 -1.37 -18.29 -0.46 -18.29 -0.46 -3.05 -1.07 14.32 -0.46 35.05 1.83 37.79 4.27 0.76 0.61 -0.61 0.91 -3.05 0.61 -4.11 -0.61 -4.11 -0.46 -0.46 0.76 2.13 0.61 5.64 0.91 7.92 0.61 2.13 -0.46 5.18 0 6.86 0.91 2.44 1.68 2.29 1.68 -1.07 0.91 -2.74 -0.76 -3.20 -0.61 -1.52 0.61 1.22 0.76 3.96 1.07 6.25 0.61 2.29 -0.46 4.57 0 5.03 0.91 0.76 1.07 0 1.37 -1.68 0.76 -2.59 -0.76 -2.59 -0.76 0 0.91 1.37 0.91 3.20 1.37 3.96 0.76 1.83 -1.07 9.45 2.29 8.53 3.81 -0.30 0.61 1.07 1.83 3.20 2.90 2.90 1.22 3.66 1.22 2.74 0 -1.22 -2.13 -0.30 -1.52 9.75 5.18 3.66 2.44 5.94 5.03 5.33 5.94 -0.61 1.22 0 1.37 1.68 0.76 1.37 -0.61 2.29 -0.46 1.83 0.30 -0.46 0.76 1.68 3.20 4.88 5.49 5.64 4.11 5.64 4.11 1.37 0.15 -2.29 -2.13 -3.66 -3.96 -3.05 -3.96 0.76 0 5.03 3.96 9.60 8.69 4.57 4.88 6.25 7.16 3.66 5.03 -2.44 -2.13 -1.83 -1.22 1.52 2.13 3.50 3.20 6.10 6.86 5.79 8.23 -0.30 1.37 0.30 1.98 1.68 1.37 1.22 -0.46 3.05 1.07 4.72 3.96 2.74 4.88 2.74 4.88 -0.61 1.07 -3.05 -3.66 -3.20 -3.66 -1.52 -0.30 0.91 1.98 2.74 3.96 3.96 4.42 1.22 0.46 2.90 2.13 3.81 3.81 1.22 2.29 1.22 2.90 -0.15 1.98 -0.91 -0.61 -0.30 1.98 1.52 5.49 3.66 7.16 5.64 9.90 4.11 5.49 -0.61 -1.83 -0.46 -2.44 0.61 -1.68 0.91 0.46 1.37 2.29 0.91 3.81 -0.46 1.68 -0.15 2.59 0.46 2.13 0.61 -0.46 1.98 1.37 2.90 3.81 0.91 2.74 0.91 4.27 0.15 3.81 -1.98 -1.22 -1.83 0.91 0 3.81 1.37 1.98 1.52 1.98 1.52 0 0.15 -1.22 0.91 -0.61 1.68 1.52 3.50 8.53 4.88 20.27 5.03 44.19 0.15 13.87 -0.15 22.70 -0.76 19.81 -0.46 -3.05 -1.07 -3.96 -1.22 -2.13 0 1.83 -0.46 5.64 -0.91 8.38 -0.61 4.11 -0.46 4.57 0.61 2.13 1.22 -2.29 1.37 -1.37 0.61 3.50 -0.91 7.16 -4.88 19.20 -5.03 15.54 0 -1.98 -0.15 -1.98 -1.52 0 -1.83 2.90 -1.98 5.03 -0.15 3.96 0.76 -0.61 1.07 0.46 0.61 2.13 -0.46 1.68 -1.37 3.50 -2.13 3.96 -0.76 0.46 -0.91 -0.46 -0.46 -1.98 0.76 -2.13 0.61 -2.29 -0.61 -0.61 -0.91 1.22 -1.22 3.05 -0.76 4.11 0.30 1.07 -0.15 3.20 -1.07 4.72 -1.52 2.44 -1.68 2.44 -0.91 0.15 0.46 -1.52 0.46 -2.74 0 -2.74 -1.07 0 -4.11 8.08 -3.81 10.21 0.15 1.07 -1.52 4.57 -3.66 8.08 -4.27 6.86 -6.86 8.53 -2.90 1.98 2.44 -4.27 2.44 -4.27 -0.61 -0.46 -1.68 1.98 -2.74 4.27 -2.29 5.03 0.46 0.61 -3.05 4.72 -7.77 8.99 -4.72 4.27 -8.08 8.23 -7.62 8.99 0.46 0.76 1.68 0.91 2.59 0.46 1.07 -0.61 1.37 -0.61 0.76 0.15 -1.37 1.37 1.37 5.33 3.66 5.33 0.91 0 1.83 -1.37 2.29 -3.05z m-226.59 -21.33 c0 -0.76 -0.61 -1.52 -1.52 -1.52 -0.76 0 -1.52 0.76 -1.52 1.52 0 0.91 0.76 1.52 1.52 1.52 0.91 0 1.52 -0.61 1.52 -1.52z m-19.66 -34.59 c-1.83 -3.05 -2.13 -2.13 -0.76 1.83 0.61 1.37 1.37 2.13 1.68 1.68 0.46 -0.30 0 -1.98 -0.91 -3.50z m275.50 -14.93 c0 -3.05 0 -3.05 -1.37 0 -0.76 1.68 -1.37 4.11 -1.37 5.33 -0.15 1.98 0 1.98 1.37 0 0.76 -1.22 1.37 -3.66 1.37 -5.33z m-293.18 -7.92 c-0.46 -2.90 -1.37 -5.03 -1.83 -4.57 -0.46 0.46 -0.30 3.81 0.30 7.47 0.76 3.66 1.52 5.64 1.83 4.57 0.46 -1.07 0.30 -4.42 -0.30 -7.47z m11.58 1.52 c-1.37 -2.44 -1.52 -2.29 -1.68 1.22 0 2.13 0.46 4.42 1.22 5.03 1.83 1.83 2.13 -3.35 0.46 -6.25z m-14.32 -37.33 c-0.30 -5.33 -0.46 -1.37 -0.46 8.69 0 10.06 0.15 14.32 0.46 9.60 0.30 -4.88 0.30 -13.10 0 -18.29z m298.36 -16 c-1.37 -7.62 -2.59 -5.18 -1.37 2.74 0.61 3.66 1.37 5.79 1.83 4.72 0.30 -1.07 0.15 -4.42 -0.46 -7.47z m-3.20 -14.78 c-0.46 -2.29 -1.22 -3.81 -1.68 -3.50 -0.30 0.46 -0.15 2.59 0.46 4.72 0.46 2.29 1.22 3.81 1.68 3.50 0.30 -0.46 0.15 -2.59 -0.46 -4.72z m-288.76 -5.49 c0 -1.37 -0.61 -1.22 -1.37 0.76 -0.76 1.68 -1.37 4.11 -1.37 5.33 0 1.37 0.61 1.22 1.37 -0.76 0.76 -1.68 1.37 -4.11 1.37 -5.33z m298.06 -1.52 c-0.61 -1.83 -1.37 -2.90 -1.83 -2.59 -0.46 0.46 -0.30 2.29 0.30 4.11 0.61 1.83 1.37 2.90 1.83 2.59 0.46 -0.46 0.30 -2.29 -0.30 -4.11z m-191.85 -92.50 c-0.91 -1.07 -11.28 2.44 -12.34 4.11 -0.46 0.76 2.29 0.30 6.10 -1.07 3.81 -1.22 6.70 -2.59 6.25 -3.05z m10.51 -1.98 c3.05 -1.37 3.05 -1.37 0 -1.37 -1.68 0 -4.42 0.61 -6.10 1.37 -3.05 1.37 -3.05 1.37 0 1.37 1.68 0 4.42 -0.61 6.10 -1.37z m37.03 -14.78 c-3.20 -0.30 -8.38 -0.30 -11.43 0 -3.20 0.30 -0.61 0.61 5.64 0.61 6.25 0 8.84 -0.30 5.79 -0.61z"/>
  <path d="M364.19 308.57 c1.98 -2.13 3.96 -3.81 4.27 -3.81 0.46 0 -0.76 1.68 -2.74 3.81 -1.98 2.13 -3.96 3.81 -4.27 3.81 -0.46 0 0.76 -1.68 2.74 -3.81z"/>
  <path d="M111.54 227.81 c0 -2.44 0.30 -3.35 0.76 -1.83 0.30 1.37 0.30 3.50 0 4.57 -0.46 0.91 -0.76 -0.15 -0.76 -2.74z"/>
  <path d="M109.87 211.66 c0.15 -6.25 0.76 -13.26 1.37 -15.85 0.61 -2.44 0.76 2.29 0.30 10.67 -0.91 17.98 -1.98 21.33 -1.68 5.18z"/>
  <path d="M402.74 209.52 c0 -5.03 0.30 -6.86 0.61 -4.11 0.30 2.74 0.30 6.86 0 9.14 -0.30 2.29 -0.61 0 -0.61 -5.03z"/>
  <path d="M143.24 106.06 c0 -0.30 1.07 -1.37 2.29 -2.44 1.98 -1.68 2.13 -1.52 1.37 0.61 -0.76 2.13 -3.66 3.50 -3.66 1.83z"/>
  <path d="M158.48 102.86 c0 -0.61 1.22 -2.13 2.74 -3.35 3.05 -2.44 9.30 -5.94 7.16 -4.11 -7.92 7.16 -9.90 8.53 -9.90 7.47z"/>
  <path d="M232.08 65.98 c1.37 -0.30 3.50 -0.30 4.57 0 0.91 0.46 -0.15 0.76 -2.74 0.76 -2.44 0 -3.35 -0.30 -1.83 -0.76z"/>
  <path d="M306.29 65.52 c-1.22 -0.76 -1.52 -1.52 -0.76 -1.52 0.91 0 2.59 0.76 3.81 1.52 1.22 0.76 1.68 1.52 0.76 1.52 -0.76 0 -2.59 -0.76 -3.81 -1.52z"/>
  <path d="M204.04 257.98 c9.14 -18.29 17.98 -36.57 19.96 -40.84 6.55 -14.93 7.62 -16.76 10.97 -20.72 1.98 -2.13 7.92 -6.86 13.41 -10.67 5.49 -3.66 10.82 -7.62 11.89 -8.53 1.07 -1.07 2.59 -1.98 3.35 -1.98 0.76 0 2.29 -0.91 3.35 -1.83 1.07 -1.07 6.40 -5.03 11.89 -8.69 9.30 -6.40 27.73 -19.81 31.39 -22.70 0.76 -0.76 3.20 -2.29 5.18 -3.35 2.13 -1.07 4.72 -3.05 5.94 -4.27 1.22 -1.22 2.59 -1.52 2.74 -0.76 0.61 1.52 -45.26 93.87 -48.61 98.13 -1.07 1.37 -3.66 3.35 -5.64 4.42 -2.13 1.07 -4.57 2.59 -5.33 3.35 -0.91 0.76 -7.47 5.49 -14.63 10.36 -7.16 4.88 -13.71 9.60 -14.63 10.36 -0.76 0.76 -3.20 2.29 -5.33 3.35 -1.98 1.07 -3.96 2.44 -4.42 3.05 -0.46 0.46 -6.25 4.42 -12.95 8.84 -6.70 4.42 -12.80 8.53 -13.71 9.14 -3.05 2.29 -9.75 6.40 -10.51 6.40 -0.30 0 6.70 -14.93 15.70 -33.07z m-1.83 21.79 c0.15 -0.15 -0.76 -1.37 -1.83 -2.90 -1.83 -2.59 -2.13 -2.44 -4.42 2.13 -3.20 6.40 -3.20 6.40 1.83 3.35 2.29 -1.37 4.27 -2.59 4.42 -2.59z m9.60 -6.55 c0 -0.46 -1.83 0.30 -4.11 1.68 -4.27 2.59 -4.27 2.59 -0.76 -0.46 1.98 -1.68 4.42 -2.74 5.49 -2.29 1.07 0.46 2.90 -0.46 4.11 -1.83 1.83 -2.44 1.83 -2.59 -0.15 -1.52 -1.22 0.61 -0.91 0 0.76 -1.22 1.68 -1.37 3.81 -2.13 4.88 -1.83 1.22 0.46 1.52 -0.15 0.91 -1.68 -0.76 -1.98 -0.30 -2.29 1.68 -1.52 1.68 0.76 2.29 0.46 1.52 -0.76 -0.76 -1.22 -0.30 -1.37 1.52 -0.76 1.68 0.76 2.29 0.46 1.52 -0.76 -0.76 -1.22 -0.30 -1.37 1.37 -0.76 1.52 0.46 2.44 0.30 2.13 -0.61 -0.15 -0.91 1.37 -2.74 3.50 -4.11 2.59 -1.83 3.35 -1.98 2.44 -0.46 -0.91 1.52 -0.76 1.83 0.30 1.07 1.07 -0.61 1.83 -1.98 1.83 -3.20 0 -1.07 1.07 -2.44 2.44 -2.90 1.52 -0.61 1.98 -0.30 1.22 1.07 -0.46 0.91 0.76 -0.15 2.74 -2.59 2.13 -2.44 4.42 -3.96 5.33 -3.50 0.91 0.61 2.59 -0.15 3.66 -1.68 1.98 -2.44 1.83 -2.44 -0.91 -0.30 -3.05 2.29 -3.05 2.13 -0.15 -1.22 1.68 -1.83 3.81 -3.35 5.03 -3.35 1.07 0 1.98 -0.76 1.98 -1.68 0 -0.91 1.07 -1.37 2.29 -0.76 1.22 0.46 2.13 0 1.83 -0.91 -0.15 -0.91 0.61 -1.98 1.83 -2.44 1.52 -0.46 1.68 0 0.76 1.37 -1.07 1.83 -0.76 1.83 1.37 0 1.37 -1.07 2.13 -2.59 1.68 -3.35 -0.46 -0.76 0 -1.37 0.76 -1.37 0.91 0 1.68 -0.91 1.68 -1.98 0 -1.07 1.07 -3.35 2.44 -5.03 2.13 -2.74 2.29 -2.74 0.61 0.61 -2.44 5.18 -0.46 3.96 2.44 -1.37 1.22 -2.59 1.68 -4.27 0.91 -3.81 -0.91 0.61 -1.22 -0.30 -0.76 -2.13 0.46 -1.68 1.37 -3.50 2.13 -3.96 0.76 -0.46 0.91 0.46 0.46 1.98 -0.61 2.13 -0.61 2.29 0.61 0.61 0.76 -1.07 1.07 -3.20 0.76 -4.72 -0.46 -1.52 0 -3.20 0.91 -3.66 1.07 -0.76 1.37 0 0.76 1.68 -0.61 2.13 -0.61 2.29 0.61 0.61 0.76 -1.07 1.07 -3.20 0.76 -4.72 -0.46 -1.52 0 -3.20 0.91 -3.66 1.07 -0.76 1.37 0 0.76 1.68 -0.61 2.13 -0.61 2.29 0.61 0.61 0.76 -1.07 1.07 -3.20 0.76 -4.72 -0.46 -1.52 0.15 -3.20 1.22 -3.81 1.22 -0.91 1.52 -0.61 0.61 0.76 -0.76 1.22 -0.61 1.68 0.46 1.07 0.76 -0.61 1.22 -2.44 0.76 -3.96 -0.46 -1.52 0.15 -3.35 1.22 -3.96 1.22 -0.76 1.52 -0.61 0.76 0.46 -0.61 1.07 -0.76 1.83 -0.30 1.83 1.52 0 4.88 -8.38 4.42 -10.97 -0.30 -1.37 0.15 -3.05 1.22 -3.66 1.22 -0.76 1.37 -0.46 0.61 0.91 -0.76 1.37 -0.61 1.68 0.61 0.91 0.91 -0.61 1.37 -2.44 0.91 -3.96 -0.46 -1.52 0 -3.35 0.91 -3.96 1.22 -0.76 1.37 -0.46 0.61 0.91 -0.76 1.22 -0.61 1.68 0.46 1.07 0.76 -0.61 1.22 -2.44 0.76 -3.96 -0.46 -1.52 0 -3.35 0.91 -3.81 1.07 -0.76 1.37 0 0.76 1.68 -0.61 2.13 -0.61 2.29 0.61 0.61 0.76 -1.07 1.07 -3.20 0.76 -4.72 -0.46 -1.52 0 -3.20 0.91 -3.66 1.07 -0.76 1.37 0 0.76 1.68 -0.61 2.13 -0.61 2.29 0.61 0.61 0.76 -1.07 1.07 -3.20 0.76 -4.72 -0.46 -1.52 0 -3.20 0.91 -3.66 1.07 -0.76 1.37 0 0.76 1.68 -0.76 2.13 -0.61 2.29 0.61 0.61 3.81 -5.33 -2.44 -8.99 -7.62 -4.57 -3.50 3.05 -3.50 3.05 0.76 0.46 6.55 -3.96 4.72 -1.52 -2.29 3.20 -4.72 3.20 -5.94 3.50 -4.27 1.37 1.22 -1.52 -1.07 0.46 -5.18 4.42 -4.27 3.96 -8.53 6.86 -9.60 6.55 -1.07 -0.46 -2.29 0 -2.90 0.91 -0.76 1.07 -0.30 1.22 0.91 0.46 1.37 -0.91 1.68 -0.61 0.91 0.61 -0.76 1.07 -2.13 1.52 -3.20 1.07 -1.22 -0.46 -2.90 0.46 -4.11 1.83 -1.83 2.29 -1.68 2.44 0.76 0.46 1.37 -1.07 2.59 -1.68 2.59 -1.22 0 0.46 -2.29 2.44 -4.88 4.27 -2.90 1.98 -4.42 2.59 -3.50 1.22 0.91 -1.22 -0.15 -0.46 -2.29 1.83 -5.03 5.33 -13.41 10.67 -11.58 7.47 0.61 -1.22 -0.15 -0.91 -1.68 0.76 -1.52 1.68 -4.42 4.42 -6.55 6.10 -3.50 2.90 -3.66 2.90 -1.52 0.15 2.29 -2.90 2.13 -2.90 -1.83 -0.30 -3.96 2.59 -6.25 5.33 -2.44 3.05 1.07 -0.76 1.22 -0.46 0.61 0.76 -0.76 1.07 -2.13 1.52 -3.35 1.07 -1.22 -0.46 -1.98 0 -1.68 1.07 0.15 1.07 -0.46 1.68 -1.52 1.52 -1.07 -0.30 -1.52 0.61 -1.07 1.83 0.61 1.22 0.15 2.29 -0.76 2.29 -0.91 0 -1.68 1.07 -1.68 2.44 0 1.22 -0.76 1.83 -1.52 1.37 -0.91 -0.61 -1.52 -0.46 -1.37 0.30 0.61 3.35 -0.30 6.55 -1.68 5.79 -0.91 -0.61 -1.07 0.15 -0.46 1.68 0.61 1.83 0.46 2.29 -0.76 1.52 -1.22 -0.61 -1.52 -0.30 -0.91 1.07 0.46 1.22 -0.30 2.59 -1.68 3.20 -1.52 0.46 -2.29 1.83 -1.68 3.20 0.46 1.22 0.15 2.29 -0.61 2.29 -0.76 0 -1.07 1.07 -0.61 2.29 0.61 1.22 -0.15 2.59 -1.52 3.20 -1.37 0.46 -2.13 1.52 -1.68 2.13 1.07 1.83 -0.91 6.25 -2.29 5.33 -0.61 -0.46 -1.68 0.30 -2.13 1.68 -0.46 1.22 -0.30 1.83 0.61 1.37 0.91 -0.46 1.07 0.15 0.61 1.37 -0.46 1.37 -1.52 2.13 -2.13 1.68 -0.61 -0.46 -1.68 0.30 -2.13 1.68 -0.61 1.52 -0.30 1.98 1.07 1.22 0.91 -0.61 0.46 0.46 -1.22 2.29 -1.68 1.98 -2.90 4.72 -2.59 6.25 0.30 1.52 -0.30 3.35 -1.37 3.96 -1.22 0.76 -1.37 0.46 -0.61 -0.91 0.76 -1.22 0.61 -1.68 -0.46 -0.91 -0.91 0.46 -1.37 2.29 -1.07 3.96 0.30 1.68 -0.15 3.50 -1.07 3.96 -1.07 0.76 -1.22 0.30 -0.46 -0.91 0.76 -1.37 0.61 -1.68 -0.61 -0.91 -0.91 0.61 -1.37 2.44 -0.91 3.96 0.46 1.52 0 3.35 -0.91 3.96 -1.22 0.76 -1.37 0.46 -0.61 -0.91 0.76 -1.22 0.61 -1.68 -0.46 -1.07 -1.83 1.22 -0.61 7.47 1.68 8.99 1.52 0.91 8.69 -2.74 8.69 -4.42z m56.38 -97.52 c0 -1.07 -5.94 2.59 -7.01 4.27 -0.46 0.91 0.76 0.46 3.05 -0.91 2.13 -1.52 3.96 -2.90 3.96 -3.35z m50.74 -33.83 c0.61 -2.59 0.30 -2.74 -2.90 -1.37 -3.96 1.83 -4.72 3.66 -1.68 4.72 2.59 0.91 3.66 0.15 4.57 -3.35z"/>
  <path d="M247.47 226.59 c-1.83 -1.07 -2.90 -2.59 -2.59 -3.66 0.30 -0.91 -0.15 -2.29 -1.22 -2.90 -1.22 -0.76 -1.52 -0.46 -0.61 1.07 0.76 1.22 0.61 1.68 -0.15 0.91 -0.76 -0.76 -1.52 -4.57 -1.52 -8.38 -0.30 -7.77 2.59 -12.95 6.40 -11.43 1.37 0.46 2.13 0 1.83 -1.22 -0.30 -1.37 1.22 -2.29 4.42 -2.59 7.01 -0.76 14.02 6.10 14.93 14.17 0.61 5.64 0.61 5.64 -0.76 1.52 -1.37 -4.42 -1.37 -4.42 -1.07 1.22 0.30 3.05 -0.15 5.64 -0.76 5.64 -0.61 0 -1.07 0.46 -0.76 1.22 0.15 0.61 -0.30 1.22 -1.07 1.37 -0.76 0 -1.98 1.22 -2.74 2.59 -1.68 2.90 -9.75 3.20 -14.32 0.46z m13.71 -4.27 c6.55 -5.18 5.03 -15.09 -3.05 -19.35 -2.44 -1.37 -4.11 -1.07 -7.92 1.22 -8.53 5.18 -7.77 16.30 1.07 19.66 5.49 1.98 5.33 1.98 9.90 -1.52z"/>
  <path d="M285.10 264.53 c-3.66 -3.96 -3.50 -4.88 1.98 -11.28 6.25 -7.16 11.43 -18.44 14.63 -32.46 5.49 -23.31 7.47 -28.80 10.67 -28.80 0.91 0 3.35 15.54 3.66 23.62 0.30 7.77 -6.55 31.85 -9.75 34.29 -0.61 0.46 -1.98 2.44 -3.05 4.42 -2.74 5.18 -10.82 13.87 -12.95 13.87 -0.91 0 -3.35 -1.68 -5.18 -3.66z m8.69 -2.74 c-0.30 -1.07 0.46 -1.83 1.52 -1.52 1.22 0.15 1.68 -0.30 1.07 -1.22 -1.07 -1.83 3.05 -6.40 4.42 -4.88 0.61 0.46 0.61 0 0.15 -1.37 -0.46 -1.22 0.30 -3.50 1.68 -5.18 1.22 -1.68 1.83 -2.13 1.22 -0.91 -0.61 1.37 -0.46 1.83 0.61 1.07 0.91 -0.61 1.22 -2.13 0.76 -3.50 -0.61 -1.68 -0.46 -2.13 0.76 -1.37 1.07 0.61 1.83 0.61 1.98 -0.15 0 -0.61 0.30 -3.20 0.61 -5.79 0.46 -2.44 1.22 -10.36 1.98 -17.52 1.37 -12.95 1.37 -12.95 1.83 -3.05 0.15 5.49 0.76 8.53 1.07 7.01 0.46 -1.68 0.30 -8.84 -0.30 -16 -0.91 -11.73 -1.22 -12.65 -3.05 -9.30 -2.90 5.79 -4.42 11.12 -2.59 10.21 0.91 -0.61 0.91 1.37 0.15 5.49 -0.61 3.50 -1.22 7.16 -1.37 7.92 0 0.91 -0.76 0.46 -1.52 -0.76 -1.07 -1.68 -1.22 -0.46 -0.61 3.96 0.61 3.96 0.30 6.70 -0.76 7.31 -1.07 0.76 -1.37 0.15 -0.76 -1.68 0.76 -2.29 0.61 -2.44 -0.76 -0.46 -0.91 1.22 -1.22 3.50 -0.76 4.88 0.76 2.44 -3.05 11.89 -4.88 11.89 -0.46 0 -0.30 -0.76 0.30 -1.83 0.61 -1.07 0.46 -1.22 -0.61 -0.61 -0.91 0.61 -1.37 1.98 -0.91 3.05 0.91 2.44 -6.70 11.89 -8.69 10.82 -0.76 -0.61 -0.91 0.15 -0.46 1.37 0.46 1.22 2.29 2.59 4.11 2.90 1.83 0.30 3.50 0.76 3.81 0.91 0.15 0 0.15 -0.76 0 -1.68z m18.44 -31.70 c0 -1.52 -0.46 -1.22 -1.37 0.76 -1.83 4.11 -1.83 6.55 0 3.81 0.76 -1.22 1.37 -3.35 1.37 -4.57z"/>
  <path d="M197.03 232.08 c-4.27 -9.14 -1.68 -33.37 4.88 -46.17 8.23 -15.70 27.58 -30.32 44.04 -33.07 8.23 -1.37 22.25 0.91 22.25 3.50 0 1.22 -1.22 2.13 -2.74 2.13 -1.52 0 -3.35 0.61 -4.11 1.37 -0.91 0.76 -4.27 2.13 -7.62 3.20 -9.60 3.05 -22.55 10.36 -28.65 16.15 -6.55 6.40 -13.56 18.44 -16.15 28.04 -1.07 3.81 -2.59 8.99 -3.35 11.58 -0.76 2.59 -1.37 5.79 -1.37 7.16 0 2.90 -3.20 10.21 -4.42 10.21 -0.46 0 -1.83 -1.83 -2.74 -4.11z m7.01 -13.10 c0.91 -3.96 1.37 -8.84 0.91 -10.67 -0.46 -1.83 0.15 -5.94 1.52 -9.14 2.29 -5.64 4.57 -8.08 2.74 -2.90 -1.22 3.50 -0.15 2.13 4.11 -4.88 1.98 -3.35 2.74 -5.49 1.68 -4.72 -1.37 0.76 -1.83 0.46 -1.37 -0.91 0.46 -1.22 1.68 -1.98 2.59 -1.83 0.91 0.30 1.52 -0.46 1.22 -1.52 -0.15 -0.91 0.46 -1.68 1.52 -1.52 1.07 0.30 1.52 -0.61 1.07 -1.83 -0.76 -1.68 -0.30 -1.98 1.83 -1.22 1.68 0.61 2.29 0.46 1.68 -0.61 -1.22 -1.98 4.27 -7.16 6.40 -5.94 0.76 0.61 1.98 0.15 2.59 -0.76 0.76 -1.22 0.30 -1.52 -1.07 -0.76 -1.22 0.61 -0.46 -0.15 1.68 -1.98 4.11 -3.20 9.75 -5.33 8.23 -3.05 -0.46 0.76 0.30 0.91 1.52 0.46 1.37 -0.46 1.98 -1.52 1.52 -2.29 -0.46 -0.76 -0.46 -1.37 0 -1.37 0.30 0 1.98 -0.46 3.50 -0.91 2.29 -0.76 2.44 -0.61 0.46 0.91 -1.83 1.37 -1.52 1.52 1.52 0.61 2.13 -0.46 6.55 -2.13 9.90 -3.66 5.94 -2.74 5.94 -2.74 -1.07 -3.81 -7.31 -1.07 -19.66 0.91 -24.08 3.96 -1.68 1.22 -1.37 1.37 1.52 0.61 3.20 -0.76 3.35 -0.61 1.22 0.76 -1.52 0.91 -3.66 1.52 -4.57 1.22 -3.05 -0.46 -8.99 1.83 -8.08 3.35 0.46 0.61 -0.46 2.13 -1.83 3.20 -2.13 1.83 -2.44 1.83 -1.37 -0.15 0.61 -1.22 0 -0.91 -1.37 0.76 -1.37 1.68 -3.20 3.05 -4.27 3.05 -1.07 0 -1.83 0.76 -1.83 1.83 0 1.07 -1.37 2.90 -3.05 4.27 -1.68 1.37 -1.98 1.98 -0.76 1.37 1.98 -1.07 1.98 -0.76 0.15 1.37 -1.07 1.37 -2.59 2.29 -3.20 1.83 -1.52 -0.91 -3.81 5.03 -3.20 8.84 0.15 1.52 -0.46 2.44 -1.52 2.29 -1.07 -0.30 -2.13 0.91 -2.44 2.59 -0.46 2.44 -0.30 2.59 0.91 0.76 1.22 -1.68 1.37 -0.61 0.61 3.81 -1.07 7.62 -1.98 8.69 -2.13 2.90 -0.15 -4.42 -0.15 -4.42 -1.37 -0.30 -1.83 6.10 -1.52 24.53 0.46 26.82 1.98 2.44 2.59 1.22 5.49 -10.82z m4.72 -17.83 c0 -1.98 -0.15 -1.98 -1.52 0 -0.76 1.22 -1.52 3.35 -1.52 4.57 0 1.98 0.15 1.98 1.52 0 0.76 -1.22 1.52 -3.35 1.52 -4.57z"/>
  <path d="M242.74 157.41 c1.37 -0.30 3.50 -0.30 4.57 0 0.91 0.46 -0.15 0.76 -2.74 0.76 -2.44 0 -3.35 -0.30 -1.83 -0.76z"/>
  <path d="M177.52 222.93 c-1.68 -0.46 -9.90 -2.44 -18.29 -4.57 -8.38 -2.13 -17.83 -4.11 -21.03 -4.57 -5.33 -0.76 -8.38 -2.74 -6.70 -4.57 0.46 -0.30 5.18 -1.37 10.51 -2.13 5.33 -0.76 13.71 -2.13 18.74 -2.90 23.92 -4.11 22.10 -4.72 22.10 8.23 0 6.40 -0.46 11.43 -1.07 11.43 -0.76 -0.15 -2.59 -0.46 -4.27 -0.91z m3.81 -11.12 c0 -9.30 0 -9.30 -5.64 -8.23 -7.47 1.37 -8.23 2.13 -2.13 2.13 5.49 0 7.47 2.90 4.88 7.16 -1.52 2.29 -1.52 2.13 -0.76 -1.22 0.76 -3.96 0.76 -3.96 -9.90 -5.03 -7.01 -0.76 -11.73 -0.46 -13.41 0.61 -2.29 1.37 -1.68 1.52 2.59 0.76 4.88 -0.76 5.03 -0.61 1.52 0.91 -2.13 0.76 -6.10 1.22 -8.69 0.61 -2.74 -0.46 -7.62 -0.46 -10.67 0.30 -5.79 1.07 -5.79 1.07 1.07 2.44 3.81 0.61 9.90 1.22 13.71 1.22 4.88 0 5.94 0.30 3.81 1.22 -2.59 1.07 -2.59 1.22 1.22 2.29 2.44 0.61 6.55 0.61 9.45 0 2.74 -0.46 6.40 -0.15 7.92 0.76 2.29 1.37 1.68 1.52 -2.59 0.91 -4.11 -0.61 -4.57 -0.46 -2.29 0.61 1.68 0.76 4.57 1.52 6.55 1.52 3.05 0.15 3.35 -0.46 3.35 -8.99z"/>
  <path d="M325.33 211.66 c0 -12.19 -1.98 -11.58 23.62 -7.47 5.49 0.91 13.56 2.13 17.98 2.90 4.42 0.61 8.84 1.98 9.75 2.90 1.68 1.68 0.91 1.98 -9.45 3.81 -2.13 0.46 -12.04 2.59 -22.10 4.72 -9.90 2.13 -18.59 3.96 -19.05 3.96 -0.46 0 -0.76 -4.88 -0.76 -10.82z m6.86 6.10 c-3.05 -0.91 -3.20 -1.07 -0.76 -1.22 1.68 -0.15 4.72 -0.61 6.86 -0.91 3.35 -0.76 3.35 -0.61 0.76 0.61 -3.05 1.52 -3.05 1.52 0 1.52 1.68 0 4.72 -0.30 6.86 -0.91 3.81 -1.07 3.81 -1.07 0 -1.98 -3.20 -0.91 -2.90 -1.07 2.59 -1.68 3.50 -0.30 5.94 0 5.49 0.76 -0.61 0.76 0.91 0.91 3.50 0.15 2.44 -0.61 7.16 -1.68 10.51 -2.29 3.35 -0.61 5.49 -1.22 4.57 -1.37 -0.76 -0.15 -6.25 -1.22 -12.04 -2.44 -5.64 -1.22 -14.63 -1.98 -19.81 -1.52 -7.16 0.46 -8.08 0.30 -3.96 -0.61 4.42 -1.07 4.72 -1.37 1.52 -1.52 -2.13 -0.15 -5.33 -0.61 -7.16 -1.07 -2.74 -0.76 -3.50 -0.30 -3.50 1.98 0 1.52 0.91 3.81 1.98 4.88 1.52 1.68 1.52 1.98 0 1.07 -1.37 -0.76 -1.98 0.46 -1.98 4.11 0 4.88 0.30 5.18 4.27 4.42 4.11 -0.91 4.11 -0.91 0.30 -1.98z"/>
  <path d="M349.71 208.76 c-4.57 -1.22 -4.57 -1.22 -0.46 -1.37 2.29 0 4.57 0.61 5.03 1.37 0.46 0.91 0.76 1.37 0.46 1.37 -0.30 -0.15 -2.44 -0.76 -5.03 -1.37z"/>
  <path d="M244.57 140.50 c-0.15 -0.30 0.15 -2.29 0.76 -4.57 1.52 -4.88 3.81 -13.71 5.94 -23.47 3.35 -14.78 5.18 -21.03 6.10 -21.03 0.61 0 2.59 7.01 4.42 15.70 1.83 8.53 4.11 17.98 4.88 21.03 0.91 3.05 1.52 7.16 1.52 9.14 0 3.66 -0.30 3.66 -11.58 3.66 -6.25 0 -11.73 -0.15 -12.04 -0.46z m21.94 -4.11 c-0.15 -0.76 -0.76 -3.20 -1.52 -5.33 -1.22 -3.66 -1.37 -3.66 -0.76 0.46 0.30 2.44 0 3.81 -0.61 3.05 -0.61 -0.61 -1.52 -4.27 -1.98 -7.92 -0.61 -4.88 -0.46 -6.25 0.76 -4.57 1.07 1.52 1.22 1.22 0.61 -1.68 -0.46 -2.13 -0.91 -4.88 -1.07 -6.10 0 -1.22 -0.61 -0.61 -1.22 1.52 -1.07 3.50 -1.22 3.35 -1.83 -1.83 -0.46 -3.05 -0.15 -5.18 0.46 -4.88 1.52 1.07 1.52 0.46 -0.46 -5.33 -2.44 -6.86 -4.72 -3.05 -3.66 5.94 0.46 3.81 0.15 7.92 -0.76 9.14 -1.07 1.68 -1.37 0.91 -0.76 -3.05 0.61 -4.11 0.46 -4.57 -0.61 -2.29 -0.76 1.68 -1.07 5.49 -0.76 8.38 0.46 2.90 0 7.47 -0.91 9.90 -1.37 4.27 -1.52 4.27 -0.76 -1.52 0.46 -4.42 0.30 -5.33 -0.76 -3.05 -0.76 1.68 -1.37 4.72 -1.37 6.86 -0.15 3.66 0.30 3.81 8.99 3.81 5.18 0 9.14 -0.61 8.99 -1.52z"/>
 </g>
</svg>