<?xml version="1.0" encoding="utf-8"?>
<!DOCTYPE svg PUBLIC "-//W3C//DTD SVG 1.0//EN" "http://www.w3.org/TR/2001/REC-SVG-20010904/DTD/svg10.dtd">
<svg version="1.0" xmlns="http://www.w3.org/2000/svg" width="879px" height="512px" viewBox="0 0 879 512" preserveAspectRatio="xMidYMid meet">
 <g fill="#fefefe">
  <path d="M0 255.75 l0 -255.75 439.50 0 439.50 0 0 255.75 0 255.75 -439.50 0 -439.50 0 0 -255.75z m690.29 210.94 c0 -15.27 0.12 -16.26 2.48 -16.88 2.23 -0.62 2.36 -0.99 0.87 -2.73 -2.73 -3.10 -3.85 -8.57 -3.72 -19.62 0 -7.70 0.62 -11.30 2.61 -15.02 2.48 -4.84 2.48 -4.97 0.12 -5.59 -1.74 -0.50 -2.36 -1.74 -2.36 -5.09 0 -4.22 -0.12 -4.47 -4.35 -4.47 -4.35 0 -4.35 0 -4.35 42.09 0 46.56 -0.62 42.58 7.20 43.45 1.12 0.12 1.49 -3.85 1.49 -16.14z m-586.25 -10.43 c9.93 -4.84 13.53 -8.69 15.27 -16.14 2.48 -10.93 -2.11 -19 -13.78 -23.84 -2.36 -1.12 -5.34 -2.36 -6.46 -2.98 -1.24 -0.62 -3.35 -1.12 -4.59 -1.12 -1.37 0 -3.72 -0.50 -5.34 -1.12 -1.61 -0.62 -6.08 -2.11 -10.06 -3.35 -8.57 -2.48 -10.80 -5.21 -10.80 -13.16 0 -12.91 4.97 -17.13 20.24 -17.13 12.29 0 17.51 2.23 19.49 8.19 1.24 3.72 1.99 4.22 5.71 4.22 4.84 0 5.09 -0.62 1.99 -5.09 -7.45 -10.93 -20.98 -15.64 -34.02 -11.79 -9.56 2.73 -16.76 8.32 -19.74 15.39 -4.59 10.68 -0.50 19.24 12.29 25.20 3.23 1.49 6.70 3.10 7.82 3.60 1.12 0.62 5.09 1.37 8.94 1.86 4.47 0.62 9.44 2.36 13.53 4.84 6.58 3.85 6.58 3.85 6.95 12.42 0.25 6.70 -0.12 8.94 -1.86 10.93 -3.97 4.47 -11.55 7.20 -19.74 7.20 -12.04 0 -20.49 -4.72 -22.22 -12.42 -0.74 -3.23 -1.37 -3.72 -5.09 -3.72 -2.36 0 -4.22 0.62 -4.22 1.37 0 3.97 7.20 12.66 13.04 15.64 5.84 3.10 9.31 3.85 18.13 3.97 6.21 0.12 9.56 -0.62 14.53 -2.98z m63.57 0 c0 -2.73 -0.50 -3.10 -4.72 -3.10 -8.57 0 -9.06 -1.37 -8.69 -27.44 0.37 -22.84 0.37 -22.84 7.57 -23.22 6.08 -0.37 7.08 -0.74 7.08 -2.73 0 -2.23 -0.62 -2.36 -5.71 -1.61 -7.45 0.99 -9.19 -1.12 -9.19 -11.05 0 -7.20 0 -7.20 -4.35 -7.20 -4.35 0 -4.35 0 -4.10 8.44 0.37 8.32 0.37 8.32 -4.22 8.69 -3.60 0.25 -4.72 0.99 -4.72 2.73 0 1.74 0.99 2.48 4.10 2.73 3.97 0.37 3.97 0.37 4.22 19 0.25 22.10 1.12 28.18 4.47 32.40 3.10 3.97 6.21 5.34 13.04 5.34 4.72 0.12 5.21 -0.12 5.21 -2.98z m47.43 0.37 c2.61 -1.49 1.86 -1.61 -6.70 -2.23 -11.79 -0.74 -13.41 -2.11 -14.28 -11.92 -0.74 -8.32 0.62 -10.30 8.32 -12.66 7.08 -2.23 22.35 -4.22 25.70 -3.35 3.23 0.74 3.23 0.87 2.48 10.06 -0.37 5.09 -1.37 10.18 -2.11 11.17 -1.24 1.37 -1.12 1.74 1.12 1.74 2.11 0 2.61 0.74 2.61 4.35 0 3.85 0.37 4.35 3.10 4.35 3.60 0 3.48 1.74 3.23 -25.70 -0.12 -11.05 -0.62 -21.48 -1.24 -23.09 -2.61 -6.70 -14.53 -13.28 -24.33 -13.28 -5.59 0 -20.24 7.32 -20.36 10.30 -0.25 2.11 6.21 0.62 9.31 -2.23 2.98 -2.73 4.47 -3.10 12.91 -3.10 12.66 0 14.77 1.61 15.77 11.79 0.87 9.56 -0.25 10.55 -13.04 11.79 -5.21 0.62 -11.17 1.37 -13.28 1.86 -5.59 1.37 -13.66 6.33 -16.02 9.81 -6.58 10.18 4.35 23.96 18.13 22.60 3.23 -0.37 7.20 -1.37 8.69 -2.23z m79.71 1.61 c0.37 -0.62 2.11 -1.49 3.72 -1.86 3.48 -0.87 9.31 -5.96 12.54 -10.93 2.11 -3.48 2.11 -3.48 -1.37 -3.48 -2.86 0 -4.22 0.99 -6.46 4.97 -3.48 6.08 -9.31 8.19 -19.37 6.95 -12.54 -1.61 -17.63 -10.06 -16.51 -27.31 0.87 -12.91 1.99 -16.39 6.21 -20.61 3.60 -3.48 4.47 -3.72 13.41 -3.72 9.68 0 9.68 0 13.66 4.97 2.98 3.72 4.97 4.97 7.57 4.97 4.84 0 4.35 -1.49 -1.99 -7.08 -13.16 -11.55 -31.41 -10.06 -41.22 3.23 -2.23 3.10 -4.22 6.70 -4.22 7.82 0 1.12 -0.50 2.48 -1.24 2.86 -0.62 0.37 -1.24 4.35 -1.24 8.81 0 18 12.29 31.16 29.42 31.41 3.48 0.12 6.70 -0.37 7.08 -0.99z m155.94 -2.48 c6.58 -3.35 8.57 -5.34 11.55 -11.67 2.61 -5.84 2.73 -13.66 0.12 -18 -3.72 -6.33 -18 -13.91 -26.07 -13.91 -1.61 0 -3.23 -0.50 -3.60 -1.24 -0.37 -0.62 -2.61 -1.24 -4.72 -1.24 -2.23 0 -6.21 -1.24 -8.94 -2.86 -4.35 -2.36 -5.09 -3.60 -6.08 -8.69 -1.61 -8.44 0.12 -14.40 5.34 -17.88 3.60 -2.36 5.84 -2.86 14.65 -2.86 8.94 0 11.05 0.37 15.27 3.10 2.73 1.74 5.21 4.47 5.71 6.21 0.62 2.61 1.49 3.10 4.97 3.10 2.36 0 4.22 -0.25 4.22 -0.62 0 -1.99 -6.08 -9.44 -9.31 -11.42 -10.43 -6.21 -24.71 -7.57 -34.39 -3.10 -7.45 3.48 -14.15 11.30 -15.15 17.88 -0.99 6.21 2.61 14.65 7.95 18.37 3.85 2.73 15.27 6.70 25.45 8.94 9.06 1.86 16.39 5.71 17.26 8.81 0.37 1.49 0.74 5.96 0.74 9.81 0 6.08 -0.50 7.45 -3.60 10.68 -3.72 3.60 -9.93 5.21 -21.48 5.21 -7.32 0 -15.15 -3.97 -17.51 -9.06 -1.24 -2.36 -2.11 -4.97 -2.11 -5.71 0 -0.74 -1.99 -1.37 -4.35 -1.37 -3.35 0 -4.35 0.50 -4.35 2.36 0 4.59 9.68 14.65 15.27 15.89 1.86 0.37 3.72 1.24 4.22 1.86 0.37 0.74 5.34 1.12 12.04 0.74 8.81 -0.37 12.66 -1.12 16.88 -3.35z m150.97 -0.37 c2.73 -1.74 5.59 -4.10 6.58 -5.21 1.49 -1.74 1.37 -1.99 -0.99 -1.99 -1.61 0 -3.60 0.87 -4.59 1.86 -3.10 2.98 -11.67 4.72 -20.36 3.97 -7.32 -0.74 -8.44 -1.12 -12.04 -5.34 -3.60 -4.10 -4.10 -5.46 -4.10 -11.92 0 -5.59 0.50 -7.45 1.99 -8.07 1.86 -0.62 1.86 -0.87 0 -1.86 -1.49 -0.74 -1.99 -2.98 -1.99 -7.70 0 -5.71 0.62 -7.20 4.47 -11.67 4.47 -5.21 4.47 -5.21 15.27 -5.21 10.30 0 11.05 0.12 13.91 3.48 1.61 1.86 3.72 4.59 4.59 6.08 2.11 3.85 1.86 10.93 -0.50 13.28 -1.74 1.86 -1.37 1.99 3.97 1.99 5.84 0 5.84 0 5.09 -5.59 -1.86 -13.04 -14.15 -24.21 -26.82 -24.21 -11.79 0 -19.49 5.46 -25.45 18.13 -2.98 6.21 -3.48 8.44 -2.86 14.90 0.99 13.66 7.95 23.09 20.11 27.56 6.08 2.36 18 0.99 23.71 -2.48z m124.53 0.37 c12.04 -8.81 16.51 -22.72 11.92 -37.87 -2.23 -7.32 -9.19 -16.14 -14.90 -18.87 -4.97 -2.36 -14.40 -1.49 -16.76 1.37 -1.37 1.61 -0.62 1.86 4.59 1.86 10.93 0 15.39 3.97 18.87 17.01 2.48 8.94 0.12 24.95 -4.22 29.67 -2.36 2.48 -9.81 5.34 -14.90 5.71 -4.97 0.37 -4.97 0.37 -1.24 2.61 4.47 2.61 11.79 1.86 16.64 -1.49z m55.37 1.74 c3.72 -1.61 3.72 -1.61 -2.48 -1.74 -8.07 -0.12 -13.66 -3.48 -14.77 -8.81 -1.24 -6.46 -0.87 -10.43 1.49 -13.16 2.73 -3.35 16.14 -6.70 27.07 -6.70 8.32 0 8.32 0 7.70 7.95 -0.37 4.35 -1.49 9.56 -2.48 11.55 -1.74 3.48 -1.61 3.72 0.74 4.84 1.49 0.62 2.73 2.36 2.98 3.97 0.37 1.99 1.24 2.73 3.48 2.73 3.10 0 3.10 0 2.73 -23.84 -0.37 -22.97 -0.50 -24.09 -3.35 -28.18 -7.57 -10.55 -27.44 -12.17 -37.99 -3.23 -4.97 4.22 -4.97 4.22 -1.49 4.35 2.23 0 4.47 -0.99 5.84 -2.73 1.99 -2.61 3.35 -2.86 12.91 -2.86 13.16 0 14.65 1.12 15.39 11.79 0.37 4.47 0 8.07 -0.87 9.19 -0.87 0.99 -5.71 1.86 -13.16 2.48 -13.28 0.87 -20.49 3.48 -25.95 9.19 -3.10 3.35 -3.48 4.47 -2.98 9.56 1.37 11.79 14.15 18.75 25.20 13.66z m-441.36 -10.18 c0 -10.06 0.25 -11.05 3.35 -14.28 2.36 -2.48 4.59 -3.48 7.45 -3.48 4.35 0 5.34 0.87 11.17 9.44 12.42 18.13 13.28 19 17.51 19.12 3.97 0 3.97 0 -0.37 -5.84 -15.77 -21.23 -19.24 -26.44 -19.24 -29.55 0 -4.10 2.61 -9.06 6.83 -13.04 6.21 -5.71 10.93 -12.42 8.81 -12.42 -0.99 0 -7.32 6.21 -14.03 13.66 -11.55 13.04 -12.29 13.78 -16.51 13.41 -4.35 -0.37 -4.35 -0.37 -4.72 -26.07 -0.25 -25.82 -0.25 -25.82 -4.47 -25.82 -4.10 0 -4.10 0.12 -4.97 6.58 -0.99 8.44 -0.99 55.74 0.12 68.90 0.74 10.18 0.74 10.18 4.84 10.18 4.22 0 4.22 0 4.22 -10.80z m153.33 -10.55 c0.62 -14.40 1.49 -22.60 2.61 -24.83 1.61 -2.98 1.61 -3.48 0 -3.48 -1.86 0 -3.72 -6.08 -3.23 -10.68 0.12 -1.37 0.25 -7.57 0.12 -13.78 -0.12 -11.55 -0.12 -11.55 -3.85 -11.55 -3.72 0 -3.72 0 -3.72 42.83 0 42.83 0 42.83 3.60 42.83 3.60 0 3.60 0 4.47 -21.35z m45.32 -1.61 c0 -16.14 -0.50 -23.84 -1.49 -25.82 -6.33 -11.17 -16.14 -14.90 -25.82 -9.56 -4.35 2.36 -4.35 2.36 2.48 2.48 5.84 0 7.70 0.62 11.17 3.60 4.35 3.60 4.35 3.60 4.35 23.22 0 30.42 -0.12 29.05 4.97 29.05 4.35 0 4.35 0 4.35 -22.97z m101.81 2.23 c0 -18.62 0.25 -21.23 2.48 -24.95 2.98 -4.97 2.98 -4.72 0 -5.59 -1.86 -0.50 -2.48 -1.74 -2.48 -5.09 0 -4.10 -0.25 -4.47 -3.72 -4.47 -3.60 0 -3.60 0 -3.97 13.41 -0.25 7.32 -0.25 20.98 0 30.42 0.37 17.01 0.37 17.01 4.10 17.01 3.60 0 3.60 0 3.60 -20.73z m-47.30 -11.05 c0.25 -0.25 -2.86 -0.50 -7.08 -0.50 -4.22 0 -7.70 0.50 -7.70 1.12 0 1.12 13.53 0.37 14.77 -0.62z m69.65 -25.95 c0 -1.74 -0.37 -3.10 -0.87 -3.10 -1.37 0 -9.06 4.84 -9.06 5.59 0 0.37 2.23 0.62 4.97 0.62 4.47 0 4.97 -0.25 4.97 -3.10z m-63.57 -83.31 c0.62 -0.99 -15.15 -13.04 -24.33 -18.50 -1.12 -0.62 -2.36 -1.49 -2.73 -1.86 -2.11 -2.23 -32.28 -23.59 -33.27 -23.59 -0.74 0 -1.49 0.37 -1.74 0.99 -1.24 2.73 -8.81 6.46 -13.28 6.46 -4.22 0 -6.58 -1.24 -15.89 -8.32 -5.96 -4.59 -11.17 -8.57 -11.55 -8.94 -0.62 -0.74 -19.24 -14.65 -38.49 -28.68 -6.46 -4.84 -12.42 -8.69 -13.28 -8.69 -1.12 0 -34.89 24.46 -37.62 27.31 -0.37 0.37 -4.35 3.85 -8.94 7.82 -9.93 8.57 -13.53 9.06 -21.11 3.10 -2.73 -2.11 -6.83 -5.21 -9.19 -6.70 -2.36 -1.61 -5.96 -4.22 -8.07 -5.71 -3.35 -2.48 -3.97 -2.61 -5.21 -0.99 -0.87 1.12 -7.32 6.33 -14.53 11.55 -7.20 5.34 -13.53 10.06 -14.28 10.55 -0.62 0.62 -8.44 6.08 -17.38 12.42 -8.81 6.21 -17.26 12.29 -18.62 13.28 -7.08 5.21 -19.12 13.91 -22.35 16.14 -3.72 2.48 -3.72 2.48 3.10 3.23 8.19 0.87 328.26 0 328.76 -0.87z m-61.70 -77.72 c0.99 -1.86 0.99 -2.23 0 -1.74 -0.74 0.50 -1.99 1.99 -2.73 3.48 -0.99 1.86 -0.99 2.23 0 1.74 0.74 -0.50 1.99 -1.99 2.73 -3.48z m-204.23 -1.24 c-4.84 -6.83 -13.04 -26.07 -15.52 -36.50 -4.35 -18.75 -2.86 -53.26 2.98 -70.64 3.72 -11.05 15.15 -30.54 23.71 -40.60 3.48 -4.10 3.10 -3.85 -1.61 0.99 -3.35 3.48 -8.32 9.68 -11.05 13.66 -5.84 8.94 -14.03 25.08 -14.15 28.18 0 1.12 -0.50 3.10 -1.12 4.35 -1.12 2.11 -2.48 8.32 -5.21 22.84 -2.11 11.67 -0.12 27.31 6.33 50.03 1.37 4.35 6.08 14.65 11.30 24.21 2.98 5.21 3.72 6.21 5.09 6.21 0.74 0 0.37 -1.24 -0.74 -2.73z m210.19 -9.06 c0 -0.62 -1.12 0.12 -2.36 1.74 -1.37 1.61 -2.48 3.48 -2.48 4.35 0 0.74 1.12 0 2.48 -1.74 1.37 -1.74 2.48 -3.60 2.36 -4.35z m8.19 -18.62 c1.24 -4.10 2.61 -8.57 3.10 -9.93 3.97 -10.30 4.84 -33.40 1.86 -48.42 -3.23 -17.01 -6.83 -28.18 -9.19 -29.80 -1.61 -0.99 -1.74 0 -0.25 2.86 0.62 1.12 1.86 4.59 2.61 7.70 0.87 3.10 1.99 6.70 2.61 8.07 0.50 1.37 1.61 8.44 2.48 15.77 1.24 10.80 1.24 16.26 0 28.56 -0.99 8.32 -2.11 16.02 -2.61 17.13 -0.62 0.99 -2.36 6.08 -3.97 11.17 -1.74 5.09 -3.48 10.43 -3.97 11.79 -0.62 1.37 0.37 0.25 2.11 -2.48 1.74 -2.73 4.10 -8.32 5.21 -12.42z m-144.02 0.74 c5.46 -3.72 14.77 -10.06 20.73 -14.03 5.84 -3.85 11.05 -7.70 11.55 -8.44 0.50 -0.74 -1.49 -1.24 -5.46 -1.24 -11.55 0 -15.89 -4.72 -14.65 -15.52 0.50 -4.97 0.37 -5.34 -1.12 -3.48 -0.87 1.24 -1.74 2.86 -1.74 3.60 0 0.74 -0.87 2.11 -1.86 2.98 -0.99 0.87 -1.86 2.48 -1.86 3.60 0 1.24 -4.22 10.43 -9.31 20.73 -5.09 10.18 -9.31 19 -9.31 19.49 0 1.24 0.37 0.99 13.04 -7.70z m54.01 -56.61 c7.45 -14.90 13.41 -27.44 13.04 -27.69 -0.50 -0.50 -9.56 5.84 -19.49 13.41 -1.74 1.37 -3.72 2.48 -4.47 2.48 -0.62 0 -2.11 1.12 -3.35 2.48 -1.24 1.37 -2.98 2.48 -3.85 2.48 -0.87 0 -2.11 0.74 -2.61 1.61 -0.50 0.87 -4.22 3.72 -8.19 6.46 -7.32 4.97 -10.80 8.19 -6.08 5.71 6.21 -3.23 16.64 -0.62 18.87 4.84 1.86 4.47 0.50 15.77 -2.23 19.24 -1.12 1.37 -0.50 1.12 1.37 -0.62 1.86 -1.74 9.56 -15.39 17.01 -30.42z m-92.12 14.90 c-0.25 -0.12 -3.72 0.37 -7.82 1.12 l-7.45 1.61 7.45 1.74 c7.45 1.86 7.45 1.86 7.82 -1.12 0.25 -1.61 0.25 -3.10 0 -3.35z m137.44 3.23 c2.23 -0.87 1.99 -1.12 -1.24 -1.74 -2.11 -0.37 -4.97 -0.99 -6.46 -1.49 -2.36 -0.74 -2.86 -0.50 -2.86 1.74 0 2.11 0.74 2.61 4.10 2.48 2.11 0 5.09 -0.50 6.46 -0.99z m36.50 -58.35 c-3.60 -6.58 -4.35 -5.84 -0.99 0.99 1.37 2.98 2.86 5.09 3.23 4.72 0.37 -0.37 -0.62 -2.98 -2.23 -5.71z m-105.41 -7.45 c-0.62 -1.37 -1.24 -4.10 -1.24 -6.21 0 -5.46 -2.11 -5.84 -2.98 -0.37 -0.50 2.48 -1.12 5.59 -1.49 6.83 -0.50 1.74 0.12 2.11 3.23 2.11 3.35 0 3.72 -0.25 2.48 -2.36z m96.84 -6.33 c-1.49 -1.99 -2.98 -3.72 -3.23 -3.72 -0.37 0 0.50 1.74 1.99 3.72 1.49 2.11 2.98 3.72 3.23 3.72 0.37 0 -0.50 -1.61 -1.99 -3.72z m-163.88 -32.28 c0.99 -0.62 1.37 -1.24 0.62 -1.24 -0.62 0 -2.61 1.24 -4.35 2.61 -2.98 2.48 -0.62 1.61 3.72 -1.37z m132.84 1.99 c0 -0.99 -12.42 -8.19 -14.03 -8.19 -0.74 0 0.74 1.12 3.48 2.61 2.73 1.37 5.84 3.35 6.83 4.35 1.74 1.61 3.72 2.36 3.72 1.24z m-123.41 -6.95 c0.74 -0.74 5.46 -2.98 10.55 -5.09 5.09 -1.99 7.45 -3.35 5.21 -2.98 -5.96 1.12 -21.98 9.31 -18.25 9.31 0.62 0 1.86 -0.62 2.48 -1.24z m106.03 -2.98 c-4.84 -4.47 -28.93 -10.55 -46.06 -11.55 -13.53 -0.74 -36.25 2.11 -38.98 4.84 -0.87 0.87 -0.12 0.99 2.23 0.50 14.90 -3.48 42.83 -3.72 57.36 -0.50 9.68 2.11 23.46 6.21 24.83 7.45 1.99 1.74 2.48 1.12 0.62 -0.74z"/>
  <path d="M434.66 308.27 c-1.61 -1.24 -4.59 -3.72 -6.83 -5.46 -4.35 -3.60 -23.34 -17.26 -26.82 -19.12 -4.97 -2.86 -6.21 -4.72 -6.21 -9.44 0 -4.10 0.62 -5.09 4.97 -8.19 10.18 -7.08 31.78 -22.97 34.27 -25.45 1.99 -1.74 4.10 -2.23 7.45 -1.99 4.72 0.37 4.84 0.50 5.21 5.34 0.25 2.73 -0.12 6.95 -0.74 9.31 -2.61 8.94 -4.35 24.09 -2.86 24.58 0.74 0.25 2.11 1.12 2.98 1.86 0.74 0.87 3.72 3.10 6.46 5.09 6.95 4.97 8.07 6.70 8.07 12.17 0 4.22 -0.62 5.21 -5.84 9.06 -6.95 4.97 -15.15 5.96 -20.11 2.23z"/>
  <path d="M311.25 307.03 c-0.50 -0.37 -0.87 -2.86 -0.87 -5.34 0 -3.97 0.62 -5.09 4.72 -7.70 4.35 -2.98 14.90 -11.79 26.69 -22.35 4.47 -4.10 6.08 -4.72 11.30 -4.72 6.08 0 6.08 0 5.34 6.83 -0.74 7.20 -4.59 20.24 -8.57 28.93 -2.48 5.21 -2.48 5.21 -20.11 5.21 -9.81 0 -18.13 -0.37 -18.50 -0.87z"/>
 </g>
 <g fill="#0e0e0f">
  <path d="M677.87 479.48 c-0.12 -3.97 -0.12 -24.71 -0.12 -46.18 l0 -39.11 8.44 0 c8.44 0 8.44 0 8.07 3.97 -0.50 5.71 1.86 6.21 6.33 1.12 3.10 -3.48 5.34 -4.59 10.55 -5.46 7.20 -1.24 9.81 -0.99 16.14 1.86 4.22 1.86 15.52 15.02 14.65 17.13 -0.25 0.74 0.12 2.61 0.87 4.35 2.36 6.21 1.99 17.63 -0.99 27.31 -2.36 7.57 -11.92 16.64 -19 18 -2.48 0.50 -5.84 1.12 -7.45 1.37 -3.23 0.62 -11.79 -3.48 -16.02 -7.70 -1.61 -1.61 -3.48 -2.73 -4.10 -2.36 -0.62 0.37 -0.99 7.82 -0.87 16.51 0.25 15.77 0.25 15.77 -8.07 16.02 -8.44 0.12 -8.44 0.12 -8.44 -6.83z m38.86 -31.16 c8.44 -3.35 11.67 -13.16 8.94 -26.69 -1.12 -5.71 -5.34 -13.41 -6.83 -12.54 -0.50 0.37 -1.61 -0.25 -2.48 -1.24 -1.99 -2.36 -10.55 -1.49 -14.65 1.49 -6.58 4.97 -9.81 17.63 -7.08 28.31 2.61 10.18 12.04 14.77 22.10 10.68z"/>
  <path d="M77.84 462.84 c-1.12 -0.62 -2.11 -0.74 -2.11 -0.37 0 1.49 -12.04 -5.59 -15.39 -9.19 -3.60 -3.85 -8.44 -15.52 -7.45 -18.13 0.37 -0.99 3.72 -1.37 9.56 -1.37 6.95 0.12 8.94 0.50 9.06 1.99 0.12 0.99 0.25 2.86 0.25 4.10 0.25 2.48 5.09 6.95 9.93 8.94 6.70 2.86 19.49 0.25 23.71 -4.84 0.99 -1.12 1.74 -4.35 1.86 -7.20 0.12 -4.97 -0.25 -5.46 -5.71 -8.81 -3.10 -1.99 -7.32 -3.72 -9.31 -3.97 -4.97 -0.62 -10.55 -1.86 -13.41 -2.98 -12.91 -5.21 -21.73 -11.67 -21.73 -16.26 0 -1.24 -0.50 -2.73 -1.24 -3.10 -1.86 -1.12 -0.62 -10.43 2.23 -16.88 2.86 -6.46 7.82 -10.80 16.76 -14.65 4.72 -1.99 7.95 -2.48 16.76 -2.11 12.04 0.37 18.25 2.61 24.33 8.69 5.21 5.34 9.68 16.76 6.58 17.01 -0.87 0 -4.59 0.25 -8.32 0.50 -3.72 0.25 -7.70 -0.12 -8.69 -0.74 -0.99 -0.50 -1.49 -1.12 -0.99 -1.12 0.50 0 0.25 -1.61 -0.37 -3.60 -1.74 -4.97 -7.45 -7.32 -16.39 -6.95 -8.81 0.37 -13.41 3.35 -15.02 9.68 -1.61 6.46 0.99 9.93 10.06 12.54 3.97 1.24 8.44 2.73 10.06 3.35 1.61 0.62 4.22 1.12 5.84 1.12 1.61 0 3.35 0.62 3.72 1.24 0.50 0.74 1.49 1.12 2.23 0.99 2.36 -0.62 13.04 6.33 16.02 10.18 3.23 4.47 3.72 6.33 3.60 13.66 -0.37 14.53 -3.23 18.87 -16.64 25.58 -5.21 2.73 -8.44 3.35 -17.13 3.60 -5.84 0.25 -11.55 -0.12 -12.66 -0.87z"/>
  <path d="M151.34 462.34 c-8.57 -4.47 -10.43 -10.93 -10.43 -36.50 0 -16.14 -0.25 -19.24 -1.86 -19.37 -0.99 0 -3.10 -0.25 -4.59 -0.25 -2.73 -0.25 -2.98 -1.86 -1.74 -12.91 0.12 -0.50 2.11 -0.74 4.59 -0.62 4.47 0.25 4.47 0.25 4.72 -8.32 0.12 -8.69 0.12 -8.69 7.32 -8.69 8.44 -0.12 9.31 0.74 9.06 9.19 -0.37 8.57 0.62 9.68 7.20 8.69 3.10 -0.50 5.96 -0.62 6.33 -0.25 1.37 1.49 0.62 12.66 -0.87 12.79 -0.87 0.12 -4.10 0.25 -7.20 0.37 -5.46 0.12 -5.46 0.12 -5.59 19.37 -0.25 22.22 0.25 23.59 8.69 23.59 5.09 0 5.09 0 5.21 6.21 0.12 3.35 -0.25 6.46 -0.87 6.83 -2.36 1.49 -16.88 1.37 -19.99 -0.12z"/>
  <path d="M193.18 460.98 c-7.70 -3.85 -10.93 -8.94 -11.42 -17.51 -0.25 -5.46 0.25 -7.70 2.36 -10.43 5.71 -7.70 16.88 -12.17 32.16 -12.66 8.69 -0.37 10.93 -1.99 10.06 -7.32 -0.74 -5.71 -4.47 -8.32 -11.55 -8.32 -4.59 0 -6.58 0.74 -9.44 3.35 -3.10 2.86 -4.59 3.35 -11.30 3.35 -4.22 0 -8.07 -0.25 -8.44 -0.62 -1.12 -1.24 3.48 -9.06 6.70 -11.67 6.58 -5.21 11.92 -6.70 22.72 -6.33 5.71 0.12 12.04 0.99 14.03 1.86 4.72 1.99 10.43 7.20 12.17 11.30 0.74 1.74 1.37 14.53 1.61 29.42 0.37 29.55 1.12 27.69 -9.44 27.19 -5.59 -0.12 -5.59 -0.12 -5.34 -4.84 0.12 -2.48 -0.12 -4.59 -0.50 -4.59 -0.37 0 -2.86 1.99 -5.46 4.35 -2.73 2.36 -5.84 4.35 -7.08 4.35 -1.24 0 -2.73 0.37 -3.23 0.99 -1.99 1.99 -13.28 0.87 -18.62 -1.86z m28.93 -14.53 c2.86 -2.98 3.85 -5.21 4.22 -9.68 0.37 -6.08 -0.74 -7.70 -4.10 -5.96 -0.99 0.62 -3.97 0.99 -6.46 0.99 -5.59 0 -13.28 2.36 -16.26 4.97 -1.61 1.49 -1.99 2.98 -1.49 5.71 1.24 5.96 4.47 7.95 12.91 7.95 6.58 0 7.70 -0.37 11.17 -3.97z"/>
  <path d="M279.34 462.84 c-2.36 -0.62 -4.97 -1.24 -5.71 -1.37 -5.09 -1.24 -14.77 -10.68 -16.51 -16.02 -0.12 -0.50 -0.99 -2.73 -1.86 -4.97 -1.86 -4.72 -1.49 -22.72 0.50 -25.20 0.62 -0.74 0.99 -1.74 0.62 -2.11 -0.37 -0.25 1.49 -3.60 4.10 -7.20 6.33 -9.19 14.77 -13.41 26.20 -13.04 4.47 0.12 9.81 0.87 11.67 1.61 1.99 0.87 3.97 1.49 4.47 1.49 2.11 0 12.54 10.30 12.54 12.29 0 1.24 0.37 2.61 0.87 3.10 1.49 1.49 1.49 4.47 0 4.59 -0.87 0.12 -4.47 0.25 -8.07 0.37 -6.21 0.25 -6.70 0.12 -10.80 -4.84 -3.97 -4.97 -4.59 -5.21 -10.43 -5.09 -10.93 0.25 -15.27 6.58 -15.27 21.85 0 13.91 3.48 19.49 13.53 21.48 6.08 1.24 11.17 -1.24 14.53 -6.83 2.86 -4.72 3.23 -4.97 10.06 -5.21 4.84 -0.25 7.20 0.12 7.70 1.24 2.23 5.71 -9.19 20.49 -16.76 21.73 -0.50 0 -1.49 0.62 -2.36 1.24 -1.86 1.61 -13.66 2.11 -19 0.87z"/>
  <path d="M423.36 463.34 c-1.74 -0.25 -3.97 -0.62 -4.97 -0.99 -0.99 -0.37 -1.99 -0.62 -2.23 -0.50 -0.12 0 -1.99 -0.87 -3.97 -1.86 -6.58 -3.35 -16.14 -15.15 -14.03 -17.13 0.37 -0.50 0.25 -1.49 -0.50 -2.36 -0.62 -0.87 -1.12 -2.73 -1.12 -4.10 0.12 -2.11 1.12 -2.36 8.57 -2.48 8.07 -0.12 8.57 0 9.68 2.98 3.60 10.06 9.56 13.78 20.36 12.91 3.48 -0.37 6.95 -0.62 7.82 -0.74 0.99 0 3.35 -1.61 5.34 -3.60 3.60 -3.60 4.35 -7.32 2.86 -13.04 -0.87 -2.98 -9.06 -7.45 -15.64 -8.32 -5.96 -0.87 -22.72 -6.46 -26.32 -8.81 -3.35 -2.23 -8.57 -9.68 -9.06 -13.04 -1.12 -7.32 -1.24 -11.30 -0.25 -11.92 0.62 -0.37 1.12 -1.86 1.12 -3.48 0 -3.97 7.95 -12.79 14.28 -15.64 7.20 -3.23 17.01 -4.22 26.07 -2.48 4.10 0.74 8.32 1.49 9.31 1.61 3.60 0.74 10.80 6.33 13.53 10.55 1.61 2.36 2.98 6.33 2.98 8.81 0.25 4.47 0.25 4.47 -8.07 4.47 -8.07 0.12 -8.19 0 -8.94 -3.35 -2.23 -11.17 -28.93 -12.66 -32.90 -1.86 -0.99 2.48 -0.74 6.83 0.50 10.43 0.74 2.23 7.95 5.59 12.79 6.08 2.36 0.25 4.97 0.99 5.71 1.61 0.87 0.74 1.86 0.99 2.36 0.62 1.12 -1.12 15.89 4.59 20.98 8.07 6.46 4.59 8.81 9.19 9.06 18 0.25 7.70 -2.48 16.02 -6.83 20.73 -2.36 2.73 -11.17 7.32 -13.78 7.32 -0.99 0 -2.36 0.37 -2.86 0.99 -0.99 0.87 -16.14 1.24 -21.85 0.50z"/>
  <path d="M577.31 463.09 c-0.99 -0.62 -4.35 -2.23 -7.45 -3.72 -7.45 -3.60 -9.31 -5.34 -12.54 -12.17 -3.60 -7.20 -3.85 -8.57 -3.72 -19.62 0 -10.30 4.10 -20.49 10.93 -27.31 9.44 -9.44 32.16 -9.56 42.46 -0.12 7.70 7.20 12.42 19.99 10.43 28.80 -0.50 2.48 -1.37 2.61 -22.22 2.48 -12.04 0 -22.47 0.37 -23.22 0.87 -0.74 0.37 -1.37 2.48 -1.49 4.59 -0.25 5.71 5.46 12.04 11.79 13.04 6.21 0.99 14.03 -0.99 17.13 -4.22 1.61 -1.74 3.72 -2.36 8.94 -2.23 3.72 0.12 7.20 0.37 7.70 0.62 0.37 0.25 -0.50 2.73 -1.99 5.71 -2.98 5.59 -10.30 11.30 -16.26 12.66 -5.84 1.37 -18.37 1.74 -20.49 0.62z m22.47 -40.97 c0.50 0 1.24 -0.87 1.61 -1.86 0.87 -2.23 -0.99 -5.96 -5.34 -10.80 -2.73 -2.98 -3.97 -3.48 -10.18 -3.48 -6.83 0 -7.32 0.25 -11.55 5.09 -2.98 3.60 -4.22 6.08 -3.85 8.44 0.12 1.74 0.37 3.23 0.50 3.23 0.12 0 27.56 -0.62 28.80 -0.62z"/>
  <path d="M765.40 462.34 c-1.61 -0.87 -3.10 -1.24 -3.35 -0.99 -0.87 0.74 -8.94 -8.07 -9.44 -10.30 -0.25 -1.24 -0.50 -5.46 -0.62 -9.44 0 -6.21 0.37 -7.57 3.60 -10.93 6.08 -6.58 16.64 -9.81 33.27 -10.30 2.98 -0.12 5.34 -0.99 6.08 -2.23 1.99 -2.98 -0.50 -9.93 -4.10 -11.92 -4.59 -2.36 -13.66 -1.12 -16.39 2.23 -1.86 2.23 -3.85 2.86 -10.30 3.23 -4.47 0.25 -8.32 -0.12 -8.69 -0.74 -1.12 -1.86 3.72 -9.19 8.44 -12.66 11.42 -8.81 36.75 -6.70 43.95 3.48 4.35 6.33 4.84 10.55 4.72 35.76 -0.12 24.83 -0.12 24.83 -7.45 24.95 -8.81 0.25 -9.68 -0.12 -8.07 -3.10 0.87 -1.61 0.62 -2.61 -0.74 -3.85 -1.74 -1.37 -2.36 -1.24 -4.22 1.12 -4.84 5.84 -20.11 9.19 -26.69 5.71z m18.75 -12.04 c0.50 -0.50 1.86 -0.87 2.98 -0.87 4.22 0 9.93 -9.93 9.93 -17.13 0 -3.60 -25.08 1.12 -27.81 5.34 -2.48 3.72 -1.12 9.19 3.10 11.67 3.48 2.11 10.18 2.73 11.79 0.99z"/>
  <path d="M327.27 450.67 c-1.12 -15.39 -0.87 -78.46 0.25 -80.33 0.50 -0.74 4.35 -1.49 8.57 -1.86 9.31 -0.62 8.81 -2.36 8.57 28.56 -0.12 12.54 0.12 22.97 0.50 23.22 0.50 0.25 6.33 -5.59 12.91 -13.04 12.04 -13.66 12.04 -13.66 20.73 -13.66 4.72 0 8.57 0.37 8.57 0.74 0 0.50 -4.72 5.96 -10.30 12.17 -14.15 15.39 -14.03 15.15 -8.69 21.98 2.36 2.98 6.83 9.06 9.93 13.53 2.98 4.47 7.08 10.30 9.06 13.04 1.99 2.73 3.60 5.59 3.72 6.21 0 1.24 -18 1.74 -18.87 0.62 -0.25 -0.37 -3.60 -4.84 -7.32 -9.93 -3.72 -5.09 -7.95 -11.05 -9.19 -13.28 -3.10 -5.34 -4.72 -5.71 -8.07 -2.23 -2.48 2.61 -2.86 4.59 -3.10 13.91 -0.25 6.08 -0.37 11.17 -0.50 11.55 -0.12 0.37 -3.72 0.62 -8.07 0.62 -7.82 0 -7.82 0 -8.69 -11.79z"/>
  <path d="M482.08 461.97 c-1.37 -0.87 -1.37 -93.24 0 -93.36 1.12 -0.12 12.91 -0.12 14.40 0 0.50 0.12 0.99 7.20 1.12 16.02 0 8.69 0 16.76 0.12 17.88 0.12 2.86 3.10 1.61 5.09 -2.11 3.72 -7.08 20.61 -9.93 28.56 -4.97 4.59 2.98 11.05 9.31 9.44 9.31 -0.62 0 -0.25 0.87 0.62 1.99 1.37 1.61 1.74 7.95 1.74 28.06 0 14.40 -0.25 26.44 -0.62 26.94 -0.99 1.37 -14.03 1.24 -15.89 -0.25 -1.12 -0.87 -1.49 -6.95 -1.24 -24.71 0.37 -23.59 0.37 -23.59 -3.97 -27.19 -9.56 -8.07 -21.60 -0.99 -23.09 13.28 -0.37 3.35 -0.74 13.66 -0.74 22.84 -0.25 16.76 -0.25 16.76 -7.32 16.88 -3.85 0.12 -7.57 -0.12 -8.19 -0.62z"/>
  <path d="M630.57 462.10 c-1.61 -0.25 -1.86 -4.47 -1.86 -34.51 l0 -34.14 8.19 0.37 c8.07 0.37 8.07 0.37 8.07 4.35 0 5.34 1.12 6.08 3.60 2.36 2.48 -3.97 8.81 -7.32 14.15 -7.70 4.35 -0.25 4.22 -0.50 4.47 9.44 0.12 5.59 0.12 5.59 -5.09 5.21 -6.58 -0.50 -11.67 2.36 -14.90 8.32 -2.11 3.97 -2.36 6.95 -2.23 25.33 0.12 11.42 -0.12 20.73 -0.50 20.86 -2.23 0.37 -12.17 0.50 -13.91 0.12z"/>
  <path d="M251.41 321.56 c-0.37 -0.62 2.61 -3.60 6.83 -6.46 8.19 -5.84 24.09 -17.38 27.93 -20.24 1.37 -0.99 9.81 -7.08 18.62 -13.28 8.94 -6.33 16.76 -11.79 17.38 -12.42 0.74 -0.50 7.08 -5.21 14.15 -10.43 6.95 -5.21 14.15 -10.80 15.89 -12.42 1.74 -1.61 3.60 -2.98 4.10 -2.98 0.99 0 13.91 9.06 23.96 16.76 5.84 4.59 5.84 4.59 14.28 -2.73 4.59 -3.97 8.57 -7.45 8.94 -7.82 2.98 -3.23 39.85 -29.80 41.09 -29.80 0.99 0 5.96 3.10 11.05 6.95 5.09 3.72 11.55 8.32 14.28 10.18 5.34 3.60 29.42 21.48 30.42 22.72 1.86 2.11 22.72 17.26 23.71 17.26 1.49 0 7.95 -4.59 11.92 -8.44 2.86 -2.86 2.86 -2.86 11.79 3.85 4.97 3.60 13.28 9.68 18.37 13.28 5.09 3.72 9.56 7.08 9.93 7.45 0.37 0.37 1.61 1.24 2.73 1.86 3.97 2.36 12.79 8.57 22.72 16.26 5.46 4.10 11.05 7.95 12.42 8.44 2.48 0.99 2.48 0.99 0 1.86 -3.72 1.37 -361.66 1.49 -362.53 0.12z m198.64 -18.62 c2.98 -2.11 5.71 -4.22 6.21 -4.84 1.24 -2.11 -0.74 -4.72 -6.58 -8.94 -3.23 -2.23 -6.08 -4.47 -6.46 -4.84 -0.37 -0.50 -1.86 -1.49 -3.35 -2.36 -2.48 -1.24 -2.73 -2.23 -2.23 -7.08 0.25 -3.10 0.87 -6.08 1.24 -6.70 0.37 -0.62 0.74 -3.23 0.74 -5.84 0 -2.61 0.99 -7.70 1.99 -11.30 2.86 -9.44 0.99 -10.68 -6.70 -4.35 -6.08 5.09 -20.49 15.52 -29.92 21.98 -2.98 1.99 -5.59 4.10 -5.96 4.72 -0.87 1.37 1.49 4.35 5.21 6.33 3.48 1.86 22.10 15.02 27.31 19.37 11.05 9.06 10.93 9.06 18.50 3.85z m-103.79 -4.22 c2.23 -4.97 6.21 -16.64 7.08 -20.98 0.25 -1.24 0.74 -3.35 1.12 -4.72 1.24 -3.97 -3.23 -2.86 -8.94 2.36 -11.79 10.55 -22.35 19.37 -26.69 22.35 -8.32 5.46 -6.70 6.33 10.93 6.21 14.15 -0.25 14.15 -0.25 16.51 -5.21z"/>
  <path d="M519.95 258.61 c-3.35 -3.23 -3.35 -3.23 2.36 -9.56 8.81 -9.81 20.86 -29.92 21.85 -36.75 0.12 -0.99 0.62 -2.36 1.12 -3.10 0.37 -0.62 1.12 -3.23 1.61 -5.59 0.50 -2.36 1.37 -4.84 1.86 -5.59 2.73 -3.48 3.72 -40.35 1.24 -43.45 -0.74 -0.87 -0.99 -2.98 -0.62 -4.72 0.50 -1.99 0 -4.35 -1.37 -6.33 -1.12 -1.86 -1.74 -3.60 -1.37 -3.97 0.37 -0.37 -0.12 -2.61 -1.12 -4.97 -0.99 -2.36 -1.37 -4.22 -0.99 -4.22 0.50 0 0 -0.99 -1.12 -2.11 -0.99 -1.24 -1.86 -2.48 -1.86 -2.86 0.50 -4.35 -16.39 -29.55 -25.33 -37.99 -6.33 -5.96 -15.27 -12.91 -16.64 -12.91 -0.50 0 -1.86 -0.74 -2.86 -1.74 -1.99 -1.86 -15.39 -8.81 -16.02 -8.44 -0.12 0.25 -1.99 -0.62 -3.97 -1.61 -2.11 -1.12 -3.72 -1.61 -3.72 -1.37 0 0.37 -1.99 -0.25 -4.47 -1.24 -2.48 -0.99 -4.72 -1.61 -5.09 -1.24 -0.37 0.25 -2.11 0 -3.97 -0.74 -6.46 -2.48 -26.94 -3.48 -41.72 -1.74 -22.97 2.48 -50.03 16.88 -67.91 36.13 -6.46 6.83 -24.95 36.63 -22.72 36.63 0.37 0 -0.12 1.24 -1.24 2.86 -0.99 1.61 -1.49 3.35 -1.12 3.72 0.50 0.50 0.12 1.61 -0.62 2.61 -3.85 4.59 -6.08 51.28 -2.86 57.48 0.74 1.24 1.24 2.48 1.12 2.86 -0.74 6.95 13.41 36.75 19.62 41.22 0.62 0.50 -0.99 2.73 -3.72 5.21 -4.97 4.35 -4.97 4.35 -7.82 0.99 -2.86 -3.48 -3.23 -4.10 -10.06 -17.26 -4.35 -8.32 -8.69 -20.11 -9.44 -25.58 -0.37 -1.99 -0.99 -4.22 -1.49 -4.97 -1.12 -1.74 -1.37 -3.97 -2.36 -21.85 -0.50 -8.07 -0.25 -15.77 0.74 -20.49 2.48 -12.79 3.97 -19.86 4.72 -21.85 0.37 -0.99 0.74 -2.73 0.87 -3.72 0.37 -3.10 9.56 -21.23 14.90 -29.18 8.81 -13.41 28.31 -31.78 40.85 -38.61 17.88 -9.68 20.98 -11.05 26.20 -11.67 0.74 -0.12 1.86 -0.62 2.48 -1.24 0.74 -0.50 3.72 -1.37 6.83 -1.86 3.10 -0.50 6.08 -1.24 6.83 -1.61 4.10 -2.48 44.69 -2.23 48.79 0.25 0.74 0.50 2.98 1.12 4.84 1.37 7.95 1.12 22.35 6.21 25.58 9.06 1.12 0.99 2.11 1.49 2.11 0.99 0 -2.61 25.33 15.64 33.77 24.33 7.32 7.45 15.77 19.24 20.86 28.93 2.11 4.10 4.35 7.95 4.97 8.69 1.24 1.61 5.09 12.91 5.46 16.26 0.25 1.37 0.74 3.23 1.24 4.10 0.50 0.74 1.12 3.23 1.37 5.46 0.37 2.23 0.87 5.71 1.37 7.70 2.23 10.93 0.37 41.96 -3.23 50.90 -0.50 1.37 -1.86 5.71 -2.98 9.68 -1.99 6.58 -6.95 17.13 -12.66 26.57 -2.73 4.35 -17.75 21.48 -19 21.48 -0.50 0 -2.23 -1.49 -4.10 -3.35z"/>
  <path d="M382.39 232.79 c0 -0.37 1.74 -3.97 3.72 -8.07 2.11 -4.10 3.72 -7.57 3.72 -7.70 0 -0.25 4.47 -9.31 9.93 -20.11 5.46 -10.93 9.93 -20.73 9.93 -21.98 0 -1.24 0.50 -2.61 1.24 -2.98 0.62 -0.37 2.11 -2.61 3.23 -4.97 2.48 -5.34 5.96 -8.69 15.02 -14.90 3.97 -2.73 7.70 -5.59 8.19 -6.46 0.50 -0.87 1.61 -1.61 2.36 -1.61 0.74 0 2.48 -0.87 3.72 -2.11 1.24 -1.12 3.35 -2.61 4.59 -3.35 3.85 -2.23 15.02 -10.06 27.44 -19.24 6.46 -4.72 12.04 -8.44 12.54 -8.19 0.37 0.37 -7.57 17.13 -17.63 37.49 -20.24 40.72 -19.62 39.85 -38.36 52.39 -5.84 3.85 -15.27 10.30 -21.11 14.40 -23.34 16.14 -28.56 19.37 -28.56 17.38z m57.48 -51.15 c2.11 -2.48 2.98 -8.44 1.61 -12.42 -0.50 -1.49 -2.61 -3.23 -4.59 -3.97 -7.70 -2.73 -15.27 4.97 -12.29 12.42 2.48 5.71 11.42 8.07 15.27 3.97z"/>
  <path d="M459.61 215.78 c-2.86 -3.10 -3.48 -5.46 -1.74 -6.21 2.61 -0.99 9.93 -13.53 11.92 -20.24 1.24 -4.10 2.73 -8.69 3.35 -10.30 0.62 -1.61 0.87 -3.35 0.50 -3.97 -0.37 -0.62 -0.12 -1.37 0.62 -1.86 0.62 -0.37 1.12 -1.99 0.99 -3.48 -0.12 -3.23 3.72 -12.79 4.72 -11.67 1.99 1.99 3.10 24.33 1.37 26.57 -0.62 0.87 -0.87 2.36 -0.50 3.48 0.50 0.99 0.25 2.11 -0.25 2.48 -0.62 0.25 -1.49 2.11 -1.99 3.97 -0.37 1.86 -1.86 4.84 -3.10 6.70 -1.37 1.74 -2.23 3.48 -1.99 3.72 0.37 0.25 -2.11 3.48 -5.21 7.08 -5.84 6.58 -5.84 6.58 -8.69 3.72z"/>
  <path d="M387.48 188.22 c-1.74 -2.11 -2.61 -17.51 -1.12 -21.60 0.50 -1.49 1.24 -4.10 1.49 -5.71 1.12 -5.96 5.71 -14.03 11.55 -20.11 6.70 -6.95 18 -14.15 22.35 -14.15 1.49 0 2.98 -0.50 3.35 -1.12 0.87 -1.24 14.77 -0.74 17.01 0.62 0.99 0.50 0.25 1.49 -2.11 2.86 -1.99 0.99 -3.97 1.86 -4.47 1.99 -0.37 0 -1.24 0.37 -1.74 0.99 -0.50 0.50 -1.61 0.87 -2.61 0.87 -3.35 0 -13.53 5.59 -19.74 10.68 -3.48 2.98 -8.32 8.69 -10.68 12.66 -3.72 6.33 -5.09 10.06 -6.83 18.87 -0.74 3.97 -3.60 13.53 -4.22 14.28 -0.50 0.37 -1.49 -0.12 -2.23 -1.12z"/>
  <path d="M365.88 179.90 c-0.99 -0.62 -3.48 -1.24 -5.46 -1.49 -1.99 -0.25 -4.22 -0.74 -4.84 -1.24 -0.74 -0.37 -3.23 -1.12 -5.59 -1.49 -2.36 -0.37 -6.08 -1.24 -8.19 -1.99 -2.23 -0.74 -4.47 -0.99 -5.09 -0.62 -0.50 0.25 -1.74 0.12 -2.61 -0.50 -1.74 -0.99 0.74 -1.86 9.19 -3.10 4.35 -0.62 8.69 -1.61 8.69 -1.86 0 -0.12 1.99 -0.37 4.35 -0.62 2.36 -0.25 7.08 -0.99 10.43 -1.74 3.35 -0.87 6.33 -1.12 6.70 -0.74 0.87 0.87 1.24 11.55 0.50 14.40 -0.50 2.23 -4.84 2.73 -8.07 0.99z"/>
  <path d="M492.02 172.57 c0 -8.81 0.62 -9.44 8.44 -7.45 2.98 0.87 6.83 1.61 8.57 1.86 8.19 1.37 10.55 1.74 10.55 1.86 0 0.12 1.86 0.37 4.10 0.62 2.36 0.25 4.97 0.74 6.08 1.12 2.86 1.12 0.99 2.73 -2.98 2.48 -1.86 -0.12 -4.59 0.37 -5.96 1.12 -1.37 0.74 -3.60 1.37 -4.97 1.49 -2.11 0.25 -5.59 0.87 -14.28 2.61 -0.99 0.12 -3.60 0.74 -5.71 1.12 -3.72 0.87 -3.72 0.87 -3.85 -6.83z"/>
  <path d="M439.50 114.22 c-1.86 -0.50 -5.59 -0.74 -8.44 -0.50 -4.97 0.37 -6.83 -0.87 -3.97 -2.61 0.74 -0.50 0.99 -1.24 0.62 -1.86 -0.25 -0.50 -0.12 -2.61 0.62 -4.47 0.62 -1.99 1.37 -5.21 1.74 -7.32 0.37 -1.99 1.12 -5.59 1.86 -7.95 0.74 -2.36 0.99 -4.59 0.74 -5.09 -0.25 -0.50 0.25 -1.86 1.12 -3.10 1.61 -2.23 1.86 -2.11 3.72 1.74 1.24 2.23 1.86 4.35 1.49 4.72 -0.25 0.37 0 2.11 0.62 3.97 0.74 1.74 1.49 4.97 1.74 6.95 0.37 2.11 1.24 6.08 2.11 8.94 1.74 6.21 0.62 7.95 -3.97 6.58z"/>
 </g>
 <g fill="#171718">
  <path d="M677.13 486.06 c-0.25 -0.62 -0.25 -21.85 -0.12 -47.05 l0.25 -45.81 8.69 0 c8.69 0 8.69 0 8.32 5.21 -0.37 6.08 0.74 6.46 4.47 1.37 3.48 -4.72 10.06 -7.45 17.75 -7.45 16.64 0 28.18 15.02 28.43 36.75 0 11.79 -2.98 19.99 -9.81 26.57 -11.30 11.05 -26.20 11.55 -36 1.24 -1.86 -2.11 -3.72 -3.72 -3.97 -3.72 -0.25 0 -0.50 7.57 -0.50 16.88 0 16.88 0 16.88 -8.57 17.01 -4.72 0.12 -8.69 -0.25 -8.94 -0.99z m16.64 -17.38 c-0.50 -18.75 0.12 -19.86 6.58 -13.04 3.85 3.85 10.93 7.45 15.15 7.45 10.55 0 22.97 -9.93 26.20 -20.98 5.71 -19.24 -1.99 -40.23 -17.01 -46.93 -7.95 -3.60 -19.74 -0.74 -24.71 5.84 -1.49 2.11 -3.85 3.72 -5.09 3.72 -2.11 0 -2.36 -0.62 -1.74 -4.97 0.62 -4.97 0.62 -4.97 -6.95 -4.97 l-7.70 0 0 45.32 0 45.32 7.95 0 c7.82 0 7.82 0 7.32 -16.76z"/>
  <path d="M702.83 449.31 c-7.20 -2.86 -10.80 -11.92 -9.68 -24.33 1.24 -13.28 6.33 -19 16.88 -19 8.69 0 12.79 3.23 15.77 12.29 3.10 9.81 1.37 23.09 -3.97 28.31 -3.85 3.85 -12.91 5.21 -19 2.73z m13.91 -1.37 c6.70 -3.48 8.94 -8.69 8.94 -20.36 0 -7.08 -1.86 -13.04 -4.97 -16.02 -5.96 -5.71 -16.02 -5.71 -21.11 -0.12 -6.83 7.70 -6.95 26.94 -0.12 33.65 4.10 4.10 12.42 5.46 17.26 2.86z"/>
  <path d="M72.01 461.85 c-10.80 -3.72 -19.86 -15.39 -19.86 -25.95 0 -2.48 0.62 -2.61 9.93 -2.61 9.19 0 9.93 0.25 9.93 2.61 0 2.73 1.99 7.08 4.22 9.19 4.72 4.47 15.15 5.59 22.72 2.48 5.71 -2.48 7.70 -5.09 7.82 -10.68 0 -6.33 -4.10 -9.31 -17.75 -12.91 -16.51 -4.35 -17.26 -4.59 -21.98 -7.32 -10.80 -6.21 -14.77 -16.88 -11.05 -29.42 2.11 -6.95 7.32 -12.54 15.52 -16.51 6.70 -3.23 7.82 -3.48 19.62 -2.98 13.16 0.50 19.74 2.61 25.20 7.95 3.60 3.60 7.82 12.17 7.82 16.02 0 3.10 -0.12 3.10 -9.93 3.10 -9.81 0 -9.93 0 -9.93 -3.23 0 -5.96 -5.59 -9.19 -16.14 -9.19 -6.83 0 -8.07 0.37 -11.30 3.60 -5.59 5.71 -4.47 13.78 2.36 16.39 1.86 0.74 8.94 2.73 15.77 4.47 14.40 3.60 21.48 7.32 26.32 13.66 3.10 4.10 3.48 5.46 3.48 14.15 -0.12 10.80 -1.49 14.53 -7.95 20.73 -9.44 8.69 -29.67 11.67 -44.82 6.46z m32.65 -1.24 c7.08 -2.61 14.03 -8.44 16.88 -14.03 1.12 -1.99 1.86 -7.08 1.86 -11.92 0.12 -7.32 -0.37 -8.94 -3.35 -12.91 -4.84 -6.33 -11.92 -10.06 -26.32 -13.66 -17.38 -4.35 -19.12 -5.21 -21.23 -10.18 -1.49 -3.72 -1.49 -4.97 0 -8.57 2.61 -6.33 6.21 -8.19 16.02 -8.19 11.42 0 17.01 2.98 17.01 9.19 0 3.10 0.12 3.23 8.69 3.23 9.81 0 9.93 -0.25 6.21 -8.32 -5.09 -11.30 -12.91 -15.64 -29.30 -16.26 -10.43 -0.50 -11.92 -0.25 -18.50 2.98 -20.49 10.06 -22.60 33.77 -3.72 43.58 6.33 3.35 10.30 4.72 21.11 7.20 4.84 1.12 10.80 3.48 13.41 5.09 4.22 2.73 4.59 3.48 4.59 8.94 0 3.23 -0.87 6.83 -1.74 7.95 -5.21 6.95 -24.58 7.95 -31.29 1.61 -2.23 -2.11 -4.22 -6.46 -4.22 -9.19 0 -2.36 -0.74 -2.61 -8.81 -2.61 -8.81 0 -8.81 0 -8.07 3.85 2.11 10.43 9.44 18.87 19.62 22.35 9.06 3.10 22.60 3.10 31.16 -0.12z"/>
  <path d="M148.73 461.60 c-2.48 -1.49 -5.21 -4.22 -6.08 -6.21 -0.87 -2.23 -1.49 -11.79 -1.61 -25.82 -0.12 -22.35 -0.12 -22.35 -4.72 -22.35 -4.72 0 -4.72 0 -4.72 -7.57 0 -7.70 0 -7.70 4.84 -6.83 4.84 0.74 4.84 0.74 4.59 -8.32 -0.12 -8.94 -0.12 -8.94 8.94 -9.31 8.94 -0.37 8.94 -0.37 8.94 8.94 0 9.31 0 9.31 7.20 9.06 7.08 -0.25 7.08 -0.25 7.20 6.95 0.25 7.08 0.25 7.08 -7.08 7.08 -7.45 0 -7.45 0 -7.08 19.49 0.37 19.62 0.37 19.62 3.97 21.23 2.61 1.37 4.22 1.49 6.46 0.37 2.98 -1.37 2.98 -1.24 2.98 6.58 0 9.19 -0.25 9.44 -11.55 9.44 -5.59 0 -8.94 -0.74 -12.29 -2.73z m20.61 0.74 c1.37 -0.50 1.99 -2.36 1.99 -6.58 0 -5.71 0 -5.71 -4.84 -5.71 -8.57 -0.12 -8.81 -0.87 -8.81 -23.71 0 -20.36 0 -20.36 6.83 -20.36 6.83 0 6.83 0 6.83 -4.97 0 -2.73 0.12 -5.34 0.37 -5.84 0.12 -0.50 -2.98 -0.74 -6.83 -0.50 -7.20 0.25 -7.20 0.25 -7.20 -9.06 0 -9.44 0 -9.44 -7.45 -9.44 -7.32 0 -7.32 0 -7.70 9.06 -0.37 8.94 -0.37 8.94 -4.97 8.69 -4.72 -0.25 -4.72 -0.25 -4.72 5.84 0 6.21 0 6.21 4.97 6.21 4.97 0 4.97 0 4.97 22.97 0 13.91 0.50 23.96 1.37 25.82 2.11 4.72 9.44 8.32 16.88 8.32 3.48 0 7.20 -0.37 8.32 -0.74z"/>
  <path d="M192.68 461.72 c-2.98 -1.24 -5.96 -2.98 -6.83 -3.85 -5.34 -5.59 -6.21 -19.24 -1.74 -25.82 4.72 -7.08 18.50 -12.42 32.03 -12.42 7.45 0 9.81 -1.37 9.81 -5.96 0 -4.35 -5.59 -8.94 -11.05 -8.94 -3.72 0 -11.30 3.97 -11.30 5.84 0 1.24 -2.61 1.61 -9.93 1.61 -5.46 0 -9.93 -0.25 -9.93 -0.50 0 -0.25 0.74 -2.36 1.74 -4.59 4.47 -10.80 12.29 -14.77 28.56 -14.77 12.54 0 16.51 1.12 22.35 6.21 6.70 5.84 6.95 7.45 6.95 37.49 l0 27.69 -8.32 -0.62 c-8.44 -0.62 -8.44 -0.62 -8.07 -4.59 0.50 -4.72 -0.87 -5.34 -3.23 -1.49 -4.22 6.70 -20.86 9.31 -31.04 4.72z m22.35 -0.99 c2.98 -1.24 6.58 -3.85 8.19 -5.59 3.72 -4.47 5.96 -3.60 5.46 2.11 -0.50 4.59 -0.50 4.59 6.46 4.59 6.95 0 6.95 0 6.95 -26.20 0 -27.44 -0.25 -28.80 -6.08 -35.01 -4.84 -5.34 -10.30 -7.08 -21.98 -7.08 -8.19 0 -11.55 0.62 -16.02 2.73 -3.35 1.61 -5.46 3.35 -5.09 4.35 0.37 0.87 -0.12 1.24 -0.99 0.87 -1.37 -0.50 -5.71 6.08 -5.71 8.69 0 0.37 3.60 0.74 8.07 0.74 5.84 0 8.07 -0.50 8.07 -1.61 0 -0.87 1.99 -2.61 4.35 -3.72 10.18 -4.84 20.49 -0.74 20.49 8.07 0 5.84 -1.86 7.20 -9.68 7.20 -13.28 0 -26.82 4.97 -32.03 11.92 -3.97 5.09 -4.10 13.78 -0.37 20.36 4.97 8.69 19 12.29 29.92 7.57z"/>
  <path d="M204.23 451.05 c-4.47 -1.12 -6.83 -4.22 -6.83 -9.06 0 -7.45 4.84 -9.93 22.10 -11.79 7.70 -0.74 7.70 -0.74 7.70 5.84 0 5.34 -0.62 7.20 -3.23 10.06 -4.97 5.34 -11.42 6.95 -19.74 4.97z m12.17 -1.49 c5.71 -2.23 9.56 -7.70 9.56 -13.53 0 -5.21 0 -5.21 -5.21 -4.47 -18.62 2.48 -21.98 4.10 -22.10 10.55 0 6.46 9.68 10.55 17.75 7.45z"/>
  <path d="M274.87 462.59 c-14.28 -5.21 -21.60 -16.51 -21.60 -33.52 0 -23.46 12.04 -36.75 33.52 -36.75 13.91 0 24.95 6.21 29.55 16.51 3.23 7.45 2.36 8.32 -7.20 8.32 -8.69 0 -8.81 0 -11.30 -4.35 -5.09 -8.69 -18.62 -7.82 -23.59 1.49 -1.12 2.11 -1.74 7.08 -1.74 13.91 0 11.79 1.86 16.14 8.19 19.49 7.45 3.85 15.02 1.37 18.87 -6.08 2.36 -4.72 2.36 -4.72 10.68 -4.35 8.19 0.37 8.19 0.37 7.82 3.97 -0.87 8.07 -8.07 16.76 -17.01 20.61 -6.46 2.73 -19.62 3.23 -26.20 0.74z m24.83 -1.99 c8.57 -3.60 16.88 -13.04 16.88 -18.87 0 -2.98 -0.37 -3.10 -6.95 -2.73 -6.46 0.25 -7.08 0.62 -9.06 4.47 -2.73 4.97 -6.58 7.20 -12.91 7.20 -5.71 0 -11.05 -2.61 -13.78 -6.70 -4.10 -6.46 -4.47 -23.59 -0.50 -31.41 2.23 -4.47 7.20 -6.95 13.28 -6.83 6.70 0 10.06 1.74 12.79 6.46 1.99 3.48 2.61 3.72 9.68 3.72 7.95 0 8.32 -0.37 5.96 -5.84 -4.35 -9.81 -15.77 -16.51 -28.31 -16.51 -19.74 0 -32.28 13.91 -32.28 35.51 0 15.77 7.70 27.19 21.60 32.28 6.33 2.36 17.26 1.99 23.59 -0.74z"/>
  <path d="M327.64 463.09 c0 -0.37 0 -21.85 0 -47.80 l0 -47.18 8.81 -0.25 8.69 -0.12 -0.12 24.95 c0 13.78 -0.37 26.07 -0.87 27.19 -0.50 1.24 -0.74 -9.68 -0.50 -24.21 0.50 -26.32 0.50 -26.32 -7.08 -26.32 l-7.57 -0.12 0 46.31 0 46.31 7.45 0 c7.45 0 7.45 0 7.45 -11.55 0 -10.55 0.25 -11.92 2.86 -14.28 1.61 -1.49 3.60 -2.73 4.47 -2.73 1.74 0 6.33 4.59 6.33 6.33 0 0.50 0.74 1.74 1.61 2.61 0.87 0.87 4.22 5.71 7.57 10.68 6.21 8.94 6.21 8.94 15.27 8.94 9.19 0 9.19 0 6.33 -3.97 -1.61 -2.23 -3.10 -4.35 -3.48 -4.72 -0.37 -0.37 -3.10 -4.22 -6.08 -8.69 -3.10 -4.47 -5.84 -8.32 -6.21 -8.69 -2.36 -2.11 -8.81 -12.54 -8.81 -14.28 0 -1.12 2.11 -4.35 4.84 -7.20 2.61 -2.86 7.57 -8.32 11.05 -12.04 l6.21 -6.83 -7.57 -0.37 c-8.57 -0.50 -7.45 -1.37 -24.33 18.13 -3.72 4.22 -7.32 7.70 -8.07 7.70 -0.87 0 -0.87 -0.37 -0.12 -0.99 0.74 -0.50 3.35 -3.48 5.84 -6.58 2.48 -3.10 7.57 -8.94 11.42 -13.04 6.70 -7.32 6.70 -7.32 16.76 -7.32 5.59 0 9.93 0.25 9.81 0.74 -0.37 0.62 -18.50 20.73 -22.97 25.45 -0.87 0.87 -1.61 1.99 -1.61 2.36 0 0.87 7.45 11.79 8.81 13.04 0.37 0.37 3.10 4.22 6.21 8.69 2.98 4.47 6.21 8.81 7.08 9.68 0.74 0.87 1.49 2.11 1.49 2.73 0 0.62 0.87 1.86 1.86 2.86 3.97 3.97 2.73 4.72 -7.08 4.72 -5.34 0 -10.18 0 -10.68 0 -0.62 -0.12 -3.85 -4.22 -7.20 -9.06 -3.35 -4.97 -6.70 -9.81 -7.57 -10.68 -0.87 -0.87 -1.61 -2.11 -1.61 -2.61 0 -0.50 -1.12 -2.23 -2.48 -3.85 -2.48 -2.86 -2.48 -2.86 -5.59 0 -2.86 2.73 -3.10 3.72 -3.10 14.40 0 11.42 0 11.42 -8.69 11.92 -4.84 0.25 -8.69 0.12 -8.81 -0.25z"/>
  <path d="M415.29 461.85 c-10.43 -4.10 -16.26 -10.80 -18.75 -21.35 -0.74 -3.23 -1.12 -6.21 -0.74 -6.58 0.37 -0.37 4.72 -0.62 9.56 -0.62 8.94 0 8.94 0 11.17 5.59 2.61 7.08 8.69 10.55 18 10.55 7.32 0 12.42 -2.23 15.39 -6.70 5.34 -8.19 -0.37 -15.02 -15.02 -18.25 -3.23 -0.62 -8.07 -1.74 -10.55 -2.23 -8.32 -1.86 -18.37 -7.57 -21.48 -12.29 -3.60 -5.59 -5.09 -15.39 -3.10 -22.35 1.74 -6.70 8.94 -14.28 16.64 -17.51 4.47 -1.99 8.57 -2.61 16.88 -2.61 20.98 0 32.40 7.57 35.51 23.46 0.87 3.85 0.87 3.85 -9.06 3.85 -9.93 0 -9.93 0 -10.68 -3.60 -1.12 -5.34 -7.57 -8.81 -16.14 -8.81 -11.55 0 -16.39 3.85 -15.52 12.42 0.50 5.71 4.72 8.44 17.51 11.30 27.07 5.96 34.39 12.17 34.39 28.93 0 10.43 -2.98 17.26 -10.18 22.84 -8.32 6.58 -31.66 8.69 -43.83 3.97z m33.89 -1.12 c9.44 -3.48 12.42 -5.96 16.26 -13.53 4.97 -9.68 2.73 -23.84 -4.72 -29.80 -5.59 -4.35 -15.77 -7.95 -35.01 -11.92 -1.74 -0.37 -4.72 -1.86 -6.46 -3.35 -2.86 -2.11 -3.35 -3.48 -3.35 -8.32 0.12 -9.68 4.10 -12.66 17.01 -12.66 7.08 0 9.31 0.50 13.16 3.10 3.23 2.23 4.59 4.10 4.59 6.21 0 2.98 0.25 3.10 8.81 3.10 8.44 0 8.69 -0.12 7.95 -2.73 -4.84 -15.77 -14.65 -22.10 -34.51 -22.10 -6.46 0 -11.05 0.74 -14.90 2.36 -6.83 2.98 -12.29 7.57 -11.55 9.68 0.37 0.87 -0.12 1.24 -0.99 0.87 -2.61 -0.99 -5.09 6.83 -4.84 14.90 0.37 9.93 4.22 15.52 13.41 19.99 3.85 1.99 9.06 3.97 11.55 4.47 2.48 0.50 7.32 1.61 10.55 2.23 12.17 2.61 17.01 6.70 17.01 14.53 0 7.82 -7.57 12.91 -19.24 12.91 -10.06 0 -15.89 -3.35 -18.62 -10.55 -2.23 -5.59 -2.23 -5.59 -10.18 -5.59 -8.07 0 -8.07 0 -7.20 5.21 1.12 6.08 5.59 13.66 7.70 12.79 0.87 -0.25 1.24 0.12 0.87 0.99 -0.62 1.74 2.98 4.22 10.68 7.20 7.82 3.10 23.46 3.10 32.03 0z"/>
  <path d="M574.21 462.72 c-15.52 -6.08 -21.11 -15.02 -21.11 -33.77 0.12 -12.17 1.37 -16.88 7.08 -24.95 6.83 -9.56 22.97 -14.15 36.75 -10.30 7.20 1.99 16.76 11.05 18.87 18 2.23 7.08 3.48 20.36 1.86 20.36 -0.62 0.12 -11.42 0 -23.84 0 -22.72 -0.12 -22.72 -0.12 -22.72 3.60 0 4.59 3.48 10.68 7.08 12.66 5.84 3.10 17.51 1.12 20.98 -3.60 1.49 -1.99 14.90 -2.73 17.63 -0.99 1.61 0.99 -2.48 8.44 -6.95 13.04 -6.58 6.58 -25.70 9.81 -35.63 5.96z m25.33 -1.99 c6.70 -2.48 11.17 -6.46 14.28 -12.42 2.11 -3.85 2.11 -3.85 -5.34 -3.85 -5.46 0 -7.70 0.50 -8.57 1.99 -2.61 4.72 -18.75 6.46 -23.84 2.48 -3.72 -2.73 -6.21 -8.19 -6.21 -13.16 0 -4.97 0 -4.97 23.59 -4.97 23.59 0 23.59 0 23.59 -5.34 0 -13.53 -9.68 -27.31 -21.60 -30.67 -12.54 -3.48 -27.44 1.12 -34.02 10.43 -5.46 7.82 -6.95 12.79 -6.95 23.59 -0.12 10.80 1.37 16.02 6.58 22.84 7.57 10.18 24.83 14.28 38.49 9.06z"/>
  <path d="M569.86 419.76 c0 -5.21 3.72 -10.93 8.57 -13.28 4.97 -2.36 14.28 -1.61 17.75 1.61 2.98 2.73 5.96 8.81 5.96 12.42 0 2.86 0 2.86 -16.14 2.86 -16.14 0 -16.14 0 -16.14 -3.60z m31.04 0.50 c0 -5.46 -6.70 -12.66 -12.42 -13.66 -8.32 -1.37 -17.38 5.46 -17.38 13.16 0 2.23 0.99 2.36 14.90 2.36 12.42 0 14.90 -0.25 14.90 -1.86z"/>
  <path d="M763.54 462.72 c-6.33 -2.98 -10.93 -8.44 -12.29 -14.40 -2.73 -12.66 3.60 -22.22 16.88 -25.58 8.19 -1.99 15.27 -2.98 21.23 -3.10 2.98 0 4.35 -0.74 5.34 -2.98 4.35 -9.44 -14.28 -15.52 -20.49 -6.70 -1.61 2.23 -2.98 2.61 -10.30 2.36 -4.59 -0.12 -8.57 -0.50 -8.81 -0.74 -1.37 -1.37 1.49 -7.32 5.21 -11.05 5.96 -6.21 11.79 -8.19 23.84 -8.19 7.95 0 11.79 0.62 15.89 2.61 11.79 5.46 13.04 9.31 13.16 42.46 l0 25.70 -8.44 0 c-9.44 0 -10.68 -0.50 -8.81 -3.97 2.11 -3.97 -0.12 -5.21 -3.48 -1.74 -1.61 1.74 -4.97 4.10 -7.45 5.09 -5.21 2.23 -17.01 2.36 -21.48 0.25z m20.24 -1.49 c2.48 -0.99 5.84 -3.35 7.57 -5.09 3.97 -4.47 7.57 -3.35 6.46 1.99 -0.62 3.72 -0.62 3.72 6.70 3.72 7.45 0 7.45 0 7.45 -24.46 -0.12 -31.66 -1.37 -35.76 -13.16 -41.22 -3.97 -1.86 -7.95 -2.61 -14.65 -2.61 -9.56 0 -15.15 1.61 -20.98 6.21 -2.98 2.36 -7.08 8.44 -7.08 10.55 0 0.37 3.35 0.62 7.45 0.62 6.08 0 7.82 -0.50 10.30 -2.98 8.81 -8.81 26.20 -1.74 22.35 9.19 -0.87 2.73 -1.99 3.10 -12.91 4.47 -16.14 1.99 -21.35 3.85 -26.20 8.81 -3.85 3.97 -4.10 4.84 -4.10 12.79 0 7.82 0.37 8.81 3.72 12.42 2.11 2.23 5.46 4.72 7.45 5.59 5.09 2.23 14.28 2.23 19.62 0z"/>
  <path d="M770.74 449.43 c-2.48 -1.86 -3.48 -3.72 -3.48 -6.70 0 -6.21 2.73 -8.94 10.80 -10.43 12.66 -2.48 18.75 -2.98 19.62 -1.49 1.37 2.23 -2.86 14.28 -6.08 17.26 -2.11 1.99 -4.97 2.98 -10.30 3.48 -6.08 0.50 -7.70 0.25 -10.55 -2.11z m19.12 -2.11 c3.23 -2.98 5.59 -7.57 6.08 -12.17 0.50 -3.60 0.25 -3.72 -3.85 -3.35 -11.30 0.87 -19.99 3.10 -21.73 5.59 -2.86 3.97 -2.23 7.82 1.61 10.80 2.73 2.23 4.35 2.61 9.44 1.99 3.35 -0.37 7.20 -1.61 8.44 -2.86z"/>
  <path d="M480.47 415.29 l0 -47.80 8.69 0 c6.08 0 8.69 0.50 8.69 1.61 0.12 0.74 0.12 8.94 0.12 18 0 8.94 0.50 16.39 0.99 16.39 0.62 0 1.99 -1.37 3.10 -3.10 3.60 -5.59 9.19 -8.07 17.88 -8.07 8.69 0 13.04 1.74 17.63 6.95 5.84 6.70 6.21 8.94 6.21 37.12 l0 26.69 -9.06 0 c-8.94 0 -8.94 0 -8.57 -18.87 0.62 -22.22 -0.87 -30.79 -5.59 -34.51 -7.08 -5.59 -18.50 -0.99 -21.23 8.57 -0.50 1.74 -0.87 12.54 -0.87 23.96 l0 20.86 -8.94 0 -9.06 0 0 -47.80z m16.76 25.70 c0 -21.98 0.50 -25.58 3.97 -29.67 5.21 -5.84 15.02 -7.20 20.49 -2.98 4.84 3.85 5.96 10.30 5.96 32.90 0 20.61 0 20.61 7.45 20.61 7.45 0 7.45 0 7.45 -25.45 0 -26.82 -0.37 -29.18 -6.21 -35.88 -4.47 -5.09 -8.94 -6.95 -16.39 -6.95 -7.32 0 -13.16 2.86 -16.64 8.07 -1.12 1.74 -3.10 3.10 -4.35 3.10 -2.23 0 -2.36 -1.24 -2.36 -17.63 0 -17.75 0 -17.75 -7.45 -17.88 l-7.45 -0.12 0 46.43 0 46.31 7.82 0 c7.70 0 7.70 0 7.70 -20.86z"/>
  <path d="M628.21 428.95 c0 -18.75 0 -34.51 0 -34.89 0 -0.50 3.85 -0.87 8.69 -0.99 8.69 -0.12 8.69 -0.12 8.44 6.08 -0.12 6.21 -0.12 6.21 -0.62 0.99 -0.50 -5.34 -0.50 -5.34 -7.95 -5.34 -7.32 0 -7.32 0 -7.32 33.52 0 33.52 0 33.52 7.45 33.52 7.45 0 7.45 0 7.45 -21.60 0 -19.74 0.25 -22.10 2.61 -26.07 3.23 -5.59 11.92 -9.31 16.64 -7.20 3.10 1.49 3.10 1.49 3.10 -5.96 0 -7.45 0 -7.45 -3.85 -7.45 -5.46 0 -13.16 4.59 -14.28 8.57 -0.37 1.74 -0.99 2.61 -1.37 1.74 -1.74 -4.72 7.32 -11.55 15.52 -11.55 5.21 0 5.21 0 5.21 8.69 0 8.94 -0.62 9.81 -4.97 7.45 -3.72 -1.99 -11.79 1.86 -14.90 6.95 -2.23 3.97 -2.48 6.46 -2.48 26.07 0 21.60 0 21.60 -8.69 21.60 l-8.69 0 0 -34.14z"/>
  <path d="M249.55 321.18 c0 -0.74 6.70 -5.96 18 -14.03 1.37 -0.99 5.34 -3.85 8.94 -6.33 3.48 -2.61 7.32 -5.46 8.69 -6.33 14.77 -10.06 63.19 -45.44 64.93 -47.30 0.37 -0.37 1.86 -1.86 3.35 -3.10 2.86 -2.36 2.86 -2.36 8.07 1.24 2.98 1.99 5.59 3.85 5.96 4.22 0.37 0.37 2.61 2.11 4.97 3.72 2.36 1.61 4.59 3.35 4.97 3.72 0.37 0.37 2.48 1.99 4.72 3.60 3.97 2.86 4.22 2.86 6.83 0.62 4.59 -4.10 11.05 -9.81 12.54 -11.05 0.74 -0.74 3.85 -3.23 6.95 -5.59 3.10 -2.36 6.21 -4.72 6.83 -5.34 0.74 -0.50 6.58 -4.84 13.04 -9.56 6.46 -4.72 12.42 -9.19 13.28 -9.93 1.86 -1.49 5.34 -1.61 5.34 -0.25 0 0.62 1.49 1.74 3.23 2.61 1.74 0.74 7.45 4.59 12.66 8.57 5.21 3.97 11.05 8.07 12.79 9.19 1.74 1.12 3.97 2.86 4.97 3.72 0.99 0.99 3.72 3.10 6.08 4.72 2.36 1.61 5.09 3.72 5.96 4.59 0.87 0.87 2.11 1.61 2.48 1.61 0.50 0 2.23 1.24 3.97 2.86 1.74 1.49 8.07 6.46 14.03 11.05 11.05 8.44 11.05 8.44 15.52 4.97 2.61 -1.86 5.46 -4.35 6.58 -5.46 1.12 -1.24 2.73 -2.23 3.48 -2.23 1.24 0 8.32 4.35 10.06 6.21 0.37 0.37 6.46 4.84 13.66 9.93 7.20 5.09 13.66 9.68 14.28 10.30 0.74 0.50 4.35 3.10 8.07 5.84 3.72 2.73 7.45 5.34 8.07 5.84 0.74 0.62 2.61 1.86 4.35 2.98 1.74 1.12 4.47 3.35 6.21 4.84 1.74 1.49 5.46 4.10 8.44 5.84 2.86 1.74 5.21 3.48 5.21 3.85 0 0.50 -82.69 0.87 -183.75 0.87 -101.06 0 -183.75 -0.37 -183.75 -0.99z m361.04 -2.48 c-1.99 -1.12 -6.46 -4.35 -9.93 -7.20 -3.48 -2.73 -7.08 -4.72 -7.95 -4.35 -0.87 0.37 -1.37 0 -1.12 -0.87 0.62 -1.86 -7.82 -7.45 -9.56 -6.33 -0.87 0.50 -0.99 0.25 -0.50 -0.50 0.99 -1.61 -4.84 -5.71 -6.58 -4.59 -0.74 0.37 -1.12 0 -0.74 -0.87 0.62 -1.99 -24.83 -20.11 -26.69 -19 -0.62 0.37 -0.99 0 -0.62 -0.87 0.25 -0.87 -1.49 -2.86 -3.85 -4.47 -4.35 -2.73 -4.59 -2.73 -6.58 -0.62 -2.86 3.10 -10.93 9.06 -12.29 9.06 -1.24 0 -20.73 -14.53 -26.32 -19.49 -1.74 -1.61 -3.48 -2.86 -3.97 -2.86 -0.37 0 -1.61 -0.74 -2.48 -1.61 -3.72 -3.60 -9.81 -7.20 -10.93 -6.46 -0.62 0.37 -0.99 0 -0.62 -0.87 0.37 -0.87 -1.37 -2.98 -3.97 -4.72 -2.61 -1.61 -8.94 -6.21 -14.03 -10.06 -5.09 -3.85 -10.68 -7.70 -12.42 -8.57 -1.74 -0.87 -3.48 -2.11 -3.85 -2.86 -1.12 -1.61 -29.80 20.11 -28.80 21.85 0.37 0.74 0.12 0.87 -0.74 0.37 -1.37 -0.87 -7.20 3.10 -15.64 10.68 -10.55 9.31 -12.54 10.93 -14.28 10.80 -0.99 0 -5.46 -2.73 -9.93 -6.08 -4.47 -3.48 -8.81 -5.96 -9.68 -5.59 -0.87 0.37 -1.37 0.12 -0.99 -0.50 0.74 -1.12 -6.83 -7.57 -8.81 -7.57 -0.62 0 -2.23 0.99 -3.60 2.23 -4.47 4.22 -29.42 22.60 -30.67 22.60 -0.62 0 -0.74 0.87 -0.37 1.99 0.37 1.12 0.25 1.49 -0.50 1.12 -1.74 -1.12 -21.23 13.04 -20.24 14.65 0.37 0.74 0.12 0.87 -0.62 0.37 -1.86 -1.12 -13.91 6.95 -13.28 8.81 0.25 0.87 -0.25 1.24 -0.99 0.87 -0.87 -0.25 -3.48 0.87 -5.84 2.73 -2.36 1.74 -9.81 7.08 -16.39 11.79 -6.70 4.84 -12.17 8.81 -12.17 8.94 0 0.12 81.44 0.25 181.14 0.25 173.44 0 180.89 -0.12 177.41 -2.23z"/>
  <path d="M439.25 306.28 c-0.87 -0.87 -3.60 -2.98 -5.96 -4.59 -2.36 -1.61 -4.59 -3.35 -4.97 -3.72 -1.99 -2.36 -8.81 -6.21 -9.93 -5.59 -0.62 0.37 -0.99 0 -0.62 -0.87 0.37 -0.99 -3.35 -4.22 -9.44 -8.32 -10.30 -6.83 -12.66 -9.68 -9.68 -11.30 3.48 -1.99 29.30 -20.61 34.76 -25.08 3.10 -2.61 6.70 -4.72 7.95 -4.72 2.36 0 2.36 -0.74 -0.62 19.86 -0.62 3.72 -1.49 9.44 -1.99 12.79 -0.50 3.85 -0.37 5.84 0.50 5.84 0.74 0 2.11 0.74 2.98 1.61 0.87 0.87 4.84 3.97 8.81 6.95 3.85 2.98 7.08 6.33 7.08 7.45 0 1.99 -13.16 11.30 -15.89 11.30 -0.74 0 -2.11 -0.74 -2.98 -1.61z m13.53 -6.33 c2.23 -1.49 4.10 -2.98 4.10 -3.35 0 -0.50 -3.23 -3.23 -7.08 -6.21 -3.97 -2.98 -7.95 -6.08 -8.81 -6.95 -0.87 -0.87 -2.23 -1.61 -2.98 -1.61 -1.61 0 -0.37 -13.16 2.98 -30.17 0.74 -3.97 0.99 -7.45 0.62 -7.82 -0.62 -0.62 -9.81 5.71 -12.04 8.19 -0.37 0.37 -2.61 2.11 -4.97 3.72 -2.36 1.74 -4.84 3.48 -5.59 4.10 -0.62 0.62 -5.59 3.97 -10.80 7.57 -10.30 7.08 -10.43 7.57 -1.99 12.04 1.61 0.74 3.10 1.86 3.48 2.23 0.37 0.50 2.61 2.23 4.97 3.85 2.36 1.61 4.59 3.35 4.97 3.72 0.37 0.37 2.61 2.11 4.97 3.72 2.36 1.61 4.59 3.35 4.97 3.72 0.37 0.37 2.61 2.11 4.97 3.72 2.36 1.61 5.09 3.72 6.08 4.72 1.37 1.37 2.23 1.24 4.97 -0.50 1.74 -1.24 5.09 -3.35 7.20 -4.72z"/>
  <path d="M314.11 302.56 c0 -1.74 1.61 -3.72 4.35 -5.59 2.36 -1.61 5.84 -4.47 7.70 -6.21 1.99 -1.86 5.96 -5.34 9.06 -7.70 3.10 -2.36 7.82 -6.46 10.55 -8.94 5.84 -5.59 9.31 -6.08 9.31 -1.61 0 3.23 -8.32 29.18 -9.68 30.54 -0.50 0.50 -7.70 1.12 -16.02 1.61 -15.27 0.74 -15.27 0.74 -15.27 -2.11z m30.04 -0.62 c1.12 -1.12 9.68 -27.19 9.68 -29.42 0 -2.86 -1.49 -2.23 -6.83 2.86 -2.73 2.48 -7.45 6.58 -10.55 8.94 -3.10 2.36 -7.08 5.84 -9.06 7.70 -1.86 1.74 -5.34 4.59 -7.70 6.21 -2.36 1.49 -4.35 3.48 -4.35 4.10 0 1.37 27.31 0.99 28.80 -0.37z"/>
  <path d="M522.06 261.71 c-1.37 -0.74 -3.48 -2.48 -4.59 -3.85 -2.11 -2.36 -1.99 -2.73 3.10 -8.19 2.98 -3.10 7.08 -8.32 9.31 -11.55 4.97 -7.32 13.91 -24.58 13.91 -27.19 0 -0.99 0.50 -2.36 0.99 -3.10 0.99 -0.99 1.86 -4.47 4.97 -20.49 2.98 -15.39 1.24 -33.02 -5.21 -53.26 -2.98 -9.44 -12.42 -27.31 -17.51 -33.02 -0.62 -0.74 -3.48 -4.22 -6.21 -7.57 -2.73 -3.48 -7.57 -8.19 -10.80 -10.43 -3.23 -2.36 -5.96 -4.59 -5.96 -4.97 0 -0.50 -1.61 -1.49 -3.72 -2.36 -1.99 -0.87 -3.72 -1.99 -3.72 -2.36 0 -2.23 -25.45 -12.42 -37.87 -15.15 -10.55 -2.36 -41.34 -2.11 -50.28 0.50 -14.28 4.10 -33.65 12.91 -39.23 18 -1.24 1.12 -4.35 3.60 -6.70 5.34 -15.27 11.55 -29.42 32.03 -36.63 52.64 -4.10 12.04 -5.34 19.74 -5.46 35.88 -0.25 22.47 2.73 35.51 12.42 54.25 2.73 5.21 5.96 10.55 7.32 12.04 3.35 3.60 2.98 5.21 -2.48 9.93 -4.72 3.97 -4.72 3.97 -7.70 0 -10.80 -14.28 -20.98 -40.72 -22.72 -58.72 -0.50 -4.72 -1.12 -10.43 -1.37 -12.54 -0.62 -4.35 1.24 -22.35 3.35 -32.16 3.10 -14.28 9.68 -29.18 19.12 -43.45 4.84 -7.32 28.18 -31.66 30.29 -31.66 0.62 0 1.99 -0.87 3.10 -1.86 2.86 -2.86 24.09 -13.66 32.40 -16.39 14.65 -4.97 21.85 -5.96 42.21 -5.96 21.23 0.12 29.42 1.49 45.32 7.82 28.06 11.05 47.67 27.56 64.19 54.25 16.88 27.31 22.22 65.06 13.78 98.08 -2.61 10.18 -12.17 32.40 -14.65 34.14 -0.50 0.37 -1.61 1.99 -2.36 3.48 -1.74 3.23 -4.35 6.46 -12.54 15.27 -4.84 5.21 -5.96 5.84 -8.07 4.59z m8.44 -7.45 c9.93 -11.42 14.28 -17.63 20.11 -29.67 3.97 -8.07 4.59 -10.06 6.95 -18.50 9.19 -34.39 4.47 -70.64 -12.91 -98.70 -19.49 -31.41 -45.69 -50.65 -80.95 -59.72 -11.05 -2.73 -43.70 -3.10 -54.01 -0.62 -15.89 3.97 -41.22 15.15 -46.68 20.61 -1.12 0.99 -2.48 1.86 -3.10 1.86 -2.11 0 -25.45 24.33 -30.29 31.66 -16.26 24.46 -21.11 41.34 -21.11 72.01 0.12 18.37 0.50 22.22 2.86 29.42 1.49 4.59 2.73 8.94 2.73 9.81 0 2.23 13.53 28.80 16.51 32.40 2.73 3.35 2.73 3.35 6.83 -0.37 4.10 -3.60 4.10 -3.60 1.61 -6.33 -5.84 -6.08 -14.77 -26.69 -18.50 -42.34 -1.86 -7.45 -1.86 -38.36 -0.12 -47.05 3.85 -19 12.29 -36.38 25.58 -52.76 15.15 -18.75 37.99 -32.78 63.69 -39.11 10.06 -2.36 41.84 -2.11 52.14 0.62 24.95 6.46 40.10 14.77 55.87 30.67 11.17 11.17 15.64 17.51 21.98 30.67 11.05 22.84 15.39 48.79 11.55 68.90 -2.86 15.02 -4.22 20.36 -5.21 21.35 -0.50 0.74 -0.99 1.99 -0.99 2.86 0 2.36 -4.72 12.17 -10.18 21.23 -2.61 4.35 -4.35 8.44 -3.97 9.06 0.37 0.62 0.12 0.99 -0.50 0.87 -0.62 -0.25 -3.72 2.61 -7.08 6.21 -5.84 6.46 -5.84 6.46 -2.98 8.94 1.61 1.37 3.35 2.36 3.72 2.48 0.37 0 3.35 -2.98 6.46 -6.46z"/>
  <path d="M392.32 210.19 c7.32 -14.90 14.28 -29.30 15.52 -32.03 7.20 -16.51 9.19 -19.12 20.49 -26.69 4.47 -2.98 8.81 -6.21 9.68 -7.08 0.87 -0.87 2.11 -1.61 2.73 -1.61 0.62 0 1.86 -0.74 2.73 -1.49 0.87 -0.87 5.21 -4.10 9.68 -7.08 4.47 -3.10 11.55 -8.07 15.64 -11.17 4.22 -3.23 8.94 -6.58 10.43 -7.57 1.49 -0.99 4.47 -3.10 6.58 -4.59 2.11 -1.61 4.22 -2.86 4.84 -2.86 0.50 0 -8.07 17.88 -18.87 39.60 -19.24 38.36 -21.23 41.72 -29.30 47.05 -1.24 0.74 -7.82 5.46 -14.53 10.18 -6.70 4.72 -13.41 9.31 -14.90 10.06 -1.49 0.87 -2.98 1.86 -3.35 2.23 -0.37 0.50 -4.84 3.60 -9.93 6.95 -5.09 3.35 -11.67 7.57 -14.53 9.56 -2.86 1.86 -5.34 3.48 -5.71 3.48 -0.25 0 5.46 -12.17 12.79 -26.94z m-2.23 16.51 c-0.37 -0.62 0 -0.74 0.74 -0.25 1.24 0.74 10.06 -4.47 18.25 -10.80 0.62 -0.50 3.48 -2.48 6.33 -4.35 8.44 -5.71 24.58 -16.88 25.95 -17.88 9.06 -7.08 9.81 -8.44 27.93 -44.57 18.75 -37.49 19 -38.36 10.55 -31.78 -4.72 3.60 -18.75 13.66 -25.45 18.37 -4.47 2.98 -8.81 6.21 -9.68 7.08 -0.87 0.74 -2.11 1.49 -2.73 1.49 -0.62 0 -1.86 0.74 -2.73 1.61 -0.87 0.87 -5.21 4.10 -9.68 7.08 -11.30 7.57 -13.16 10.06 -20.49 26.69 -1.24 2.73 -7.70 15.89 -14.28 29.30 -11.55 23.34 -11.79 24.21 -7.95 21.73 2.11 -1.49 3.60 -3.10 3.23 -3.72z"/>
  <path d="M429.69 183.62 c-10.43 -4.22 -7.20 -19.74 4.22 -19.74 6.21 0 9.31 3.48 9.31 10.43 0 4.47 -0.62 5.96 -3.23 8.07 -3.60 2.86 -5.71 3.10 -10.30 1.24z m9.06 -2.48 c6.21 -4.97 2.86 -16.02 -4.84 -16.02 -1.74 0 -4.59 1.37 -6.21 3.10 -4.97 4.84 -3.48 11.55 3.23 14.15 4.10 1.61 4.10 1.61 7.82 -1.24z"/>
  <path d="M458.25 215.53 c-2.98 -3.23 -2.86 -3.97 1.61 -9.19 5.09 -5.84 9.31 -15.02 11.92 -26.44 2.98 -13.41 6.21 -22.47 8.19 -23.09 0.87 -0.25 1.74 3.48 2.48 10.06 1.37 12.79 0 22.22 -5.09 32.53 -3.85 8.07 -12.42 19.12 -14.77 19.12 -0.87 0 -2.86 -1.37 -4.35 -2.98z m18 -17.88 c4.97 -10.18 6.46 -20.86 4.59 -32.53 -1.12 -6.83 -1.12 -6.83 -3.10 -1.24 -1.12 3.10 -3.23 10.80 -4.72 17.26 -2.73 11.55 -6.83 20.61 -12.04 26.69 -3.48 3.85 -3.48 4.22 -0.74 7.32 2.23 2.36 2.36 2.23 6.95 -2.98 2.61 -2.98 6.70 -9.56 9.06 -14.53z"/>
  <path d="M386.49 189.08 c-3.48 -7.45 -1.37 -27.19 3.97 -37.62 6.70 -12.91 21.73 -24.21 35.76 -26.69 6.70 -1.24 18.25 0.37 18.25 2.61 0 0.99 -0.87 1.74 -1.86 1.74 -0.99 0 -2.86 0.50 -4.10 1.24 -1.12 0.62 -5.21 2.36 -9.06 3.72 -7.70 2.73 -16.39 8.19 -21.48 13.28 -4.22 4.22 -9.93 14.40 -11.79 21.48 -0.87 3.10 -2.11 7.32 -2.73 9.44 -0.62 2.11 -1.12 4.72 -1.12 5.84 0 2.36 -2.61 8.32 -3.60 8.32 -0.37 0 -1.49 -1.49 -2.23 -3.35z m4.59 -5.84 c0 -1.37 0.50 -4.10 1.12 -6.21 0.62 -2.11 1.86 -6.33 2.73 -9.44 4.59 -16.88 18 -30.17 36.50 -36 2.73 -0.87 5.59 -1.99 6.21 -2.48 0.74 -0.50 2.36 -1.24 3.72 -1.49 1.37 -0.37 -0.74 -0.99 -4.84 -1.61 -13.91 -1.86 -28.18 5.09 -40.10 19.49 -6.58 8.07 -10.30 19.24 -10.30 31.53 0 8.69 1.86 13.41 3.97 10.06 0.50 -0.74 0.99 -2.61 0.99 -3.85z"/>
  <path d="M370.60 181.64 c-1.37 -0.37 -8.07 -1.99 -14.90 -3.72 -6.83 -1.74 -14.40 -3.35 -16.76 -3.72 -10.30 -1.37 -9.31 -3.72 1.99 -5.34 4.10 -0.62 11.30 -1.74 16.02 -2.48 20.11 -3.23 18 -3.97 18 6.70 0 5.21 -0.37 9.31 -0.87 9.31 -0.62 -0.12 -2.11 -0.37 -3.48 -0.74z m3.10 -9.19 c0 -7.57 0 -7.57 -3.23 -6.83 -2.86 0.74 -14.03 2.48 -25.33 3.97 -2.36 0.37 -5.71 0.99 -7.45 1.37 -2.73 0.74 -2.61 0.87 1.86 1.74 2.73 0.50 10.30 2.23 16.76 3.97 17.88 4.72 17.38 4.84 17.38 -4.22z"/>
  <path d="M491.40 173.07 c-0.12 -4.47 0 -8.44 0.50 -8.69 0.50 -0.37 6.95 0.37 14.28 1.49 7.45 1.12 16.02 2.48 19.37 2.98 7.45 0.99 10.18 3.35 5.09 4.35 -17.13 3.35 -28.06 5.71 -32.03 6.95 -6.46 1.99 -6.70 1.61 -7.20 -7.08z m17.38 3.10 c6.58 -1.49 14.28 -3.10 17.01 -3.48 4.47 -0.87 4.59 -0.99 1.86 -1.74 -1.74 -0.37 -6.95 -1.37 -11.79 -2.11 -4.72 -0.87 -11.42 -1.99 -14.65 -2.61 -3.23 -0.62 -6.46 -1.12 -7.08 -1.12 -0.74 0 -1.24 3.35 -1.24 7.57 0 6.46 0.25 7.45 1.99 6.83 1.12 -0.37 7.32 -1.99 13.91 -3.35z"/>
  <path d="M433.17 114.59 c-8.32 -0.50 -8.32 -0.50 -7.32 -3.85 1.24 -3.85 2.98 -10.68 4.97 -19.49 2.48 -10.80 4.22 -16.76 4.97 -16.76 0.37 0 1.99 5.71 3.48 12.79 1.49 6.95 3.35 14.65 3.97 17.13 1.74 6.33 1.61 11.05 -0.25 10.80 -0.87 -0.12 -5.34 -0.37 -9.81 -0.62z m8.94 -8.19 c-0.62 -2.86 -2.23 -9.56 -3.35 -14.90 -2.11 -10.43 -3.72 -12.79 -4.84 -7.45 -1.37 6.46 -2.98 13.41 -3.72 16.51 -3.23 12.79 -3.48 12.29 4.84 12.66 4.22 0.25 7.82 -0.12 8.07 -0.62 0.25 -0.62 -0.25 -3.35 -0.99 -6.21z"/>
 </g>
</svg>