<?xml version="1.0" encoding="utf-8"?>
<!DOCTYPE svg PUBLIC "-//W3C//DTD SVG 1.0//EN" "http://www.w3.org/TR/2001/REC-SVG-20010904/DTD/svg10.dtd">
<svg version="1.0" xmlns="http://www.w3.org/2000/svg" width="512px" height="462px" viewBox="0 0 512 462" preserveAspectRatio="xMidYMid meet">
 <g fill="#ffffff">
  <path d="M 23.56 404.57 c 0 -1.26 4.24 -5.34 9.42 -9.11 18.22 -13.04 79.63 -57.01 100.83 -72.25 11.94 -8.48 21.99 -15.39 22.46 -15.39 0.47 0 9.42 5.81 19.95 12.72 17.90 12.09 19.32 12.72 22.62 10.68 2.04 -1.26 18.69 -13.66 37.38 -27.80 l 33.77 -25.44 20.10 13.98 c 30.78 21.52 56.38 39.89 71.30 51.04 13.66 10.05 13.66 10.05 20.42 3.14 3.77 -3.77 7.54 -6.91 8.48 -6.91 2.04 0 37.85 24.19 55.44 37.54 21.05 15.86 32.20 23.72 35.18 24.66 1.57 0.47 2.83 1.88 2.83 3.14 0 1.88 -31.41 2.20 -230.09 2.20 -198.20 0 -230.09 -0.31 -230.09 -2.20 z  m 250.19 -27.96 c 2.36 -0.79 4.24 -2.20 4.24 -2.83 0 -1.41 -8.80 -8.48 -16.02 -13.04 -2.51 -1.57 -4.40 -3.77 -4.40 -5.03 0 -1.26 2.83 -10.84 6.28 -21.20 3.46 -10.37 6.28 -20.10 6.28 -21.52 0 -2.36 -0.31 -2.36 -2.67 -0.16 -4.55 4.08 -47.74 32.67 -49.32 32.67 -3.61 0 0.16 3.30 17.43 14.92 10.37 6.91 21.05 14.13 23.87 16.18 2.83 2.04 6.13 3.14 7.38 2.51 1.41 -0.47 4.40 -1.73 6.91 -2.51 z  m -141.51 0.31 c 9.11 -2.67 15.39 -8.95 21.20 -21.83 2.98 -6.28 5.03 -11.94 4.71 -12.25 -0.79 -0.63 -8.17 4.55 -30 20.89 -7.07 5.18 -13.98 9.89 -15.39 10.52 -9.74 3.61 7.38 5.97 19.47 2.67 z "/>
  <path d="M 365.47 330.92 c -8.48 -5.34 -8.48 -5.18 -1.26 -12.25 14.45 -14.29 28.27 -40.05 34.87 -65.02 3.14 -11.78 3.77 -17.90 3.77 -36.91 0 -24.81 -1.41 -32.98 -8.95 -52.46 -11.78 -30.63 -35.18 -59.68 -59.84 -74.44 -25.44 -15.23 -48.06 -21.36 -79.63 -21.52 -42.09 0 -73.97 13.19 -103.66 43.19 -23.87 24.03 -37.38 51.04 -42.40 84.65 -4.87 31.57 3.93 69.89 22.77 100.52 3.93 6.28 7.07 11.94 7.07 12.41 0 1.10 -10.21 8.17 -11.78 8.17 -0.47 0 -4.08 -5.03 -8.17 -11.31 -24.81 -38.48 -33.61 -89.84 -22.30 -130.83 10.21 -37.07 32.20 -69.10 63.45 -92.35 47.27 -35.34 112.92 -41.31 168.05 -15.08 49.47 23.40 85.44 75.23 91.72 132.08 1.73 15.55 0.31 42.40 -2.98 54.97 -7.22 27.96 -20.42 53.24 -37.22 71.46 -7.54 8.32 -7.54 8.32 -13.51 4.71 z "/>
  <path d="M 188.47 296.05 c 0 -1.26 0.63 -3.61 1.41 -5.18 0.79 -1.41 10.84 -21.83 22.14 -45.23 20.73 -42.56 20.73 -42.56 40.68 -57.48 32.67 -24.50 75.70 -54.97 76.49 -54.18 0.47 0.31 -10.21 22.46 -23.56 49.16 -27.64 54.81 -17.43 43.35 -78.68 87.95 -13.82 10.05 -27.80 20.26 -30.94 22.77 -6.60 5.18 -7.54 5.50 -7.54 2.20 z  M271.08 214.38 C 271.08 207.94 265.74 202.60 259.14 202.60 252.70 202.60 247.36 207.94 247.36 214.38 247.36 220.98 252.70 226.32 259.14 226.32 265.74 226.32 271.08 220.98 271.08 214.38 Z M270.61 220.98 "/>
  <path d="M 285.53 276.26 c -4.08 -2.36 -3.61 -3.77 4.55 -11.15 12.56 -11.62 23.09 -40.05 19.47 -52.61 -1.26 -4.08 -0.94 -5.81 1.41 -8.64 5.03 -6.28 7.07 -1.73 7.07 15.71 0 21.20 -5.34 34.24 -20.89 51.20 -7.22 7.70 -7.54 8.01 -11.62 5.50 z "/>
  <path d="M 196.32 245.79 c -0.94 -2.36 -2.51 -9.27 -3.46 -15.08 -4.87 -27.96 12.72 -60.94 39.42 -74.13 9.11 -4.55 11.94 -5.03 26.39 -5.50 10.37 -0.47 16.18 0 16.18 0.94 0 3.30 -5.03 6.60 -10.05 6.60 -23.72 0 -46.33 13.51 -55.91 33.61 -5.50 11.78 -8.32 29.06 -6.91 43.35 0.79 8.32 0.47 10.68 -1.57 12.41 -2.04 1.73 -2.67 1.41 -4.08 -2.20 z "/>
  <path d="M 153.91 221.29 c -3.93 -0.79 -10.84 -2.20 -15.23 -3.14 -4.55 -0.94 -8.32 -2.36 -8.32 -3.14 0 -0.79 0.47 -1.41 1.26 -1.41 0.63 -0.16 10.99 -1.41 23.09 -3.14 12.09 -1.57 22.62 -2.36 23.24 -1.73 0.79 0.79 1.10 4.08 0.79 7.38 -0.47 6.13 -0.47 6.13 -9.11 6.44 -4.71 0.16 -11.78 -0.47 -15.71 -1.26 z "/>
  <path d="M 339.24 216.11 c 0 -3.93 0.47 -7.38 1.26 -7.70 0.63 -0.47 5.65 -0.16 11.31 0.63 30 4.24 37.85 6.60 29.53 8.48 -9.27 2.04 -32.35 5.50 -36.91 5.50 -5.03 0 -5.18 -0.16 -5.18 -6.91 z "/>
  <path d="M 245.79 133.97 c 0.63 -2.51 2.83 -11.31 4.71 -19.79 3.77 -16.02 4.87 -18.85 6.13 -15.08 1.26 4.08 8.80 36.75 8.80 38.01 0 0.63 -4.71 1.10 -10.37 1.10 -10.37 0 -10.37 0 -9.27 -4.24 z "/>
 </g>
</svg>