<?xml version="1.0" encoding="utf-8"?>
<!DOCTYPE svg PUBLIC "-//W3C//DTD SVG 1.0//EN" "http://www.w3.org/TR/2001/REC-SVG-20010904/DTD/svg10.dtd">
<svg version="1.0" xmlns="http://www.w3.org/2000/svg" width="844px" height="512px" viewBox="0 0 844 512" preserveAspectRatio="xMidYMid meet">
 <g fill="#ffffff">
  <path d="M 648.71 409.65 c 0 -43.77 0 -43.77 7.86 -43.77 6.73 0 7.86 0.67 7.86 5.61 0 5.39 0 5.39 5.61 0 8.53 -8.75 21.77 -7.86 31.87 2.24 7.86 7.86 7.86 7.86 7.18 25.59 -0.90 15.04 -1.80 18.63 -6.29 23.57 -8.75 9.43 -26.71 10.55 -34.79 2.24 -3.37 -3.14 -3.59 -2.02 -3.59 12.35 0 15.94 0 15.94 -7.86 15.94 -7.86 0 -7.86 0 -7.86 -43.77 z  m 39.73 2.92 c 6.96 -6.51 7.18 -22.22 0.67 -28.73 -10.55 -10.55 -24.69 -2.24 -24.69 14.59 0 17.06 12.79 24.69 24.02 14.14 z "/>
  <path d="M 96.97 426.49 c -6.06 -3.82 -13.92 -15.71 -13.92 -21.32 0 -0.67 4.04 -1.12 8.98 -1.12 6.29 0 8.98 0.90 8.98 3.14 0 8.31 19.53 13.69 27.39 7.63 9.65 -7.86 5.61 -16.16 -9.88 -19.75 -20.65 -4.94 -30.08 -11.90 -32.32 -24.02 -3.59 -19.53 24.02 -34.12 46.91 -24.47 8.75 3.59 14.14 9.43 16.16 17.73 1.57 5.84 1.35 6.06 -7.18 6.06 -6.73 0 -8.98 -1.12 -10.77 -4.94 -5.16 -11.45 -26.26 -10.77 -27.61 0.90 -0.90 6.96 4.94 10.77 23.57 15.26 26.26 6.06 32.10 34.34 9.65 46.02 -9.65 4.94 -30.98 4.26 -39.96 -1.12 z "/>
  <path d="M 169.25 427.84 c -3.59 -2.69 -4.49 -6.51 -4.94 -25.81 -0.90 -20.43 -1.35 -22.67 -5.16 -22.67 -3.14 0 -4.26 -1.57 -4.26 -6.73 0 -5.16 0.90 -6.73 4.49 -6.73 3.59 0 4.49 -1.57 4.49 -7.86 0 -7.41 0.45 -7.86 7.86 -7.86 7.41 0 7.86 0.45 7.86 7.86 0 7.18 0.45 7.86 6.73 7.86 6.06 0 6.73 0.67 6.73 6.73 0 6.06 -0.67 6.73 -6.73 6.73 -6.96 0 -6.96 0 -6.29 18.63 0.67 18.18 0.67 18.41 6.96 19.08 5.16 0.67 6.06 1.80 6.06 7.41 0 6.29 -0.45 6.51 -9.65 6.51 -5.39 0 -11.67 -1.35 -14.14 -3.14 z "/>
  <path d="M 205.39 425.37 c -6.73 -6.51 -7.41 -18.63 -1.57 -25.59 4.04 -5.16 16.61 -8.98 29.18 -9.20 4.26 0 7.18 -1.12 7.18 -2.92 0 -8.53 -15.94 -11.67 -20.65 -3.82 -3.59 5.61 -17.51 6.51 -17.51 0.90 0 -11 12.12 -18.86 29.18 -18.86 9.88 0 12.57 1.12 18.18 6.51 6.51 6.51 6.51 6.96 6.51 32.55 0 26.04 0 26.04 -7.86 26.04 -5.61 0 -7.86 -0.90 -7.86 -3.59 0 -3.14 -0.45 -3.14 -4.94 0 -8.08 5.61 -23.34 4.71 -29.85 -2.02 z  m 31.20 -11.45 c 2.02 -1.80 3.59 -5.61 3.59 -8.08 0 -4.26 -0.90 -4.49 -10.55 -2.92 -6.06 0.90 -11.45 2.02 -12.35 2.69 -2.24 1.12 -2.24 8.31 -0.22 10.33 2.69 2.92 16.16 1.57 19.53 -2.02 z "/>
  <path d="M 278.12 427.16 c -9.43 -5.61 -14.14 -15.94 -14.37 -29.85 0 -21.10 13.24 -33 34.79 -30.98 9.88 1.12 13.24 2.47 18.41 8.31 8.75 9.88 8.31 13.69 -2.24 13.69 -5.84 0 -9.20 -1.35 -11.22 -4.49 -3.59 -5.84 -14.14 -5.84 -19.30 -0.22 -6.29 6.73 -5.61 24.47 0.67 29.85 6.73 5.39 14.14 5.16 19.30 -0.45 4.71 -5.16 19.08 -6.29 19.08 -1.57 0 4.71 -6.51 12.57 -13.47 16.16 -8.53 4.49 -24.24 4.26 -31.65 -0.45 z "/>
  <path d="M 332.21 388.33 c 0 -42.65 0 -42.65 7.86 -42.65 7.86 0 7.86 0 7.86 23.12 l 0 22.90 11.90 -13.02 c 10.77 -12.12 12.35 -13.02 21.55 -12.79 9.88 0 9.88 0 -2.69 13.24 -7.18 7.41 -12.79 14.14 -12.79 15.04 0 0.90 5.61 8.98 12.35 17.96 6.73 8.98 12.35 17.06 12.35 17.73 0 0.67 -4.04 1.12 -8.98 1.12 -8.31 0 -9.43 -0.90 -17.28 -12.35 -5.16 -8.08 -9.20 -12.12 -11.45 -11.22 -1.57 0.67 -3.59 1.12 -4.04 1.12 -0.45 0 -0.90 5.16 -0.90 11.22 0 11.22 0 11.22 -7.86 11.22 -7.86 0 -7.86 0 -7.86 -42.65 z "/>
  <path d="M 407.41 426.94 c -8.53 -5.39 -11.67 -8.98 -13.47 -16.84 -1.57 -5.84 -1.35 -6.06 7.63 -6.06 6.51 0 9.20 0.90 9.20 3.14 0 4.94 8.98 10.33 16.84 10.33 8.53 0 16.84 -5.61 16.84 -11.45 0 -4.94 -8.75 -9.43 -23.12 -12.12 -19.53 -3.82 -30.53 -19.53 -23.57 -34.12 11.45 -23.79 54.99 -20.88 61.28 4.49 1.57 5.61 1.12 6.06 -5.61 6.06 -5.16 0 -8.98 -2.02 -13.47 -6.73 -6.51 -7.18 -11.67 -8.08 -21.10 -4.49 -4.26 1.57 -5.84 3.82 -5.84 7.86 0 6.29 6.51 10.33 24.02 14.59 5.16 1.35 12.57 4.94 16.39 8.08 11.90 10.10 8.53 30.08 -6.73 37.94 -9.20 4.71 -30.98 4.26 -39.28 -0.67 z "/>
  <path d="M 469.14 388.33 c 0 -42.65 0 -42.65 7.86 -42.65 7.86 0 7.86 0 7.86 15.71 0 15.49 0 15.49 5.61 10.10 3.82 -3.82 7.86 -5.61 13.47 -5.61 18.41 0 23.57 9.43 23.57 42.65 0 22.45 0 22.45 -8.98 22.45 -8.98 0 -8.98 0 -8.98 -23.57 0 -20.88 -0.45 -23.57 -4.26 -25.81 -6.51 -3.37 -11 -2.69 -15.94 2.24 -3.82 3.82 -4.49 7.41 -4.49 25.81 0 21.32 0 21.32 -7.86 21.32 -7.86 0 -7.86 0 -7.86 -42.65 z "/>
  <path d="M 544.78 424.24 c -14.14 -12.35 -15.26 -36.81 -2.02 -50.06 5.16 -5.16 9.43 -6.96 17.73 -7.63 19.53 -2.02 31.87 8.08 32.77 26.26 0.45 9.43 0.45 9.43 -21.32 9.43 -23.34 0 -25.14 0.90 -18.41 10.33 4.49 6.51 17.51 6.96 21.55 0.45 2.02 -3.14 5.39 -4.49 11.22 -4.49 8.53 0 8.53 0 5.61 6.96 -3.59 9.20 -15.49 15.49 -28.96 15.49 -8.53 0 -12.12 -1.35 -18.18 -6.73 z  m 32.10 -35.02 c 0 -0.67 -1.12 -3.14 -2.24 -5.61 -2.92 -5.39 -14.81 -5.84 -20.65 -0.45 -6.51 5.84 -4.71 7.41 9.43 7.41 7.41 0 13.47 -0.67 13.47 -1.35 z "/>
  <path d="M 602.70 399.10 c 0 -32.10 0 -32.10 7.41 -32.77 6.06 -0.67 7.18 0 7.18 4.26 0 4.94 0 4.94 5.16 0.22 2.92 -2.69 7.86 -4.94 11.22 -4.94 5.39 0 6.06 0.90 6.06 7.86 0 7.41 -0.45 7.86 -7.41 7.86 -11.45 0 -12.79 2.92 -12.79 27.39 0 22 0 22 -8.53 22 -8.31 0 -8.31 0 -8.31 -31.87 z "/>
  <path d="M 721.44 425.37 c -4.49 -4.49 -5.61 -7.41 -4.94 -15.04 0.90 -12.35 7.86 -17.51 26.04 -19.08 8.31 -0.90 13.92 -2.24 13.92 -3.82 0 -8.53 -15.94 -11.22 -20.65 -3.59 -3.82 6.06 -17.51 6.29 -17.51 0.22 0 -5.16 10.33 -15.71 17.28 -17.28 10.77 -2.92 26.04 0.45 31.43 6.96 4.71 5.39 5.16 8.08 5.16 31.65 0 25.59 0 25.59 -8.08 25.59 -6.96 0 -8.08 -0.67 -6.96 -4.49 0.67 -2.47 0.67 -4.49 0.22 -4.49 -0.45 0 -2.92 2.02 -5.39 4.49 -6.73 6.73 -23.12 6.29 -30.53 -1.12 z  m 32.32 -10.55 c 4.26 -4.26 3.37 -13.02 -1.57 -13.02 -14.81 0 -22.45 4.94 -19.53 12.35 1.57 4.04 17.06 4.71 21.10 0.67 z "/>
  <path d="M 261.95 303.48 c -5.84 -1.12 -4.49 -3.14 8.08 -12.12 6.51 -4.49 26.49 -18.86 44.67 -31.87 18.18 -12.79 34.12 -24.02 35.47 -24.92 1.12 -0.67 8.08 2.69 15.49 7.86 7.41 4.94 13.92 8.98 14.81 8.98 0.67 0 12.35 -8.53 26.26 -19.08 14.14 -11 26.26 -18.86 28.06 -18.18 3.59 1.57 24.69 16.16 52.97 36.81 19.75 14.59 19.75 14.59 24.92 9.65 2.69 -2.47 5.61 -4.71 6.51 -4.71 1.57 0 29.63 19.30 52.97 36.59 l 14.14 10.55 -38.83 0.22 c -21.55 0 -93.60 0.22 -160.49 0.45 -66.67 0.22 -123.01 0.22 -125.03 -0.22 z  m 80.14 -24.92 c 4.49 -4.04 14.14 -21.32 11 -20.20 -4.26 1.80 -34.12 23.34 -34.34 24.92 0 2.69 19.08 -1.12 23.34 -4.71 z  m 93.38 4.26 c 2.92 -2.02 2.24 -3.37 -4.04 -8.53 -7.41 -6.06 -7.41 -6.06 -2.69 -21.55 2.69 -8.31 4.49 -15.49 4.04 -15.71 -0.45 -0.22 -8.98 5.16 -19.08 12.12 l -18.41 12.79 16.16 11.22 c 17.51 12.35 18.86 13.02 24.02 9.65 z "/>
  <path d="M 499.89 248.94 c -4.04 -2.24 -4.04 -2.69 1.35 -8.53 13.24 -14.14 22.67 -34.79 26.26 -57.46 7.41 -46.91 -23.12 -98.77 -67.34 -114.48 -5.61 -2.02 -17.28 -4.49 -26.04 -5.84 -63.52 -8.75 -123.01 48.93 -116.95 113.13 1.57 16.84 8.53 37.71 16.61 49.61 5.39 8.31 5.61 8.98 1.80 11.90 -2.69 1.80 -4.94 2.02 -6.73 0.67 -5.16 -4.26 -14.37 -23.79 -18.86 -40.40 -11.45 -41.30 -0.90 -79.91 30.30 -111.56 19.98 -20.43 40.40 -30.75 67.34 -34.57 54.55 -7.86 108.64 26.49 126.82 80.36 4.04 11.90 5.16 20.20 5.16 36.59 -0.22 29.41 -8.08 52.75 -24.92 73.63 -8.31 10.33 -8.75 10.55 -14.81 6.96 z "/>
  <path d="M 374.86 225.14 c 0 -0.90 7.18 -16.39 15.94 -34.34 15.71 -32.55 15.71 -32.55 49.38 -57.01 18.63 -13.24 34.12 -24.02 34.57 -23.57 0.45 0.45 -6.96 16.16 -16.39 34.57 -17.28 33.67 -17.28 33.67 -37.49 48.71 -31.43 23.57 -46.02 33.45 -46.02 31.65 z  M433.45 167.23 C 433.45 162.74 429.86 159.15 425.37 159.15 420.88 159.15 417.29 162.74 417.29 167.23 417.29 171.72 420.88 175.31 425.37 175.31 429.86 175.31 433.45 171.72 433.45 167.23 Z M433.22 169.92 "/>
  <path d="M 442.20 209.20 c 0 -1.12 3.14 -4.71 6.73 -8.31 7.41 -7.18 14.14 -25.81 13.02 -36.14 -0.45 -3.37 0.67 -6.51 2.24 -6.96 4.04 -1.57 3.59 22.22 -0.90 32.55 -3.82 9.43 -13.69 20.65 -18.18 20.65 -1.57 0 -2.92 -0.90 -2.92 -1.80 z "/>
  <path d="M 380.02 187.21 c -3.37 -8.31 -1.57 -28.73 3.37 -38.16 5.16 -10.10 17.96 -22.45 26.71 -25.81 7.18 -2.69 25.36 -2.69 25.36 0.22 0 2.24 -2.92 3.14 -18.63 5.61 -9.43 1.57 -22.45 11.90 -27.83 22.22 -1.80 3.59 -3.82 13.69 -4.26 22.22 -0.90 16.84 -2.02 20.43 -4.71 13.69 z "/>
  <path d="M 343.66 170.37 c -13.02 -2.47 -13.47 -3.59 -2.69 -5.16 29.85 -4.49 27.16 -4.49 27.16 1.80 0 5.16 -0.90 5.84 -7.18 5.61 -4.04 -0.22 -11.90 -1.12 -17.28 -2.24 z "/>
  <path d="M 482.61 167.45 c 0 -4.94 0.90 -5.84 5.16 -4.94 2.69 0.67 9.88 1.80 16.16 2.47 13.47 1.80 10.10 4.49 -8.31 6.73 -13.02 1.57 -13.02 1.57 -13.02 -4.26 z "/>
  <path d="M 416.84 105.05 c 0.67 -4.04 2.47 -10.77 3.82 -14.81 2.69 -7.63 2.69 -7.63 6.29 7.18 3.37 14.81 3.37 14.81 -4.04 14.81 -7.18 0 -7.41 -0.22 -6.06 -7.18 z "/>
 </g>
</svg>